<?xml version="1.0" encoding="UTF-8" standalone="no"?>
<!-- Created with Inkscape (http://www.inkscape.org/) -->

<svg
   xmlns:dc="http://purl.org/dc/elements/1.1/"
   xmlns:cc="http://creativecommons.org/ns#"
   xmlns:rdf="http://www.w3.org/1999/02/22-rdf-syntax-ns#"
   xmlns:svg="http://www.w3.org/2000/svg"
   xmlns="http://www.w3.org/2000/svg"
   xmlns:sodipodi="http://sodipodi.sourceforge.net/DTD/sodipodi-0.dtd"
   xmlns:inkscape="http://www.inkscape.org/namespaces/inkscape"
   width="744.09448819"
   height="1052.3622047"
   id="svg2992"
   version="1.1"
   inkscape:version="0.48.5 r10040"
   sodipodi:docname="AuditHeaderFull1.svg">
  <defs
     id="defs2994">
    <marker
       inkscape:stockid="TriangleOutM"
       orient="auto"
       refY="0.0"
       refX="0.0"
       id="TriangleOutM"
       style="overflow:visible">
      <path
         id="path3953"
         d="M 5.77,0.0 L -2.88,5.0 L -2.88,-5.0 L 5.77,0.0 z "
         style="fill-rule:evenodd;stroke:#000000;stroke-width:1.0pt"
         transform="scale(0.4)" />
    </marker>
    <marker
       inkscape:stockid="EmptyTriangleOutL"
       orient="auto"
       refY="0.0"
       refX="0.0"
       id="EmptyTriangleOutL"
       style="overflow:visible">
      <path
         id="path3968"
         d="M 5.77,0.0 L -2.88,5.0 L -2.88,-5.0 L 5.77,0.0 z "
         style="fill-rule:evenodd;fill:#FFFFFF;stroke:#000000;stroke-width:1.0pt"
         transform="scale(0.8) translate(-6,0)" />
    </marker>
    <linearGradient
       id="linearGradient5029">
      <stop
         style="stop-color:#acbfc6;stop-opacity:1;"
         offset="0"
         id="stop5031" />
      <stop
         style="stop-color:#13587c;stop-opacity:1;"
         offset="1"
         id="stop5033" />
    </linearGradient>
    <marker
       inkscape:stockid="Arrow2Send"
       orient="auto"
       refY="0.0"
       refX="0.0"
       id="Arrow2Send"
       style="overflow:visible;">
      <path
         id="path3841"
         style="fill-rule:evenodd;stroke-width:0.62500000;stroke-linejoin:round;"
         d="M 8.7185878,4.0337352 L -2.2072895,0.016013256 L 8.7185884,-4.0017078 C 6.9730900,-1.6296469 6.9831476,1.6157441 8.7185878,4.0337352 z "
         transform="scale(0.3) rotate(180) translate(-2.3,0)" />
    </marker>
    <marker
       inkscape:stockid="Arrow2Mend"
       orient="auto"
       refY="0.0"
       refX="0.0"
       id="Arrow2Mend"
       style="overflow:visible;">
      <path
         id="path3835"
         style="fill-rule:evenodd;stroke-width:0.62500000;stroke-linejoin:round;"
         d="M 8.7185878,4.0337352 L -2.2072895,0.016013256 L 8.7185884,-4.0017078 C 6.9730900,-1.6296469 6.9831476,1.6157441 8.7185878,4.0337352 z "
         transform="scale(0.6) rotate(180) translate(0,0)" />
    </marker>
    <marker
       inkscape:stockid="Arrow1Mend"
       orient="auto"
       refY="0.0"
       refX="0.0"
       id="Arrow1Mend"
       style="overflow:visible;">
      <path
         id="path3817"
         d="M 0.0,0.0 L 5.0,-5.0 L -12.5,0.0 L 5.0,5.0 L 0.0,0.0 z "
         style="fill-rule:evenodd;stroke:#000000;stroke-width:1.0pt;"
         transform="scale(0.4) rotate(180) translate(10,0)" />
    </marker>
    <marker
       inkscape:stockid="Arrow1Lend"
       orient="auto"
       refY="0.0"
       refX="0.0"
       id="Arrow1Lend"
       style="overflow:visible;">
      <path
         id="path3811"
         d="M 0.0,0.0 L 5.0,-5.0 L -12.5,0.0 L 5.0,5.0 L 0.0,0.0 z "
         style="fill-rule:evenodd;stroke:#000000;stroke-width:1.0pt;"
         transform="scale(0.8) rotate(180) translate(12.5,0)" />
    </marker>
    <filter
       style="color-interpolation-filters:sRGB;"
       inkscape:label="Drop Shadow"
       id="filter5130">
      <feFlood
         flood-opacity="0.424"
         flood-color="rgb(0,0,0)"
         result="flood"
         id="feFlood5132" />
      <feComposite
         in="flood"
         in2="SourceGraphic"
         operator="in"
         result="composite1"
         id="feComposite5134" />
      <feGaussianBlur
         in="composite"
         stdDeviation="1.4"
         result="blur"
         id="feGaussianBlur5136" />
      <feOffset
         dx="2.6"
         dy="2"
         result="offset"
         id="feOffset5138" />
      <feComposite
         in="SourceGraphic"
         in2="offset"
         operator="over"
         result="composite2"
         id="feComposite5140" />
    </filter>
    <filter
       inkscape:label="Glow"
       inkscape:menu="Shadows and Glows"
       inkscape:menu-tooltip="Glow of object's own color at the edges"
       color-interpolation-filters="sRGB"
       id="filter5912">
      <feGaussianBlur
         stdDeviation="5"
         result="result91"
         id="feGaussianBlur5914" />
      <feComposite
         in="SourceGraphic"
         operator="over"
         in2="result91"
         id="feComposite5916" />
    </filter>
    <filter
       inkscape:menu-tooltip="Glow of object's own color at the edges"
       inkscape:menu="Shadows and Glows"
       inkscape:label="Glow"
       height="1"
       width="1"
       y="0"
       x="0"
       color-interpolation-filters="sRGB"
       id="filter5942">
      <feColorMatrix
         result="result14"
         type="luminanceToAlpha"
         in="SourceGraphic"
         id="feColorMatrix5944" />
      <feComposite
         in="SourceGraphic"
         in2="result14"
         result="fbSourceGraphic"
         operator="out"
         id="feComposite5946" />
      <feBlend
         mode="normal"
         in2="fbSourceGraphic"
         result="fbSourceGraphic"
         id="feBlend5948" />
      <feColorMatrix
         result="fbSourceGraphicAlpha"
         in="fbSourceGraphic"
         values="0 0 0 -1 0 0 0 0 -1 0 0 0 0 -1 0 0 0 0 1 0"
         id="feColorMatrix5974" />
      <feGaussianBlur
         id="feGaussianBlur5976"
         stdDeviation="5"
         result="result91"
         in="fbSourceGraphic" />
      <feComposite
         id="feComposite5978"
         in2="result91"
         in="fbSourceGraphic"
         operator="over" />
    </filter>
    <filter
       inkscape:collect="always"
       id="filter5984">
      <feGaussianBlur
         inkscape:collect="always"
         stdDeviation="5.0000002"
         id="feGaussianBlur5986" />
    </filter>
    <filter
       inkscape:collect="always"
       id="filter6082">
      <feGaussianBlur
         inkscape:collect="always"
         stdDeviation="4.6533911"
         id="feGaussianBlur6084" />
    </filter>
    <filter
       inkscape:collect="always"
       id="filter6100"
       x="-0.13484065"
       width="1.2696813"
       y="-0.099168583"
       height="1.1983372">
      <feGaussianBlur
         inkscape:collect="always"
         stdDeviation="3.0879857"
         id="feGaussianBlur6102" />
    </filter>
  </defs>
  <sodipodi:namedview
     id="base"
     pagecolor="#ffffff"
     bordercolor="#666666"
     borderopacity="1.0"
     inkscape:pageopacity="0.0"
     inkscape:pageshadow="2"
     inkscape:zoom="0.22502571"
     inkscape:cx="-2253.6647"
     inkscape:cy="750.98099"
     inkscape:document-units="px"
     inkscape:current-layer="layer1"
     showgrid="false"
     inkscape:window-width="1440"
     inkscape:window-height="802"
     inkscape:window-x="0"
     inkscape:window-y="0"
     inkscape:window-maximized="0" />
  <metadata
     id="metadata2997">
    <rdf:RDF>
      <cc:Work
         rdf:about="">
        <dc:format>image/svg+xml</dc:format>
        <dc:type
           rdf:resource="http://purl.org/dc/dcmitype/StillImage" />
        <dc:title></dc:title>
      </cc:Work>
    </rdf:RDF>
  </metadata>
  <g
     inkscape:label="Layer 1"
     inkscape:groupmode="layer"
     id="layer1">
    <flowRoot
       xml:space="preserve"
       id="flowRoot3000"
       style="font-size:200px;font-style:normal;font-variant:normal;font-weight:normal;font-stretch:normal;line-height:125%;letter-spacing:0px;word-spacing:0px;fill:#13587c;fill-opacity:1;stroke:none;font-family:Nickainley;-inkscape-font-specification:Nickainley"
       transform="matrix(1.4115411,-0.4203687,0.4203687,1.4115411,1269.3411,-646.75849)"><flowRegion
         id="flowRegion3002"><rect
           id="rect3004"
           width="3040"
           height="1880"
           x="-2325.7144"
           y="-779.06641"
           style="fill:#13587c;fill-opacity:1" /></flowRegion><flowPara
         id="flowPara3008">Audit Results</flowPara></flowRoot>    <flowRoot
       xml:space="preserve"
       id="flowRoot3012"
       style="font-size:200px;font-style:normal;font-variant:normal;font-weight:normal;font-stretch:normal;line-height:125%;letter-spacing:0px;word-spacing:0px;fill:#13587c;fill-opacity:1;stroke:none;font-family:Nickainley;-inkscape-font-specification:Nickainley"
       transform="matrix(1.0583363,-0.23490137,0.23490137,1.0583363,603.10641,-691.53149)"><flowRegion
         id="flowRegion3014"><rect
           id="rect3016"
           width="762.85712"
           height="294.28571"
           x="-2254.2856"
           y="-407.63782"
           style="fill:#13587c;fill-opacity:1" /></flowRegion><flowPara
         id="flowPara3020">for the </flowPara></flowRoot>    <flowRoot
       xml:space="preserve"
       id="flowRoot3024"
       style="font-size:200px;font-style:normal;font-variant:normal;font-weight:normal;font-stretch:normal;line-height:125%;letter-spacing:0px;word-spacing:0px;fill:#13587c;fill-opacity:1;stroke:none;font-family:Nickainley;-inkscape-font-specification:Nickainley"
       transform="matrix(1.5232548,0,0,1.5505092,1767.076,-406.19547)"><flowRegion
         id="flowRegion3026"><rect
           id="rect3028"
           width="660"
           height="337.14285"
           x="-2368.5715"
           y="-10.49496"
           style="fill:#13587c;fill-opacity:1" /></flowRegion><flowPara
         id="flowPara3030">Query</flowPara></flowRoot>    <text
       xml:space="preserve"
       style="font-size:233.82501221px;font-style:normal;font-variant:normal;font-weight:normal;font-stretch:normal;line-height:125%;letter-spacing:0px;word-spacing:0px;fill:#13587c;fill-opacity:1;stroke:none;font-family:Pier Sans;-inkscape-font-specification:Pier Sans"
       x="-3961.4624"
       y="398.0914"
       id="text4616"
       sodipodi:linespacing="125%"
       inkscape:export-filename="/Applications/MAMP/htdocs/AuditSystemResults/img/AuditHeaderFull1.png"
       inkscape:export-xdpi="90"
       inkscape:export-ydpi="90"><tspan
         sodipodi:role="line"
         id="tspan4618"
         x="-3961.4624"
         y="398.0914">Audit Results</tspan></text>
    <text
       xml:space="preserve"
       style="font-size:92.54689026px;font-style:normal;font-variant:normal;font-weight:normal;font-stretch:normal;line-height:100%;letter-spacing:0px;word-spacing:0px;fill:#ecf0f1;fill-opacity:1;stroke:#13587c;stroke-width:2.29999995;stroke-miterlimit:4;stroke-opacity:1;stroke-dasharray:none;filter:url(#filter5130);font-family:Nickainley;-inkscape-font-specification:Nickainley"
       x="-3447.5249"
       y="525.74323"
       id="text4620"
       sodipodi:linespacing="100%"
       inkscape:export-filename="/Applications/MAMP/htdocs/AuditSystemResults/img/AuditHeaderFull1.png"
       inkscape:export-xdpi="90"
       inkscape:export-ydpi="90"><tspan
         sodipodi:role="line"
         id="tspan4622"
         x="-3447.5249"
         y="525.74323"
         style="font-style:normal;font-variant:normal;font-weight:normal;font-stretch:normal;line-height:100%;fill:#ecf0f1;fill-opacity:1;stroke:#13587c;stroke-width:2.29999995;stroke-miterlimit:4;stroke-opacity:1;stroke-dasharray:none;font-family:Pier Sans;-inkscape-font-specification:Pier Sans">for</tspan><tspan
         sodipodi:role="line"
         x="-3447.5249"
         y="618.2901"
         style="font-style:normal;font-variant:normal;font-weight:normal;font-stretch:normal;line-height:100%;fill:#ecf0f1;fill-opacity:1;stroke:#13587c;stroke-width:2.29999995;stroke-miterlimit:4;stroke-opacity:1;stroke-dasharray:none;font-family:Pier Sans;-inkscape-font-specification:Pier Sans"
         id="tspan4628">the</tspan></text>
    <g
       style="font-size:269.58184814px;font-style:normal;font-variant:normal;font-weight:normal;font-stretch:normal;line-height:125%;letter-spacing:0px;word-spacing:0px;fill:#13587c;fill-opacity:1;stroke:none;font-family:Pier Sans;-inkscape-font-specification:Pier Sans"
       id="text4624"
       inkscape:export-filename="/Applications/MAMP/htdocs/AuditSystemResults/img/AuditHeaderFull1.png"
       inkscape:export-xdpi="90"
       inkscape:export-ydpi="90"
       transform="translate(-1327.1767,-325.02286)">
      <path
         d="m -1750.7723,965.55623 -28.0365,-29.92359 c 15.3662,-18.60113 24.8016,-42.86354 24.8016,-69.28253 0,-58.76879 -46.0986,-106.21525 -102.7107,-106.21525 -56.8817,0 -102.7107,47.44646 -102.7107,106.21525 0,58.76878 45.829,106.48483 102.7107,106.48483 22.3753,0 43.1331,-7.54831 59.8471,-20.21864 l 27.767,29.92358 18.3315,-16.98365 m -105.9456,-17.52282 c -19.4099,0 -37.4719,-8.35706 -51.2206,-23.45363 -13.7486,-15.63573 -21.5665,-36.12399 -21.5665,-58.22967 0,-21.83611 7.8179,-42.59395 21.5665,-57.9601 13.7487,-15.09657 31.8107,-23.45362 51.2206,-23.45362 19.1403,0 37.2023,8.35705 50.9509,23.45362 14.0183,15.36615 21.5666,36.12399 21.5666,57.9601 0,17.79238 -4.8525,34.50649 -14.0183,48.52473 l -28.8452,-31.54108 -18.3316,16.98366 30.4628,32.88898 c -12.1312,9.43536 -26.6887,14.82701 -41.7852,14.82701"
         style="fill:#13587c;fill-opacity:1"
         id="path5011"
         inkscape:connector-curvature="0" />
      <path
         d="m -1715.5834,911.37027 c 0,43.9418 17.5229,64.43006 59.0384,61.19508 15.9053,-1.3479 32.889,-11.32245 36.124,-23.7232 l 0,18.60115 28.0365,0 0,-133.17343 -28.0365,0 0,77.1004 c 0,26.95816 -13.2095,38.81979 -36.124,38.81979 -22.9144,0 -31.2715,-11.86163 -31.2715,-38.81979 l 0,-77.1004 -27.7669,0 0,77.1004"
         style="fill:#13587c;fill-opacity:1"
         id="path5013"
         inkscape:connector-curvature="0" />
      <path
         d="m -1428.9042,901.12616 c 0,-4.3133 -0.2696,-8.62662 -1.0783,-12.93993 -5.6612,-33.42811 -32.889,-59.03842 -65.778,-59.03842 -36.9326,0 -66.8563,32.34986 -66.8563,71.97835 0,39.6285 31.002,71.70878 69.5521,71.70878 19.9491,0 38.0111,-8.89622 50.6814,-22.91446 l -19.1403,-17.25324 c -7.5483,10.78326 -18.8707,17.52282 -31.5411,17.52282 -20.2186,0 -36.9327,-16.98368 -40.7068,-39.08937 l 104.8673,0 0,-9.97453 m -104.3281,-12.93993 c 4.3133,-20.75778 19.4099,-36.12396 37.4718,-36.12396 18.062,0 33.1586,15.36618 37.7415,36.12396 l -75.2133,0"
         style="fill:#13587c;fill-opacity:1"
         id="path5015"
         inkscape:connector-curvature="0" />
      <path
         d="m -1321.7706,833.19154 c -3.7742,-2.15665 -8.8962,-4.04373 -16.1749,-4.04373 -15.9054,0 -32.889,11.59203 -36.124,23.99278 l 0,-18.87072 -27.7669,0 0,133.17343 27.7669,0 0,-63.8909 c 0,-26.95816 13.4791,-51.49013 36.3935,-51.49013 6.2004,0 11.5921,0.80874 15.9054,2.69582 l 0,-21.56655"
         style="fill:#13587c;fill-opacity:1"
         id="path5017"
         inkscape:connector-curvature="0" />
      <path
         d="m -1184.5661,834.26987 -28.0366,0 -36.3935,87.34451 -36.6631,-87.34451 -28.0365,0 50.4118,119.15517 c -8.8962,21.29695 -20.1683,55.99756 -38.8411,55.62676 -4.9234,0.6122 -9.2943,1.4342 -14.2765,1.0751 l -8.4945,24.1895 c 47.638,3.7192 59.8266,-20.9 84.2569,-66.8731 22.3753,-53.37715 56.0731,-133.17343 56.0731,-133.17343"
         id="path5019"
         inkscape:connector-curvature="0"
         sodipodi:nodetypes="ccccccccccc"
         style="fill:#13587c;fill-opacity:1" />
    </g>
    <g
       id="g5021"
       style="fill:#13587c;fill-opacity:1"
       inkscape:export-filename="/Applications/MAMP/htdocs/AuditSystemResults/img/AuditHeaderFull1.png"
       inkscape:export-xdpi="90"
       inkscape:export-ydpi="90"
       transform="translate(-1327.1767,-325.02286)">
      <path
         style="font-size:medium;font-style:normal;font-variant:normal;font-weight:normal;font-stretch:normal;text-indent:0;text-align:start;text-decoration:none;line-height:normal;letter-spacing:normal;word-spacing:normal;text-transform:none;direction:ltr;block-progression:tb;writing-mode:lr-tb;text-anchor:start;baseline-shift:baseline;color:#000000;fill:#13587c;fill-opacity:1;stroke:none;stroke-width:22.79999924;marker:none;visibility:visible;display:inline;overflow:visible;enable-background:accumulate;font-family:Sans;-inkscape-font-specification:Sans"
         d="m -1945.6875,1012.4062 0,11.375 0,114.2813 22.8125,0 0,-102.875 598.7322,-0.7721 8.1035,-24.2441 -618.2419,2.2349 z"
         id="path4630"
         inkscape:connector-curvature="0"
         sodipodi:nodetypes="ccccccccc" />
      <path
         d="m -1906.695,1094.1734 -27.4812,74.733 -27.4812,-74.733 c 16.2249,11.9392 38.4234,11.8704 54.9624,0 z"
         style="fill:#13587c;fill-opacity:1;fill-rule:evenodd;stroke-width:0.625;stroke-linejoin:round"
         id="path5027"
         inkscape:connector-curvature="0" />
    </g>
    <g
       inkscape:export-ydpi="90"
       inkscape:export-xdpi="90"
       inkscape:export-filename="/Applications/MAMP/htdocs/AuditSystemResults/img/AuditHeaderFull1.png"
       style="fill:#13587c;fill-opacity:1;stroke-width:0;stroke-miterlimit:4;stroke-dasharray:none"
       id="g5769"
       transform="matrix(-1.2011189,0,0,0.96002646,-2751.4183,-1209.1247)">
      <path
         sodipodi:nodetypes="ccccccccc"
         inkscape:connector-curvature="0"
         id="path5771"
         d="m -1444.3659,1011.2271 0,5.3735 0,139.4008 10.7766,0 0,-134.0124 109.9959,1.4754 3.73,-13.1704 -119.1142,0.9331 z"
         style="font-size:medium;font-style:normal;font-variant:normal;font-weight:normal;font-stretch:normal;text-indent:0;text-align:start;text-decoration:none;line-height:normal;letter-spacing:normal;word-spacing:normal;text-transform:none;direction:ltr;block-progression:tb;writing-mode:lr-tb;text-anchor:start;baseline-shift:baseline;color:#000000;fill:#13587c;fill-opacity:1;stroke:none;stroke-width:0;marker:none;visibility:visible;display:inline;overflow:visible;enable-background:accumulate;font-family:Sans;-inkscape-font-specification:Sans" />
      <path
         inkscape:connector-curvature="0"
         id="path5773"
         style="fill:#13587c;fill-opacity:1;fill-rule:evenodd;stroke-width:0;stroke-linejoin:round;stroke-miterlimit:4;stroke-dasharray:none"
         d="m -1426.6216,1144.7984 -12.4867,33.9565 -12.4866,-33.9565 c 7.3721,5.4248 17.4585,5.3935 24.9733,0 z"
         sodipodi:nodetypes="cccc" />
    </g>
    <text
       inkscape:export-ydpi="90"
       inkscape:export-xdpi="90"
       inkscape:export-filename="/Applications/MAMP/htdocs/AuditSystemResults/img/AuditHeaderFull1.png"
       sodipodi:linespacing="125%"
       id="text5775"
       y="398.9299"
       x="-2298.4287"
       style="font-size:233.82501221px;font-style:normal;font-variant:normal;font-weight:normal;font-stretch:normal;line-height:125%;letter-spacing:0px;word-spacing:0px;fill:#13587c;fill-opacity:1;stroke:none;font-family:Pier Sans;-inkscape-font-specification:Pier Sans"
       xml:space="preserve"><tspan
         y="398.9299"
         x="-2298.4287"
         id="tspan5777"
         sodipodi:role="line">Audit Results</tspan></text>
    <g
       transform="matrix(0.97131282,-0.23780539,0.23780539,0.97131282,335.85696,-1397.5983)"
       style="font-size:109.69456482px;font-style:normal;font-variant:normal;font-weight:normal;font-stretch:normal;line-height:87.99999952%;letter-spacing:0px;word-spacing:0px;fill:#acbfc6;fill-opacity:1;stroke:#13587c;stroke-width:2.72615862;stroke-miterlimit:4;stroke-opacity:1;font-family:Nickainley;-inkscape-font-specification:Nickainley"
       id="text5779">
      <path
         style="font-size:170.68122864px;fill:#acbfc6;stroke:#13587c;stroke-width:2.72615862;font-family:FabfeltScript;-inkscape-font-specification:FabfeltScript"
         d="m -2162.1875,1824.375 c -2.3457,-0.06 -5.5678,0.6626 -8.8437,3.9688 -2.4125,2.3477 -4.687,6.0623 -6.6563,10.9374 -8.4259,21.5681 -17.5069,61.9486 -19.2813,86.2813 -1.2832,17.0078 -1.4198,35.1306 -0.125,49.75 1.954,23.7713 6.3048,30.0651 9.4376,32.8125 2.4323,2.0403 5.422,2.7306 8.4062,2 6.6313,-1.6235 10.6705,-9.4581 12.8125,-15.7812 3.6513,-10.2073 4.9115,-23.011 3.6875,-35.1876 -0.4768,-4.1005 -1.1196,-8.1461 -2.0938,-12.125 3.5084,2.1284 7.0936,3.0208 10.6563,2.5 3.703,-0.5723 7.1376,-2.5417 10.4063,-6 1.4309,3.6731 3.6006,6.5992 6.4374,8.5313 3.3832,2.3346 7.5864,3.0647 12.0626,1.9687 1.1604,-0.284 2.4547,-0.7814 3.9062,-1.3124 5.021,-2.4594 10.5109,-7.3025 15.9688,-14.4376 2.0842,-2.9702 4.0066,-5.9137 5.7187,-8.9687 4.7638,-0.6392 9.283,-2.2557 13.1875,-4.9687 4.6225,-2.5848 12.7486,-9.4274 14.9688,-11.9376 2.2564,-3.2743 3.6466,-18.8007 5.6874,-29.8437 6.736,2.3925 8.3251,4.6109 9.0626,6.1875 1.2279,2.8624 0.6386,7.6041 -0.8438,14.4688 -1.5229,6.6988 -1.9548,12.0773 -1.4375,16.3437 0.4328,4.6385 1.9768,8.1063 4.6563,10.4375 2.2666,2.081 6.2626,4.1049 12.5624,2.5625 l 1.5,-0.375 0.1563,-0.031 c 6.5097,-2.1208 13.0419,-7.0771 18.75,-14.625 5.0821,-6.5158 9.4442,-14.5877 11.9687,-22.9374 1.0085,-3.0585 -0.7132,-6.501 -3.9374,-7.4688 -3.2243,-0.9679 -6.6885,0.7446 -7.6563,3.9688 -4.4567,14.0945 -14.1572,26.8294 -22.6563,29.4374 l -0.3437,0.094 c -1.4515,0.5311 -1.9811,0.469 -2.1875,0.3438 -0.2876,-0.4568 -2.0822,-3.5161 0.5,-15.2188 1.611,-7.7747 2.8871,-15.4557 0.062,-21.9688 -2.7029,-6.0157 -8.3208,-10.2835 -18.4063,-13.4374 -0.034,-1.5733 -0.019,-2.9862 -0.3437,-4.3126 -1.089,-5.8836 -4.9394,-7.2021 -6.5937,-7.5 -4.2596,-0.89 -8.4531,2.0589 -9.7188,6.9376 -0.802,3.1836 -0.3067,6.5716 1.625,9.4374 0.5345,0.7478 1.2684,1.6367 1.9688,2.3438 -1.2078,6.6453 -3.1154,16.3281 -4.5938,23.8125 -2.2033,5.29 -7.2859,10.62 -12.5312,13.75 0.2942,-0.9507 0.4026,-1.8399 0.5312,-2.75 1.364,-8.0658 0.681,-16.006 -2.0625,-22.1875 -3.1122,-6.9698 -8.5637,-11.2344 -14.6875,-11.8438 -3.9313,-0.2674 -11.2552,0.6535 -18.2188,10.9688 -2.5004,3.4238 -3.901,7.1002 -4.375,10.9062 -1.6983,0.2401 -3.0298,1.243 -3.9062,2.6876 -3.9101,6.1123 -6.6284,12.9388 -7.9375,19.75 -2.3424,5.5382 -4.72,9.6302 -7.125,12.25 -2.1486,2.7406 -6.8584,2.4126 -8.6563,0.5312 -2.4323,-2.0403 -4.9897,-5.2682 -7.5,-8.3438 -2.0973,-2.8251 -4.2833,-5.2943 -6.3437,-7.25 -0.7003,-0.707 -2.2892,-2.2452 -4.4375,-3.125 3.7387,-2.6725 7.3052,-6.0076 10.4688,-9.5937 4.2463,-4.9056 7.8727,-10.88 10.8437,-17.4063 6.6931,-14.2905 8.3411,-28.4018 8.7813,-33.7812 0.6161,-7.5312 0.1739,-14.4638 -1.25,-19.5625 -2.5268,-8.1675 -6.8476,-10.6355 -10.0313,-11.4375 -0.5582,-0.1269 -1.2181,-0.23 -2,-0.25 z m -0.5313,12.8438 c 0.3688,0.7882 0.8037,1.8951 1.25,3.7187 0.4837,2.6932 1.05,7.1289 0.5626,13.75 -1.4018,15.8067 -7.6617,36.1546 -20.8438,48.3437 3.7907,-21.8389 10.1461,-46.0909 15.3438,-59.3124 1.5496,-3.7182 2.8552,-5.5935 3.6874,-6.5 z m 50.5938,52.8124 c 0.1709,-0.02 0.3453,-0.011 0.5312,0.031 1.6139,0.1321 3.469,1.9596 4.6563,4.6563 2.3747,5.3929 2.5753,13.4374 -0.5313,22.2812 -5.21,-1.1845 -9.9842,-4.236 -12.2812,-8.5938 -2.3815,-3.9855 -2.0232,-8.3037 0.9375,-12.7187 2.2095,-3.1768 4.3639,-5.116 6.1875,-5.5625 0.1658,-0.041 0.3291,-0.074 0.5,-0.094 z m -17.9688,24.9376 c 3.6131,6.1442 9.8292,10.7918 17.0626,13.0624 -0.626,1.0319 -1.4366,1.9369 -2.0626,2.9688 -5.3324,6.9287 -9.2383,9.6218 -11.4374,10.6875 -2.6967,1.1873 -3.5654,0.5221 -3.9376,0.4375 -1.7321,-1.3331 -3.4151,-5.301 -3.3437,-11.4688 0.06,-1.576 0.2252,-3.2404 0.5,-4.9062 0.013,-0.042 0.019,-0.083 0.031,-0.125 0.1196,-0.4181 0.1919,-0.8319 0.2187,-1.25 0.6244,-3.1489 1.6231,-6.3567 2.9687,-9.4062 z m -55.0624,15.0624 c 13.7211,21.5932 10.8383,44.979 9.5624,51.9688 -0.9746,4.6317 -2.2442,8.7885 -3.75,11.9688 -0.5852,1.1975 -1.0928,2.0495 -1.5937,2.875 -1.2279,-2.8624 -2.9612,-9.3127 -4.2187,-23.0626 -0.8891,-12.9614 -1.0668,-28.7281 0,-43.75 z"
         transform="matrix(0.97131282,0.23780539,-0.23780539,0.97131282,0,0)"
         id="path5804"
         inkscape:connector-curvature="0"
         sodipodi:nodetypes="scccccsccccccccccccccccccccccccccccccccccccccccccccccccccccccscccccccccccccccccccccccccccccc" />
      <path
         style="font-size:170.68122864px;fill:#acbfc6;stroke:#13587c;stroke-width:2.72615862;font-family:FabfeltScript;-inkscape-font-specification:FabfeltScript"
         d="m -2085.4688,1963.6562 c -2.3165,-0.042 -5.6616,0.6001 -8.9374,3.9063 -2.3719,2.5137 -4.6247,6.2374 -6.4688,10.9063 -4.108,10.4945 -8.0322,24.636 -10.75,38.6562 -2.2066,11.0836 -4.5155,27.4522 -4.0938,42.8125 0.061,2.4013 -0.056,6.4216 -0.031,8.3437 -5.1793,13.1627 -11.5,28.5118 -23.9062,33.1876 -4.2293,1.3866 -6.5369,-0.1482 -7.9376,-1.5626 -0.9065,-0.8321 -3.3038,-4.1159 -3.875,-14.3437 -0.5034,-7.0814 -0.052,-15.9886 1.1563,-26.125 l 3,-0.7187 c 15.7495,-3.856 24.5366,-6.7253 25.5313,-6.9688 3.0685,-1.1028 4.6963,-4.4748 3.7187,-7.75 -1.1027,-3.0687 -4.5467,-4.8618 -7.7813,-3.7188 l -17.7812,4.875 c 2.6497,-8.556 6.604,-21.8354 10.5938,-33.5312 0.9235,-2.6863 1.2834,-4.8768 1.375,-6.6562 0.1083,-5.2984 -3.4992,-7.0492 -4.6563,-7.4688 -6.4045,-2.4736 -12.3019,4.9529 -14.6875,10.2812 -2.9304,6.692 -7.243,23.5578 -10.0625,41.4688 -4.2292,1.3869 -9.66,1.5001 -9.0313,8.375 0.4802,3.397 2.2595,4.8865 5.6563,4.4062 0.5379,0.044 1.1901,-0.1282 1.6875,-0.25 -1.0393,9.392 -1.3066,17.5533 -0.8438,24.4688 0.6929,10.7251 3.1857,18.0069 7.5938,22.375 4.8615,4.7844 11.4215,6.5392 18.2188,4.875 l 1.8124,-0.4688 c 7.007,-2.2424 14.1975,-8.0207 20.2813,-16.1874 1.4496,-1.927 2.7828,-3.9522 4,-6.0313 1.8667,6.2568 4.0217,8.4971 5.5625,9.6563 1.9792,1.6239 4.357,2.1086 6.8438,1.5 4.1444,-1.0148 5.389,-5.3638 6.1874,-7.8438 0.7986,-2.4798 1.4259,-5.6316 2.3126,-9.1875 1.9423,-7.8559 4.0966,-17.685 7.5312,-25.9063 4.2738,-10.5351 8.1043,-12.8879 10.0938,-13.375 2.1549,-0.5274 3.0436,-0.4064 3.25,-0.2812 0.041,0.1658 0.7982,1.0628 0.9062,4.375 0.1081,3.3123 -0.3166,7.278 -0.75,11.25 -0.3115,4.4693 -0.7921,8.984 -0.6875,13 0.3447,5.7145 1.8549,9.7215 4.7813,12.3438 3.3389,2.8724 7.9353,3.6831 13.4062,2.3437 6.5696,-1.6084 12.7879,-7.5773 18.8438,-18.1563 0.6135,1.0021 1.2902,1.9587 2.0624,2.8438 6.8744,7.9817 18.2802,8.7108 25.9063,6.8438 7.4604,-1.8266 15.4357,-6.6034 21.5937,-13.0313 7.7382,-7.869 12.6656,-17.8631 14.5,-29.0313 0.43,-3.2682 -1.7317,-6.4138 -5,-6.8437 -3.3087,-0.5956 -6.4355,1.7536 -7.0312,5.0625 -3.1578,19.3997 -17.8193,29.8301 -26.9375,32.0625 -4.4761,1.0959 -10.7675,0.5233 -13.9375,-3.0937 -1.1942,-1.2891 -1.96,-3.0325 -2.2812,-5.0626 33.8543,-15.3173 38.5091,-31.3864 38.2187,-39.75 -0.1486,-3.478 -1.1182,-6.7471 -2.9687,-9.2812 -1.7254,-2.7406 -4.1387,-4.7947 -7.0313,-5.8438 -1.7356,-0.6294 -8.5409,-2.4693 -16.8437,2.375 -7.3489,4.4351 -13.4315,12.6013 -18.25,24.5 -2.1905,5.3299 -3.6946,10.2986 -4.5938,14.875 -0.014,0.038 -2.0164,8.0546 -2.0312,8.0938 l -4.0938,6 c -6.9366,13.296 -11.7052,15.3318 -13.0312,15.6562 -1.4922,0.3654 -2.2309,0.2001 -2.5626,0.2813 -0.081,-0.3316 -0.5761,-1.6226 -0.5624,-4.4375 -0.1928,-2.9401 0.2856,-6.7344 0.5937,-10.5 1.0428,-10.0957 2.0155,-20.5366 -4.25,-26.0312 -3.5455,-2.9979 -8.3226,-3.7644 -14.125,-2.3438 -7.4604,1.8265 -13.5252,8.5824 -18.4687,20.6875 -3.3094,8.0148 -5.6204,17.2131 -7.3126,24.6563 -0.8418,-5.5927 -1.4342,-12.3061 -1.8124,-19.5938 -0.03,-2.277 -0.072,-4.5574 0.062,-6.875 10.4616,-6.0757 18.4468,-15.0488 23.7188,-26.5312 4.1417,-8.9215 6.8538,-19.4247 7.6562,-31.2188 0.7416,-7.7376 0.1519,-14.4542 -1.3124,-19.7188 -2.4863,-8.0014 -6.6508,-10.6762 -10,-11.4374 -0.5067,-0.096 -1.1653,-0.1734 -1.9376,-0.1876 z m -0.5937,12.75 c 0.3687,0.7884 0.8348,2.0827 1.2813,3.9063 0.6086,2.4868 1.0095,6.9631 0.5624,13.75 -1.625,19.2002 -7.7934,33.5403 -18.3124,42.9687 2.3321,-19.9002 7.6148,-40.6969 12.9374,-54.125 1.384,-3.6773 2.7395,-5.4275 3.5313,-6.5 z m 84.3437,40.1876 c 0.5693,-0.01 1.0233,0.082 1.3126,0.1874 0.5785,0.2098 1.8353,1.651 1.9062,4.0938 0.3008,6.2523 -6.355,15.7997 -24.9062,25.4375 0.8426,-3.0179 1.8565,-6.082 3.2812,-9.5937 4.6934,-11.6925 9.6994,-16.4466 13.0625,-18.5 1.245,-0.6564 2.349,-1.1003 3.3437,-1.3438 0.7461,-0.1826 1.4308,-0.2737 2,-0.2812 z"
         transform="matrix(0.97131282,0.23780539,-0.23780539,0.97131282,0,0)"
         id="path5810"
         inkscape:connector-curvature="0"
         sodipodi:nodetypes="ccccccccccccccccccccccccccccccccccccccccscccccccscccccccccccccccsccccccccccccccccccccccc" />
    </g>
    <g
       inkscape:export-ydpi="90"
       inkscape:export-xdpi="90"
       inkscape:export-filename="/Applications/MAMP/htdocs/AuditSystemResults/img/AuditHeaderFull1.png"
       id="g5785"
       style="font-size:269.58184814px;font-style:normal;font-variant:normal;font-weight:normal;font-stretch:normal;line-height:125%;letter-spacing:0px;word-spacing:0px;fill:#13587c;fill-opacity:1;stroke:none;font-family:Pier Sans;-inkscape-font-specification:Pier Sans"
       transform="translate(335.85696,-324.18431)">
      <path
         id="path5787"
         style="fill:#13587c;fill-opacity:1"
         d="m -1750.7723,965.55623 -28.0365,-29.92359 c 15.3662,-18.60113 24.8016,-42.86354 24.8016,-69.28253 0,-58.76879 -46.0986,-106.21525 -102.7107,-106.21525 -56.8817,0 -102.7107,47.44646 -102.7107,106.21525 0,58.76878 45.829,106.48483 102.7107,106.48483 22.3753,0 43.1331,-7.54831 59.8471,-20.21864 l 27.767,29.92358 18.3315,-16.98365 m -105.9456,-17.52282 c -19.4099,0 -37.4719,-8.35706 -51.2206,-23.45363 -13.7486,-15.63573 -21.5665,-36.12399 -21.5665,-58.22967 0,-21.83611 7.8179,-42.59395 21.5665,-57.9601 13.7487,-15.09657 31.8107,-23.45362 51.2206,-23.45362 19.1403,0 37.2023,8.35705 50.9509,23.45362 14.0183,15.36615 21.5666,36.12399 21.5666,57.9601 0,17.79238 -4.8525,34.50649 -14.0183,48.52473 l -28.8452,-31.54108 -18.3316,16.98366 30.4628,32.88898 c -12.1312,9.43536 -26.6887,14.82701 -41.7852,14.82701"
         inkscape:connector-curvature="0" />
      <path
         id="path5789"
         style="fill:#13587c;fill-opacity:1"
         d="m -1715.5834,911.37027 c 0,43.9418 17.5229,64.43006 59.0384,61.19508 15.9053,-1.3479 32.889,-11.32245 36.124,-23.7232 l 0,18.60115 28.0365,0 0,-133.17343 -28.0365,0 0,77.1004 c 0,26.95816 -13.2095,38.81979 -36.124,38.81979 -22.9144,0 -31.2715,-11.86163 -31.2715,-38.81979 l 0,-77.1004 -27.7669,0 0,77.1004"
         inkscape:connector-curvature="0" />
      <path
         id="path5791"
         style="fill:#13587c;fill-opacity:1"
         d="m -1428.9042,901.12616 c 0,-4.3133 -0.2696,-8.62662 -1.0783,-12.93993 -5.6612,-33.42811 -32.889,-59.03842 -65.778,-59.03842 -36.9326,0 -66.8563,32.34986 -66.8563,71.97835 0,39.6285 31.002,71.70878 69.5521,71.70878 19.9491,0 38.0111,-8.89622 50.6814,-22.91446 l -19.1403,-17.25324 c -7.5483,10.78326 -18.8707,17.52282 -31.5411,17.52282 -20.2186,0 -36.9327,-16.98368 -40.7068,-39.08937 l 104.8673,0 0,-9.97453 m -104.3281,-12.93993 c 4.3133,-20.75778 19.4099,-36.12396 37.4718,-36.12396 18.062,0 33.1586,15.36618 37.7415,36.12396 l -75.2133,0"
         inkscape:connector-curvature="0" />
      <path
         id="path5793"
         style="fill:#13587c;fill-opacity:1"
         d="m -1321.7706,833.19154 c -3.7742,-2.15665 -8.8962,-4.04373 -16.1749,-4.04373 -15.9054,0 -32.889,11.59203 -36.124,23.99278 l 0,-18.87072 -27.7669,0 0,133.17343 27.7669,0 0,-63.8909 c 0,-26.95816 13.4791,-51.49013 36.3935,-51.49013 6.2004,0 11.5921,0.80874 15.9054,2.69582 l 0,-21.56655"
         inkscape:connector-curvature="0" />
      <path
         style="fill:#13587c;fill-opacity:1"
         sodipodi:nodetypes="ccccccccccc"
         inkscape:connector-curvature="0"
         id="path5795"
         d="m -1184.5661,834.26987 -28.0366,0 -36.3935,87.34451 -36.6631,-87.34451 -28.0365,0 50.4118,119.15517 c -8.8962,21.29695 -20.1683,55.99756 -38.8411,55.62676 -4.9234,0.6122 -9.2943,1.4342 -14.2765,1.0751 l -8.4945,24.1895 c 47.638,3.7192 59.8266,-20.9 84.2569,-66.8731 22.3753,-53.37715 56.0731,-133.17343 56.0731,-133.17343" />
    </g>
    <g
       inkscape:export-ydpi="90"
       inkscape:export-xdpi="90"
       inkscape:export-filename="/Applications/MAMP/htdocs/AuditSystemResults/img/AuditHeaderFull1.png"
       style="fill:#13587c;fill-opacity:1"
       id="g5797"
       transform="translate(335.85696,-324.18431)">
      <path
         sodipodi:nodetypes="ccccccccc"
         inkscape:connector-curvature="0"
         id="path5799"
         d="m -1945.6875,1012.4062 0,11.375 0,114.2813 22.8125,0 0,-102.875 598.7322,-0.7721 8.1035,-24.2441 -618.2419,2.2349 z"
         style="font-size:medium;font-style:normal;font-variant:normal;font-weight:normal;font-stretch:normal;text-indent:0;text-align:start;text-decoration:none;line-height:normal;letter-spacing:normal;word-spacing:normal;text-transform:none;direction:ltr;block-progression:tb;writing-mode:lr-tb;text-anchor:start;baseline-shift:baseline;color:#000000;fill:#13587c;fill-opacity:1;stroke:none;stroke-width:22.79999924;marker:none;visibility:visible;display:inline;overflow:visible;enable-background:accumulate;font-family:Sans;-inkscape-font-specification:Sans" />
      <path
         inkscape:connector-curvature="0"
         id="path5801"
         style="fill:#13587c;fill-opacity:1;fill-rule:evenodd;stroke-width:0.625;stroke-linejoin:round"
         d="m -1906.695,1094.1734 -27.4812,74.733 -27.4812,-74.733 c 16.2249,11.9392 38.4234,11.8704 54.9624,0 z" />
    </g>
    <g
       transform="matrix(1.4115411,-0.4203687,0.4203687,1.4115411,-483.39687,-593.48378)"
       style="font-size:200px;font-style:normal;font-variant:normal;font-weight:bold;font-stretch:normal;line-height:125%;letter-spacing:0px;word-spacing:0px;fill:#13587c;fill-opacity:1;stroke:none;font-family:FabfeltScript;-inkscape-font-specification:FabfeltScript Bold"
       id="flowRoot5821">
      <path
         d="m -3914.0938,-701.125 c -2.7274,0.0229 -5.4501,1.16531 -7.5,3.3125 -10.8001,11.20735 -21.9036,29.55606 -33.4374,54.8125 -9.8338,21.67664 -19.836,48.02411 -28.7813,76.8125 -1.3636,4.70892 -2.7084,9.41708 -4.1563,13.84375 -16.1153,2.64786 -20.2119,2.3171 -30.375,5.34375 -5.646,1.68143 -8.8161,7.54239 -7.2187,12.90625 1.6815,5.64615 7.5415,8.83768 13.1875,7.15625 7.34,-2.18592 6.4436,-1.01734 18.1562,-2.96875 -11.0302,41.39578 -18.0084,78.84037 -17.9374,99.71875 0.1017,5.5019 4.8817,10.21605 10.75,10.3125 0.9308,0.0301 1.777,-0.22621 2.9062,-0.5625 4.2345,-1.26106 7.3713,-5.25026 7.4375,-10.1875 -0.1009,-19.94742 7.6144,-60.07623 19.4375,-102.9375 18.2598,-2.67181 35.3938,-4.99498 43.7188,-5.9375 1.1106,8.8896 2.5251,16.77419 4.0624,24 4.5037,19.25092 10.8824,32.39757 19.2188,39.75 7.1533,6.47536 16.4017,8.63972 26,5.78125 11.9317,-3.55336 21.3439,-11.66576 27.9375,-23.84375 0.2008,0.19178 0.3881,0.40915 0.5937,0.59375 7.0693,6.19305 15.3758,8.34435 23.5626,5.90625 l 1.9687,-0.59375 c 11.3224,-4.29395 21.6263,-17.2027 30.7813,-38.0625 5.1948,12.28349 12.6091,16.53395 18.5312,17.84375 7.2197,1.53806 18.3566,-0.24854 30.7188,-16.53125 8.3736,-11.09943 16.2091,-28.18567 22.9374,-48.9375 1.7603,-5.44174 -1.2146,-11.30226 -6.6562,-13.0625 -5.7241,-1.67614 -11.6149,1.3083 -13.375,6.75 -6.8727,22.33156 -13.8844,34.8522 -18.75,41.21875 -5.5743,8.11433 -9.6316,9.93638 -10.5625,9.90625 -0.7328,-0.39647 -3.8236,-3.47255 -5.4687,-13.125 -1.7056,-7.79043 -2.8328,-21.91028 -0.2188,-45.125 0.7451,-5.75414 -3.1835,-10.72357 -8.9375,-11.46875 -5.7541,-0.74514 -11.0049,3.27711 -11.75,9.03125 -1.8087,15.5986 -7.297,35.37186 -13.875,51.46875 -8.2779,19.6766 -16.3162,28.85098 -21.0313,30.5625 -0.8469,0.25222 -1.696,0.50402 -4.0624,-1.25 -0.9071,-0.96769 -3.7805,-4.40012 -5.25,-14.6875 -0.045,-7.44816 -1.2306,-25.2307 -0.4688,-25.25 0.5203,-8.12081 1.5866,-17.83456 3.5,-29.5 1.0274,-5.83821 -3.0066,-11.07599 -8.5625,-12.1875 -5.754,-0.74518 -11.0976,3.00554 -12.125,8.84375 -3.0583,19.65887 -4.4365,36.66332 -4.125,50.09375 0.1343,2.77715 0.3654,5.3957 0.6563,7.90625 -0.3471,1.88715 -0.7687,3.8135 -1.2813,5.78125 -3.953,15.62249 -10.7755,24.74492 -20.6563,27.6875 -2.5406,0.75662 -4.1971,0.30685 -6.2812,-1.53125 -2.8168,-2.23461 -7.9962,-9.28037 -12.5,-28.53125 -3.3568,-14.36762 -5.3924,-32.52693 -6.5625,-54 -1.7577,-37.89479 0.7511,-83.20458 6.0625,-114.90625 0.7991,-4.54083 -1.4914,-9.07049 -5.4375,-10.96875 -1.5113,-0.81773 -3.1448,-1.20124 -4.7813,-1.1875 z m -15.4374,53 c -1.8275,24.82453 -2.2241,51.361 -1.3126,75.0625 0.4144,4.48679 0.4824,8.79546 0.8126,13 -6.8293,0.80442 -19.9299,2.22075 -35,4.25 0.2281,-1.29734 0.7395,-2.64984 1.25,-4.03125 8.6329,-27.77332 18.1348,-53.68213 27.6562,-74.34375 2.2105,-4.96116 4.4972,-9.625 6.5938,-13.9375 z"
         transform="matrix(0.65073223,0.19379348,-0.19379348,0.65073223,199.54864,479.87818)"
         id="path6035"
         inkscape:connector-curvature="0"
         sodipodi:nodetypes="sccccssscccscccccsccccccccccccccsccccccccccccscccccsccccccc" />
      <path
         d="m -2109.3,-578.39583 c -5,0 -9.6,-1.80001 -13.6,-5.4 -3.4,-2.8 -7.2,-8.20001 -6.8,-17.2 0.6,-18.59998 19.6,-42.40001 32.6,-51.8 12.8,-9.39999 28.8,-12 38,-6.2 0.2,0.2 0.4,0.4 0.6,0.4 8.6,-21.99998 18.4,-43.00001 23.4,-53.8 l 2.6,-5.6 c 1.4,-3.2 2.8,-5.80001 4.2,-7.8 1.4,-2.2 3.8,-5.2 7.6,-5.4 2.8,-0.4 5.4,1 7,3.2 2,3.19999 1.4,6.8 0.4,9.6 -0.8,2.39999 -2,5.4 -3.8,8.8 -1,1.79999 -2.6,5.8 -5,10.6 -5.6,12.39998 -15.2,33.60002 -26.4,54.4 -14.6,39.79996 -11,49 -10,50.4 0.2,0.2 0.2,0.4 1.2,0.4 7.2,0 14.8,-2.00003 27.4,-25.8 1.8,-3.6 6.2,-4.8 9.6,-3 3.4,1.79999 4.8,6 3,9.6 -6.6,12.19998 -12.4,20.4 -18.6,25.6 -6.2,5.19999 -13,7.8 -21.4,7.8 -5.6,0 -10.4,-2.60001 -13.2,-7 -2.6,-4.2 -3.6,-10.00001 -3.2,-17.8 -1.8,2.39999 -3.6,4.8 -5.4,6.8 -9.2,10.79999 -17.4,16.8 -25.4,18.6 -1.6,0.4 -3.2,0.6 -4.8,0.6 m 38.2,-69.4 c -1.2,0 -2.4,0 -4,0.4 -4.6,0.8 -9.4,3 -13.8,6.2 -5.6,3.99999 -12.2,11.2 -17.4,19 -5.6,8.39999 -9,16.2 -9.2,21.8 -0.2,3.59999 1,5 1.8,5.8 2,1.79999 3.8,2.2 6.2,1.8 5.4,-1.2 17.6,-8.80004 39,-45.4 l 2.2,-3.6 c -0.2,-0.8 -0.2,-1.8 0,-2.8 0.4,-1.8 -0.2,-2.2 -0.4,-2.4 -0.8,-0.4 -2.2,-0.8 -4.4,-0.8"
         style=""
         id="path6039" />
      <path
         d="m -1990.1969,-674.19583 c -1.4,0 -2.8,-0.4 -4,-1.2 -2,-1.4 -3,-3.60001 -3,-5.8 0,-1.4 0.4,-2.8 1.2,-4.2 l 0.4,-0.4 0.6,-1 c 2.4,-3.2 6.8,-4 10,-1.8 3.2,2.19999 4,6.6 1.8,9.8 l -0.8,1.2 -0.2,0.4 c -1.4,1.99999 -3.6,3 -6,3 m -20.4,94.4 c -2.6,0 -6.4,-0.4 -10.4,-2 -4.2,-2 -7.6,-5.00001 -9.8,-9.2 -6.8,-12.99999 0.4,-34.40003 22.2,-65.2 2.2,-3.2 6.8,-4 10,-1.6 3.2,2.19999 3.8,6.6 1.6,9.8 -25.3999,35.79996 -22.6,47.8 -21.2,50.6 1.6,2.99999 5.8,3.4 7.6,3.4 12.8,0 21.8,-15.00002 27,-27.6 1.6,-3.6 5.8,-5.2 9.4,-3.6 3.6,1.4 5.2,5.6 3.8,9.2 -5.2,12.19998 -11.4,21.4 -18.4,27.6 -6.6,5.59999 -14,8.6 -21.8,8.6"
         style=""
         id="path6041" />
      <path
         d="m -1916.7688,-623.39583 c -3.5999,-1.4 -7.8,0.2 -9.4,3.8 -6.3999,14.79998 -23.4,29.2 -35.6,30.2 -5.1999,0.4 -7.4,-2.00001 -8.6,-4 -0.7999,-1.2 -2.5999,-5.60002 -0.4,-17.4 1.4,-8.2 4.4001,-18.20001 8.6,-29.4 l 3.6,0 c 19,0 29.8001,-0.8 31,-0.8 3.8,-0.4 6.6,-3.80001 6.4,-7.8 -0.3999,-3.8 -3.8,-6.8 -7.8,-6.4 l -21.6,0.6 c 5.4,-8.99999 13.6001,-23.00002 21.4,-35.2 1.8,-2.8 2.8001,-5.20001 3.4,-7.2 1.6,-6 -2,-9 -3.2,-9.8 -6.5999,-4.6 -15.4,2.2 -19.6,7.6 -5.1999,6.79999 -14.8,24.80002 -23,44.4 -5.1999,0.4 -11.4,-1 -12.6,7 -0.3999,3.99999 1.2001,6.2 5.2,6.6 0.6,0.2 1.4001,0.2 2,0.2 -3.7999,10.39999 -6.4,19.6 -7.8,27.6 -2.1999,12.39998 -1.3999,21.4 2.4,27.6 4.2,6.79999 11.2001,10.6 19.4,10.6 l 2.2,0 c 8.6,-0.6 18.4001,-5.20001 27.6,-12.8 8.8,-7.2 16.0001,-16.60001 20,-26 1.6,-3.6 0,-7.8 -3.6,-9.4"
         style=""
         id="path6043" />
      <path
         d="m -1750.0219,-708.39583 c -2.2,-5.8 -5.8,-10.60001 -10.8,-14.4 -9.4,-7 -22.8,-10.2 -40.2,-9.2 -14.4,0.8 -31,4.4 -48,10.4 -3.6,1.4 -5.6,5.4 -4.2,9.2 1.2,3.59999 5.4,5.6 9,4.2 8.8,-3.2 17.6,-5.6 25.8,-7.2 -4,9.79999 -10,25.40001 -16.4,43 -14.8,40.79996 -24.4,73.40002 -28.4,96.4 -0.8,3.79999 1.8,7.6 5.6,8.2 0.4,0.2 0.8,0.2 1.4,0.2 3.2,0 6.2,-2.40001 6.8,-6 3.2,-17.59999 9.6,-39.80003 16.8,-61.6 38.6,62.39993 63.8,73.6 69.8,75.4 0.6,0.2 1.6,0.4 2.4,0.4 4,0 7,-3.20001 7,-7.2 0,-3.2 -2.2,-6.2 -5.4,-6.8 l 0.2,0 c 0,0 -6.6,-1.80001 -18.4,-12.8 -9.8,-9.19999 -25,-26.40003 -44.4,-57.8 7.4,-0.2 17.4,-1.00001 27.4,-3 12.2,-2.6 22.2,-6.60001 29.8,-12 4.8,-3.6 8.6,-7.60001 11.4,-12.2 3,-5 5,-10.80001 5.4,-17 0.6,-7.6 -0.2,-14.40001 -2.6,-20.2 m -11.6,19.2 c -1,13.99998 -12.8,23.6 -35,28.2 -10.6,2.19999 -21,2.8 -28.2,2.8 9.6,-27.19998 19,-50.60001 22.6,-59.6 l 2,0 c 13.6,-0.8 24.4,1.4 30.8,6.4 6,4.59999 8.6,11.80001 7.8,22.2"
         style=""
         id="path6045" />
      <path
         d="m -3097.9688,-840.6875 c -3.3138,-0.005 -6.517,1.59367 -8.6562,4.34375 -2.9133,3.63372 -3.3842,9.30762 -1,16.28125 0.3363,1.12923 0.9762,2.18327 1.3125,3.3125 -0.06,1.862 -0.3343,4.0938 -0.875,6.40625 -0.8236,20.99485 -13.25,53.6875 -13.25,53.6875 l -13.2187,22.875 c -9.3375,18.74428 -25.3101,29.82711 -36.5938,33.1875 -7.6223,2.26999 -18.5094,1.80848 -24.2812,-4.15625 -2.1683,-2.12041 -3.6485,-5.05949 -4.375,-8.53125 57.051,-29.28411 63.7437,-57.38973 62.5312,-71.78125 -0.5522,-5.98246 -2.5321,-11.53929 -5.9375,-15.75 -3.2072,-4.57711 -7.5809,-7.87554 -12.6563,-9.4375 -3.0452,-0.93719 -14.8817,-3.55691 -28.7812,5.5 -12.2897,8.27015 -22.0819,22.86122 -29.375,43.78125 -5.8453,16.49336 -8.2694,31.04582 -7.5312,42.8125 0.738,11.76667 4.4522,21.10542 11.125,28.03125 12.5286,13.17287 32.2638,13.42989 45.25,9.5625 12.7038,-3.78332 26.0262,-12.67739 36.0937,-24.28125 3.1574,-3.5447 6.0035,-7.30569 8.5313,-11.25 0.4849,1.33929 1.2571,2.6242 2.3124,3.75 7.4896,7.6046 19.006,15.22812 42.4376,8.25 18.35,-5.46479 25.5008,-16.50444 28,-24.625 6.4461,-20.66781 -5.0044,-49.83397 -34.1876,-86.9375 -1.6035,-2.28855 -3.0569,-4.01522 -3.8437,-5.625 -0.2938,-8.21084 -2.1886,-15.62247 -8.5313,-18.34375 -1.4621,-0.71711 -2.9937,-1.06012 -4.5,-1.0625 z m 8.0938,48.21875 c 6.6967,9.07012 12.0253,17.63968 15.875,25.40625 6.9126,13.92335 9.5316,24.81042 7.0625,32 -0.4266,1.66376 -2.3629,7.49048 -13.9375,10.9375 -14.3977,4.28776 -18.3684,0.23773 -21.4375,-2.84375 -2.7143,-2.89556 -6.6258,-3.76507 -10.125,-2.84375 2.9853,-7.10938 5.083,-14.64901 6.2813,-22.5 4.357,-8.23894 7.963,-15.93043 10.9062,-23.1875 2.2408,-5.8922 3.9812,-11.32879 5.375,-16.96875 z m -73.4062,1.96875 c 0.9805,-0.0615 1.7737,0.0313 2.2812,0.1875 1.0151,0.3124 3.2636,2.70171 3.5938,6.90625 1.0504,10.7516 -9.5623,27.74579 -40.7188,45.9375 1.1956,-5.2736 2.6558,-10.63801 4.8125,-16.8125 7.0948,-20.55365 15.3152,-29.14297 20.9375,-32.96875 2.0903,-1.23721 3.9624,-2.08931 5.6562,-2.59375 1.2704,-0.37833 2.457,-0.59474 3.4376,-0.65625 z"
         transform="matrix(0.65073223,0.19379348,-0.19379348,0.65073223,199.54864,479.87818)"
         id="path6047"
         inkscape:connector-curvature="0"
         sodipodi:nodetypes="sccccccsccccsccccscccsccccscccscccccsccccccs" />
      <path
         d="m -1617.9313,-578.79583 c -5.7999,0 -10.8,-3.00001 -14.2,-8.4 -3.7999,-6.2 -4.1999,-15.20002 -1.2,-27.4 2.4,-8.79999 6.6001,-19.60002 12.4,-31.8 1.8,-3.6 6.0001,-5 9.6,-3.4 3.4,1.79999 5,6 3.2,9.6 -16.7999,34.59996 -12.7999,44 -12,45.6 1.2,1.6 1.8001,1.6 2.4,1.6 3.4,-0.2 10.4001,-4.60001 19.6,-15.8 7.4,-9.19999 14.8001,-21.00001 19,-30.8 1.6,-3.6 5.8001,-5.2 9.4,-3.6 3.6,1.6 5.2,5.6 3.6,9.2 -6.1999,14.59998 -8.2,24 -8.6,29.4 -0.7999,6.59999 0.6001,9.2 1,9.6 0.6,0.2 3.6001,-0.20001 8.8,-4.4 4.4,-3.2 11.4001,-10.00002 20.2,-23.2 2.2,-3.2 6.6001,-4 10,-1.8 3.2,2.19999 4,6.6 1.8,9.8 -8.3999,12.19998 -16.8,21.8 -24.4,27.4 -11.1999,8.19999 -18.8,7.19999 -23.2,4.8 -3.5999,-2 -7.6,-6.20001 -8.6,-15.2 -9.9999,11.79998 -19.2,18.2 -27.4,18.8 l -1.4,0"
         style=""
         id="path6051" />
      <path
         d="m -2876.8125,-1007.5 c -4.0127,0.071 -9.6963,1.5777 -15.125,7.3438 -3.8744,4.53448 -7.4276,11.13799 -10.125,19.62495 -5.7612,16.77567 -11.5113,41.83487 -15.6875,70.125 -4.3142,26.7945 -6.8921,54.30474 -7.5,76 -0.7106,30.63885 4.8122,50.19653 16.8125,59.53125 11.9163,9.05241 25.5413,5.30647 31.1875,3.625 l 0.2812,-0.0937 c 18.8179,-5.60405 29.94,-22.38144 36.375,-38 2.4881,6.28966 5.7023,11.1729 9.6876,14.75 8.7869,7.83292 20.2692,10.25948 31.8437,6.8125 l 3.125,-0.9375 c 11.887,-4.4621 23.7713,-15.0612 33.5625,-29.65625 5.1885,-9.666 10.1469,-17.92029 15,-25.96875 9.2568,-15.35796 16.0379,-28.76516 21,-41 2.2408,-5.8922 3.9812,-11.32879 5.375,-16.96875 6.6967,9.07012 12.0253,17.63968 15.875,25.40625 6.9126,13.92335 9.5316,24.81042 7.0625,32 -0.4266,1.66376 -2.3629,7.45923 -13.9375,10.90625 -14.3977,4.28776 -18.3684,0.26898 -21.4375,-2.8125 -4.0541,-4.32488 -10.7699,-4.18878 -14.8125,-0.21875 -4.0426,3.97001 -4.2729,10.48762 -0.2188,14.8125 7.4897,7.6046 19.0059,15.25937 42.4376,8.28125 18.35,-5.46479 25.5007,-16.50444 28,-24.625 6.4461,-20.66781 -5.0043,-49.83397 -34.1876,-86.9375 -1.6035,-2.28855 -3.0569,-4.01522 -3.8437,-5.625 -0.2938,-8.21084 -2.1885,-15.65372 -8.5313,-18.375 -4.6788,-2.29474 -10.0446,-0.68761 -13.1562,3.3125 -2.9133,3.63372 -3.3842,9.30762 -1,16.28125 0.3363,1.12923 0.9762,2.15202 1.3125,3.28125 -0.06,1.862 -0.3343,4.0938 -0.875,6.40625 -1.8697,11.20933 -5.3288,24.56972 -15.7187,44.96875 -0.021,-0.003 -0.042,0.003 -0.063,0 -0.014,0.88866 -21.7157,54.94675 -49.25,66.90625 -7.1717,2.75049 -11.2779,0.28738 -13.8124,-2.03125 -1.6338,-1.3576 -6.0202,-6.79407 -7.875,-24.375 -1.4709,-12.16315 -1.439,-27.55025 -0.2188,-45.125 l 5.0938,-1.5 c 26.8192,-7.98701 41.7125,-13.65185 43.4062,-14.15625 5.1957,-2.16202 7.7138,-8.15667 5.75,-13.71875 -2.1619,-5.19575 -8.2095,-7.99609 -13.6875,-5.75 l -30.25,9.9375 c 3.839,-14.97385 9.5247,-38.18789 15.4063,-58.6875 1.3637,-4.70898 1.7751,-8.5185 1.7812,-11.59375 -0.2637,-9.14184 -6.5949,-11.87521 -8.625,-12.5 -11.2497,-3.7187 -20.8101,9.58088 -24.4688,18.96875 -4.4813,11.78434 -10.477,41.23055 -13.8124,72.34375 -7.172,2.75049 -16.5129,3.39073 -14.8438,15.1875 1.117,5.81426 4.3108,8.24182 10.125,7.125 0.931,0.0301 2.0595,-0.31032 2.9062,-0.5625 -0.5958,9.77869 -0.7623,18.74552 -0.5,26.9375 2.3317,0.15661 -9.6196,32.08679 -17.8124,43.0625 -5.9411,7.91614 -13.6394,12.06107 -18.1563,13.40625 l -0.2813,0.0625 c -4.5169,1.34518 -9.1074,2.40259 -12.375,-0.3125 -2.8168,-2.23457 -9.2526,-10.44734 -8.6562,-40.4375 0.5646,-0.16815 1.332,-0.70579 1.8125,-1.15625 17.5217,-14.43848 30.7582,-34.96042 40.0937,-61.40625 9.2518,-26.72816 10.9502,-50.93035 10.9688,-60.15625 0.7035,-13.11804 -0.9648,-24.89397 -3.9375,-33.84375 -4.6842,-13.66485 -12.3709,-17.84835 -18.125,-18.59375 -0.9025,-0.1922 -2.0374,-0.305 -3.375,-0.2812 z m 0.062,22.1875 c 0.6186,1.04516 1.5752,3.20711 2.5,6.3125 1.2611,4.23461 2.6002,11.83558 2.125,23.65625 -0.9026,27.92992 -9.7101,66.51862 -30.5,92.6875 3.4381,-40.0568 11.4262,-85.47337 20.2812,-111.46875 2.1569,-6.17451 4.2362,-9.55382 5.5938,-11.1875 z"
         transform="matrix(0.65073223,0.19379348,-0.19379348,0.65073223,199.54864,479.87818)"
         id="path6053"
         inkscape:connector-curvature="0"
         sodipodi:nodetypes="ccccccccccccccccccscscscccccccccccccccccccccccccccccccccccccccccccccc" />
    </g>
    <g
       transform="matrix(1.0583363,-0.23490137,0.23490137,1.0583363,-1149.6316,-638.25678)"
       style="font-size:200px;font-style:normal;font-variant:normal;font-weight:bold;font-stretch:normal;line-height:125%;letter-spacing:0px;word-spacing:0px;fill:#13587c;fill-opacity:1;stroke:none;font-family:FabfeltScript;-inkscape-font-specification:FabfeltScript Bold"
       id="flowRoot5829">
      <path
         d="m -2253.6813,-156.95833 c -3.5999,0 -6.8,-1.60001 -9,-4.6 -2.7999,-4 -5.9999,-12.40003 -1.6,-40 2.6,-16.99999 7.8001,-37.60002 14,-56.6 8.8,-27.19998 30.4001,-70.60003 46,-92.8 3.6,-5 7.2001,-8.60001 10.6,-10.6 6.2,-3.8 11.0001,-2.4 13.4,-1.2 3.4,1.79999 7.6001,5.80001 8.2,15.8 0.2,6.19999 -1.2,14.20001 -4,22.6 -1.9999,5.99999 -7.8,21.60001 -19.3999,36 -5.2,6.59999 -11.0001,12.4 -17.2001,16.8 -4.5999,3.19999 -9.6,6 -14.6,8 2.2,1.6 3.6001,3.8 4.2,4.8 1.8,2.79999 3.6001,6.2 5.2,10 2,4.19999 4.0001,8.6 6.2,11.6 1.4,1.79999 3.2001,3.8 4.8,4 1.2,0.2 3.2001,-0.6 5.2,-2.2 3.6,-2.4 7.6001,-6.60001 12,-12.6 2.4,-3.2 6.8001,-3.8 10,-1.6 3,2.39999 3.8,6.8 1.4,10 -11.1999,14.99998 -20.8,21.4 -30,20.6 -4.1999,-0.4 -8,-2.40001 -11.4,-5.8 0,4.79999 -0.4,9.6 -1,14.4 -1.9999,14.19998 -7,28.40001 -14,39 -4.1999,6.59999 -11,14.4 -19,14.4 m 67,-192.2 c -1.1999,0.8 -3.2,2.6 -6,6.4 -9.5999,13.59998 -23.6,39.40002 -34,63.2 18.4,-10.19999 31.2001,-31.60002 37.2001,-49.2 2.3999,-7.4 3,-12.60001 3.1999,-15.8 0,-2.2 -0.2,-3.6 -0.4,-4.6 m -51.4,99.4 c -5.3999,16.79998 -9.6,34.80001 -12.2,49.8 -2.3999,15.99998 -2.1999,23.8 -1.6,27.4 0.8,-0.8 1.6001,-1.6 2.6,-2.8 2.6,-3.2 5.2001,-7.60001 7.6,-12.6 3.4,-7.6 13.2,-33.40003 3.6,-61.8"
         style=""
         id="path5867" />
      <path
         d="m -3432.0312,-464.78125 c -4.6669,-0.0543 -9.0072,3.39031 -10.5313,8.78125 -1.1062,4.02113 -0.5929,8.36966 1.7813,12.0625 0.6582,0.96438 1.5677,2.08258 2.4374,3 -1.7184,8.41415 -4.385,20.69257 -6.4687,30.15625 -3.7966,9.8263 -9.5593,13.26019 -16.3125,17.09375 0.4,-1.19925 0.5929,-2.34773 0.7812,-3.5 1.9546,-10.20597 1.2827,-20.26135 -2.0312,-28.1875 -3.7604,-8.93753 -10.5521,-14.55733 -18.3125,-15.5 -4.9854,-0.44813 -14.3409,0.5289 -23.4687,13.4375 -3.27,4.27929 -5.1059,8.89792 -5.8126,13.71875 -2.1636,0.25814 -3.9096,1.53322 -5.0624,3.34375 -7.1754,10.69848 -11.4955,23.2177 -11.9688,35.09375 -0.5441,12.55806 3.0319,22.63718 10.1562,27.71875 4.2324,3.05832 9.5664,4.11219 15.2813,2.84375 1.4817,-0.32886 3.1421,-0.92803 5,-1.5625 6.4445,-2.98504 13.5283,-8.99507 20.6563,-17.90625 2.7289,-3.71503 5.2414,-7.38605 7.5,-11.21875 6.0676,-0.68045 10.0285,-1.70849 15.0619,-5.04662 3.5817,0.29684 6.9445,-3.58194 10.4195,-4.68179 6.9363,-2.19539 9.9997,-8.22489 10.7686,-10.99034 0.1883,-1.15227 5.1351,-23.78154 8.0312,-37.75 8.4889,3.22403 10.482,6.10226 11.375,8.125 1.4806,3.66906 0.5717,9.66642 -1.5,18.34375 -2.1186,8.46563 -2.8208,15.28613 -2.2812,20.71875 0.4219,5.9029 2.3176,10.37165 5.6562,13.40625 2.8214,2.7052 7.8317,5.34773 15.875,3.5625 l 1.9062,-0.40625 0.2188,-0.0625 c 8.3257,-2.51421 16.7615,-8.60278 24.2188,-18.03125 6.6339,-8.13527 12.3763,-18.27769 15.8124,-28.8125 1.365,-3.85648 -0.7443,-8.27575 -4.8124,-9.59375 -4.0681,-1.31803 -8.4945,0.74435 -9.8126,4.8125 -6.0483,17.77744 -18.7279,33.70327 -29.5937,36.78125 l -0.4063,0.0937 c -1.858,0.63449 -2.5538,0.57094 -2.8124,0.40625 -0.3526,-0.58804 -2.5706,-4.55237 1.0312,-19.34375 2.2602,-9.82962 4.0954,-19.55676 0.6875,-27.90625 -3.2668,-7.71452 -10.247,-13.24786 -22.9687,-17.53125 5e-4,-1.99897 0.032,-3.80666 -0.3438,-5.5 -1.2211,-7.50229 -6.0633,-9.2949 -8.1562,-9.71875 -0.6732,-0.15598 -1.3334,-0.24225 -2,-0.25 z m -51.0626,39.125 c 0.2176,-0.0205 0.4524,0.004 0.6876,0.0625 2.0459,0.21218 4.3476,2.57382 5.7812,6.03125 2.8673,6.91479 2.9077,17.13516 -1.2812,28.28125 -6.5844,-1.64792 -12.5779,-5.65219 -15.375,-11.25 -2.9148,-5.12753 -2.3505,-10.56823 1.5312,-16.09375 2.8936,-3.97367 5.6717,-6.38947 8,-6.90625 0.2116,-0.047 0.4387,-0.10448 0.6562,-0.125 z m -23.5,31.1875 c 4.4193,7.90292 12.1886,13.94815 21.3126,17.03125 -0.8235,1.29324 -1.8954,2.42551 -2.7188,3.71875 -6.9632,8.65253 -11.9901,11.98852 -14.8125,13.28125 -3.4573,1.43364 -4.5609,0.55521 -5.0313,0.4375 -2.163,-1.74085 -4.1668,-6.82511 -3.9062,-14.65625 0.3779,-6.30253 2.1445,-13.36958 5.1562,-19.8125 z"
         transform="matrix(0.90051679,0.19987279,-0.19987279,0.90051679,907.6924,804.54102)"
         id="path5869"
         inkscape:connector-curvature="0"
         sodipodi:nodetypes="ccccccccccccccsccccscccccccccccscccccccccscccccccccccccccc" />
      <path
         d="m -1923.8469,-251.95833 c -3.6,-1.4 -7.8,0.2 -9.4,3.8 -6.4,14.79998 -23.4,29.2 -35.6,30.2 -5.2,0.4 -7.4,-2.00001 -8.6,-4 -0.8,-1.2 -2.6,-5.60002 -0.4,-17.4 1.4,-8.2 4.4,-18.20001 8.6,-29.4 l 3.6,0 c 19,0 29.8,-0.8 31,-0.8 3.8,-0.4 6.6,-3.80001 6.4,-7.8 -0.4,-3.8 -3.8,-6.8 -7.8,-6.4 l -21.6,0.6 c 5.4,-8.99999 13.6,-23.00002 21.4,-35.2 1.8,-2.8 2.8,-5.20001 3.4,-7.2 1.6,-6 -2,-9 -3.2,-9.8 -6.6,-4.6 -15.4,2.2 -19.6,7.6 -5.2,6.79999 -14.8,24.80002 -23,44.4 -5.2,0.4 -11.4,-1 -12.6,7 -0.4,3.99999 1.2,6.2 5.2,6.6 0.6,0.2 1.4,0.2 2,0.2 -3.8,10.39999 -6.4,19.6 -7.8,27.6 -2.2,12.39998 -1.4,21.4 2.4,27.6 4.2,6.79999 11.2,10.6 19.4,10.6 l 2.2,0 c 8.6,-0.6 18.4,-5.20001 27.6,-12.8 8.8,-7.2 16,-16.60001 20,-26 1.6,-3.6 0,-7.8 -3.6,-9.4"
         style=""
         id="path5873" />
      <path
         d="m -1923.0063,-206.15833 c -2.9999,0 -5.6,-1.20001 -7.4,-3.6 -1.7999,-2.2 -4.1999,-6.60002 -3.6,-19.4 0.2,-8.2 1.6001,-18.40001 4,-29.4 3.8,-17.59999 11.0001,-35.60002 16.6,-47.6 7,-15.19999 15.4001,-30.20001 23,-41 3.4,-4.8 7.0001,-8.40001 10.4,-10.6 6.2,-3.8 11.2001,-2.2 13.4,-1.2 3.6,1.79999 7.6001,6.00001 8.2,15.8 0.2,6.39999 -1,14.20001 -4,22.8 -4.1999,13.19998 -10.2,24.40001 -17.4,33.4 -9.1999,11.59999 -20.8,19.6 -34.4,23.6 -0.7999,2.59999 -1.4,5.2 -2,7.8 -1.5999,8.39999 -2.8,16.2 -3.4,22.8 4,-8 9.2001,-17.80001 15.2,-26 9,-12.39999 17.8001,-18.4 26.8,-18.4 7,0 12.2001,2.2 15.4,6.6 5.6,7.99999 1.6,19.60001 -2.4,30.8 -1.3999,4.19999 -3,8.4 -3.6,11.8 -0.7999,3.19999 -0.6,4.8 -0.6,5.2 0.4,0 1.2001,0.4 3,0.4 1.6,0 7.6001,-1.00002 19.2,-14.2 6.8,-7.8 11.6001,-15.6 11.8,-15.6 2,-3.2 6.4001,-4.2 9.8,-2.2 3.2,2.19999 4.2,6.6 2.2,9.8 -0.3999,0.4 -5.6,8.80001 -13.2,17.4 -11.1999,12.79998 -21,19 -29.8,19 -6.5999,0 -11.6,-2.20001 -14.6,-6.4 -2.5999,-3.8 -3.1999,-8.80001 -2,-15.4 1,-4.6 2.8001,-9.60001 4.4,-14.6 1.6,-4.4 3.2001,-8.80001 4,-12.6 0.8,-3.8 0.2,-5 0.2,-5.2 -0.1999,-0.2 -1.2,-0.6 -3.8,-0.6 -2.3999,0 -7.4,1.60001 -15.2,12.4 -6.1999,8.39999 -11.4,19.00001 -15.8,27.4 -1.9999,3.79999 -3.6,7.2 -5.2,9.8 -1.5999,2.59999 -4.2,7.2 -9.2,7.2 m 50,-139.2 c -1.1999,1 -3.2,2.6 -5.8,6.4 -9.7999,13.79998 -21.6,36.00002 -29.8,58 14.6,-7.8 25.6001,-22.40002 32.8,-43.8 2.4,-7.6 3.2,-12.80001 3.2,-15.8 0,-2.2 -0.2,-3.8 -0.4,-4.8"
         style=""
         id="path5875" />
      <path
         d="m -1810.1313,-204.75833 c -9.1999,0 -22,-4.00001 -27.6,-15 -2.9999,-5.8 -3.5999,-12.60001 -1.8,-20.4 1.8,-7.8 6.2001,-16.80001 13.2,-26.4 8.8,-12.19999 18.0001,-19.80001 27.6,-22.8 10.8,-3.2 18.0001,0.8 19.8,2 3,1.99999 5.2001,5 6.4,8.6 1.4,3.39999 1.6,7.4 0.8,11.4 -1.9999,9.59999 -11.8,26.6 -54.6,34.6 -0.1999,2.39999 0.2001,4.6 1.2,6.4 2.6,4.99999 9.6001,7.4 15,7.4 11,0 30.6001,-7.80002 39.6,-29 1.6,-3.6 5.8001,-5.4 9.4,-3.8 3.6,1.4 5.2,5.6 3.8,9.2 -5.1999,12.19998 -13.6,22.2 -24.6,29 -8.7999,5.59999 -19.2,8.8 -28.2,8.8 m 19.6,-71.6 c -1.1999,0 -2.6,0.2 -4.2,0.6 -4.3999,1.4 -11.4,5.40001 -20,17.4 -2.5999,3.59999 -4.6,6.8 -6.4,10 23.8,-5.8 34.0001,-14.80001 35.4,-22 0.6,-2.8 -0.4,-4.8 -1,-5.2 -0.5999,-0.4 -2,-0.8 -3.8,-0.8"
         style=""
         id="path5877" />
    </g>
    <g
       transform="matrix(1.5232548,0,0,1.5505092,14.338032,-352.92076)"
       style="font-size:200px;font-style:normal;font-variant:normal;font-weight:bold;font-stretch:normal;line-height:125%;letter-spacing:0px;word-spacing:0px;fill:#13587c;fill-opacity:1;stroke:none;font-family:FabfeltScript;-inkscape-font-specification:FabfeltScript Bold"
       id="flowRoot5837">
      <path
         d="m -3457.1562,-299.625 c -17.4422,-0.0418 -36.6371,5.84332 -55.6876,17.65625 -20.7162,12.40406 -42.6498,43.42967 -55.75,78.78125 -7.0069,18.60608 -11.2811,37.82421 -12.5,55.5 -1.2186,20.46669 5.4433,45.5171 12.4503,61.64238 1.2805,2.769597 14.0826,14.428472 17.9885,14.883411 3.5287,0.411002 -1.8986,-10.186973 0.7041,-11.364444 5.4837,-2.480815 7.0151,-8.750151 4.5779,-14.331969 -24.3721,-55.508178 11.8143,-147.259338 43.498,-166.485628 21.3256,-12.71416 42.041,-17.36787 58.1875,-12.40625 12.4907,4.03132 22.8444,13.65117 30.1563,29.15625 10.3581,22.01721 2.7466,78.44393 -25.2813,123.71875 -7.3116,11.78385 -19.4942,28.21613 -36.25,40 -10.9674,-6.82224 -18.0276,-20.31755 -31.1275,-25.27916 -19.4979,-7.44244 -34.6777,6.06753 -39.2475,11.02916 -7.3116,7.75253 -8.851,19.838732 -4.2813,31.3125 5.1793,12.404058 16.7517,20.15625 30.1563,20.15625 15.5372,0 30.4861,-3.713821 44.5,-11.15625 12.186,7.442429 23.7593,14.562426 36.25,18.59375 7.007,2.170713 13.6961,3.40625 20.0937,3.40625 8.8351,0 17.3682,-2.156192 25.5938,-6.1875 5.4837,-2.790917 7.6247,-9.324432 5.1875,-14.90625 -2.7419,-5.271731 -9.1413,-7.418315 -14.625,-4.9375 -16.7558,8.372734 -31.9944,2.779058 -52.4063,-9.625 12.7956,-10.543463 24.3839,-24.189618 34.4376,-40.625 14.3185,-23.25762 24.9693,-51.17742 29.8437,-78.15625 5.1791,-27.59904 3.9679,-51.46367 -3.3437,-66.96875 -5.1793,-10.85355 -11.5947,-19.55277 -18.9063,-26.375 -7.3116,-6.82223 -15.5165,-11.45909 -24.6563,-14.25 -6.1691,-1.83154 -12.7373,-2.7649 -19.5624,-2.78125 z m -69.4883,210.064589 c 3.956,-1.162899 8.3126,-0.942727 12.3684,-0.199783 8.2492,1.511084 18.9263,8.817734 16.3386,18.666444 -1.8543,7.057665 -14.4704,5.830084 -21.8555,4.789439 -4.7274,-0.666146 -9.6655,-3.045493 -12.5984,-6.8125 -2.3502,-3.018669 -4.2487,-7.578307 -2.817,-11.126003 1.2575,-3.11602 5.3401,-4.369925 8.5639,-5.317597 z"
         transform="matrix(0.65648899,0,0,0.64494941,-9.4127601,227.61604)"
         id="path5852"
         inkscape:connector-curvature="0"
         sodipodi:nodetypes="sccccsscccccccccsccscccccccscsassaaaa" />
      <path
         d="m -2210.775,189.76667 c -5.8,0 -10.8,-3.00001 -14.2,-8.4 -3.8,-6.2 -4.2,-15.20002 -1.2,-27.4 2.4,-8.79999 6.6,-19.60002 12.4,-31.8 1.8,-3.6 6,-5 9.6,-3.4 3.4,1.79999 5,6 3.2,9.6 -16.8,34.59996 -12.8,44 -12,45.6 1.2,1.6 1.8,1.6 2.4,1.6 3.4,-0.2 10.4,-4.60001 19.6,-15.8 7.4,-9.19999 14.8,-21.00001 19,-30.8 1.6,-3.6 5.8,-5.2 9.4,-3.6 3.6,1.6 5.2,5.6 3.6,9.2 -6.2,14.59998 -8.2,24 -8.6,29.4 -0.8,6.59999 0.6,9.2 1,9.6 0.6,0.2 3.6,-0.20001 8.8,-4.4 4.4,-3.2 11.4,-10.00002 20.2,-23.2 2.2,-3.2 6.6,-4 10,-1.8 3.2,2.19999 4,6.6 1.8,9.8 -8.4,12.19998 -16.8,21.8 -24.4,27.4 -11.2,8.19999 -18.8,7.19999 -23.2,4.8 -3.6,-2 -7.6,-6.20001 -8.6,-15.2 -10,11.79998 -19.2,18.2 -27.4,18.8 l -1.4,0"
         style=""
         id="path5854" />
      <path
         d="m -2112.6938,192.36667 c -9.1999,0 -22,-4.00001 -27.5999,-15 -3,-5.8 -3.6,-12.60001 -1.8001,-20.4 1.8,-7.8 6.2001,-16.80001 13.2,-26.4 8.8,-12.19999 18.0001,-19.80001 27.6001,-22.8 10.7999,-3.2 18,0.8 19.7999,2 3,1.99999 5.2001,5 6.4,8.6 1.4,3.39999 1.6,7.4 0.8001,11.4 -2,9.59999 -11.8001,26.6 -54.6001,34.6 -0.1999,2.39999 0.2001,4.6 1.2,6.4 2.6,4.99999 9.6001,7.4 15,7.4 11,0 30.6001,-7.80002 39.6,-29 1.6,-3.6 5.8001,-5.4 9.4,-3.8 3.6,1.4 5.2,5.6 3.8,9.2 -5.1999,12.19998 -13.6,22.2 -24.6,29 -8.7999,5.59999 -19.2,8.8 -28.2,8.8 m 19.6,-71.6 c -1.1999,0 -2.6,0.2 -4.1999,0.6 -4.4,1.4 -11.4001,5.40001 -20,17.4 -2.6,3.59999 -4.6001,6.8 -6.4001,10 23.8,-5.8 34.0001,-14.80001 35.4001,-22 0.5999,-2.8 -0.4001,-4.8 -1,-5.2 -0.6,-0.4 -2.0001,-0.8 -3.8001,-0.8"
         style=""
         id="path5856" />
      <path
         d="m -2034.0781,190.16667 c -7.6,0 -11.6,-3.40001 -13.6,-6.4 -2.4,-3.4 -3.2,-7.80001 -2.4,-13.2 0.6,-5 2.6,-11.00001 6.2,-18.2 3.6,-7.4 5.6,-12.60001 5,-16.2 -0.4,-2 -1.6,-5.00001 -8.6,-9.6 -5.4,11.99998 -14.4,31.4 -14.8,32.4 -1.8,3.59999 -6,5 -9.6,3.4 -3.4,-1.6 -5,-6.00001 -3.4,-9.4 0.2,-0.4 11.4,-24.40001 16.4,-35.6 -0.6,-1 -1.2,-2.2 -1.6,-3.2 -1.4,-3.8 -1,-7.80001 0.8,-11.2 2.8,-5.199998 8.4,-7.400001 13,-5.200003 1.8,0.799999 5.8,3.400003 5.4,10.400003 0,1.6 -0.4,3.2 -0.8,5 10.6,6.39999 15.8,12.8 17.2,20.4 1.4,8.19999 -2.2,16.60001 -6.2,25 -6.2,12.59998 -5,16.6 -4.8,17.2 0.2,0.2 0.8,0.4 2.6,0.2 l 0.4,0 c 10.4,-0.6 25,-12.40002 34,-27.2 2,-3.4 6.4,-4.4 9.8,-2.4 3.4,1.99999 4.4,6.4 2.4,9.6 -5.2,8.79999 -12.4,16.8 -20,22.8 -8.6,6.99999 -17.4,10.8 -25.4,11.4 l -0.2,0 -1.8,0"
         style=""
         id="path5858" />
      <path
         d="m -3000.6562,-171 c -3.1469,0.0409 -6.2562,1.47727 -8.3126,4.09375 -13.4046,17.05559 -19.5081,33.49019 -22.25,44.34375 -3.9604,14.88487 -3.6713,28.228195 0.5938,37.53125 3.6558,7.75253 10.3682,12.40625 18.5938,12.40625 13.7092,0 26.2202,-4.033516 38.4062,-12.40625 l 5.1562,-3.75 c -2.1325,6.822225 -4.2581,13.64651 -7,20.46875 -4.8744,2.480815 -10.0552,4.673037 -14.625,6.84375 -5.179,2.170713 -9.7348,4.326889 -14,6.1875 -21.0209,10.543447 -38.3829,31.317016 -39.9062,48.0625 -0.914,8.3727342 1.8054,15.5047224 7.5938,20.15625 3.9604,3.411105 8.5396,4.96875 13.7187,4.96875 1.8279,0 3.3517,-0.0048 4.875,-0.625 21.6302,-4.031324 40.5009,-33.16084 47.8125,-45.875 4.2651,-7.132342 8.2426,-15.221016 11.5938,-23.59375 22.7557,-11.438469 40.7877,-29.840512 54.4466,-57.68301 3.6418,-9.67209 7.9061,-8.73047 16.9142,-9.89696 28.0681,-0.4756 68.9466,0.31881 106.4135,0.617 0,0 8.8684,-1.39312 9.1944,7.78188 l 0,120.83734 12.9375,0 0,-126.70571 c -0.3799,-8.60903 -3.9843,-12.55826 -12.6742,-12.30181 L -2900,-130.34375 c -12.1116,1.15529 -11.2368,4.97032 -16.159,13.72089 -7.7302,13.68164 -18.842,24.32223 -31.2785,32.49786 4.2651,-13.954567 7.3049,-27.58875 9.4375,-39.0625 0.3047,-0.3101 0.3203,-0.625 0.625,-0.625 4.5698,-6.82224 7.6017,-13.32923 9.125,-19.53125 1.5233,-7.13234 0.9294,-13.03359 -1.8125,-17.375 -3.0465,-4.34143 -8.2506,-6.17791 -13.125,-4.9375 -7.6163,1.86061 -12.1721,9.92283 -14,24.1875 -0.3047,3.101 -0.6094,6.18263 -1.2187,9.59375 -22.8489,31.940459 -40.2281,36.908648 -52.7188,37.21875 -1.2186,-2.170713 -2.1326,-8.6753 0,-19.21875 2.7419,-13.33436 9.4621,-27.3099 18.9062,-39.09375 3.9605,-4.96163 3.0386,-11.77879 -1.5312,-15.5 -1.9993,-1.7637 -4.4587,-2.56305 -6.9062,-2.53125 z m 10.875,133.40625 c -12.7954,21.086894 -25.2977,32.2595926 -32,33.5 l -0.9063,0 c 0,-1.860611 1.2115,-6.516729 5.7813,-12.71875 5.7883,-7.442444 13.7197,-14.28359 22.25,-18.625 z"
         transform="matrix(0.65648899,0,0,0.64494941,-9.4127601,227.61604)"
         id="path5860"
         inkscape:connector-curvature="0"
         sodipodi:nodetypes="ssccscccccccscccccccccccccccccccccccccscccccc" />
    </g>
    <g
       transform="matrix(-1.2011189,0,0,0.96002646,-4493.3565,-1100.3079)"
       id="g5845"
       style="fill:#13587c;fill-opacity:1;stroke-width:0;stroke-miterlimit:4;stroke-dasharray:none"
       inkscape:export-filename="/Applications/MAMP/htdocs/AuditSystemResults/img/AuditHeaderFull1.png"
       inkscape:export-xdpi="90"
       inkscape:export-ydpi="90">
      <path
         sodipodi:nodetypes="cccc"
         d="m -1426.6216,1144.7984 c -2.1424,12.0836 -7.065,23.2359 -12.4867,33.9565 -8.1029,-17.16 -11.9879,-28.5684 -12.4866,-33.9565 7.3721,5.4248 17.4585,5.3935 24.9733,0 z"
         style="fill:#13587c;fill-opacity:1;fill-rule:evenodd;stroke-width:0;stroke-linejoin:round;stroke-miterlimit:4;stroke-dasharray:none"
         id="path5849"
         inkscape:connector-curvature="0" />
    </g>
    <g
       style="font-size:280.58810425px;font-style:normal;font-variant:normal;font-weight:normal;font-stretch:normal;line-height:125%;letter-spacing:0px;word-spacing:0px;fill:#13587c;fill-opacity:1;stroke:none;font-family:FabfeltScript;-inkscape-font-specification:FabfeltScript"
       id="text5880"
       transform="translate(-2502.676,-639.21163)">
      <path
         d="m -386.0625,1579.0938 c -1.57667,0.067 -3.15191,0.5332 -4.625,1.375 -12.90704,7.2952 -28.0723,21.047 -45.46875,40.9687 -14.87115,17.1159 -31.13149,38.4312 -47.125,62.2813 -2.52529,3.9282 -5.06846,7.8522 -7.59375,11.5 -15.43233,-1.9641 -19.05509,-3.3751 -29.15625,-3.375 -5.61176,0 -10.125,4.5125 -10.125,9.8437 0,5.6118 4.51324,10.0937 10.125,10.0937 7.29528,0 6.15149,0.847 17.375,2.25 -21.32467,34.7929 -37.857,67.0452 -43.46875,86.125 -1.40294,5.0507 1.66883,10.6603 7,12.3438 0.84176,0.2806 1.69015,0.2812 2.8125,0.2812 4.20882,0 8.12832,-2.7918 9.53125,-7.2812 5.33117,-18.2382 23.30297,-52.7411 45.75,-88.6562 17.39644,2.5252 33.64355,5.0345 41.5,6.4374 -1.40293,8.4176 -2.22007,15.9854 -2.78125,23 -1.12235,18.7995 1.10699,32.5525 6.71875,41.5313 4.76999,7.8565 12.64751,12.3437 22.1875,12.3437 11.85959,0 22.63794,-4.8302 31.96875,-14.1562 0.13078,0.2289 0.23791,0.4638 0.375,0.6875 4.77,7.5759 11.7692,11.7813 19.90625,11.7813 l 1.96875,0 c 11.5041,-0.8419 24.40811,-9.8204 38.4375,-26.375 1.40294,12.6264 7.01191,18.5378 12.0625,21.3437 6.17293,3.3671 16.84958,4.7541 32.5625,-6.75 10.66233,-7.8565 22.43407,-21.3216 34.21875,-38.4375 3.08647,-4.4894 1.98941,-10.6635 -2.5,-13.75 -4.76999,-3.0865 -10.94479,-1.9581 -14.03125,2.5312 -12.34587,18.5189 -22.17082,28.0732 -28.34375,32.5626 -7.29529,5.8923 -11.50199,6.4367 -12.34375,6.1562 -0.56117,-0.5612 -2.5286,-4.2094 -1.40625,-13.4688 0.56118,-7.5758 3.36428,-20.7671 12.0625,-41.25 2.2447,-5.0505 -0.0119,-10.6615 -5.0625,-12.9062 -5.05058,-2.2447 -10.9428,0.012 -13.1875,5.0625 -5.89234,13.7488 -16.2745,30.3117 -26.65625,43.2187 -12.90704,15.7129 -22.73001,21.8758 -27.5,22.1563 -0.84177,0 -1.66022,-0.01 -3.34375,-2.25 -0.56355,-1.1271 -2.24766,-5.0148 -0.8125,-14.75 3.67184,-17.2389 11.05863,-35.6398 17.625,-49.2187 2.52529,-5.0506 0.30124,-10.9435 -4.46875,-13.4688 -5.05058,-2.2447 -10.94346,-0.2694 -13.46875,4.7812 -8.13705,17.1159 -14.0392,32.248 -17.40625,44.5938 -0.63792,2.5942 -1.14374,5.0788 -1.5625,7.4688 -0.82338,1.613 -1.7257,3.2343 -2.71875,4.875 -7.85646,13.1875 -16.55443,19.6562 -26.375,19.6562 -2.52529,0 -3.94081,-0.8491 -5.34375,-3.0938 -1.96411,-2.8059 -4.7786,-10.6693 -3.65625,-29.4687 0.84176,-14.0293 3.94876,-31.1408 8.71875,-51.0625 8.69822,-35.0735 23.28179,-75.7524 36.75,-103.25 1.96412,-3.9282 1.11771,-8.6941 -1.96875,-11.5 -1.92904,-1.9291 -4.52847,-2.8936 -7.15625,-2.7812 z m -25.40625,44.5937 c -8.41764,22.1664 -15.98199,46.2704 -21.59375,68.1563 -0.84176,4.2088 -1.97074,8.1342 -2.8125,12.0624 -6.45352,-1.1222 -18.78377,-3.349 -33.09375,-5.5937 0.56118,-1.1223 1.40824,-2.2527 2.25,-3.375 15.43233,-23.0082 31.12752,-44.0384 45.4375,-60.3125 3.36706,-3.9282 6.72603,-7.5704 9.8125,-10.9375 z"
         id="path6006"
         inkscape:connector-curvature="0"
         sodipodi:nodetypes="cccccssscccscccccsccscccccccccccscccccccccccsccccccccccccc" />
      <path
         d="m -239.43076,1799.0408 c -7.0147,0 -13.46824,-2.5253 -19.07999,-7.5759 -4.77,-3.9282 -10.10118,-11.5041 -9.54,-24.1306 0.84176,-26.0947 27.49765,-59.4847 45.73586,-72.6723 17.95762,-13.1876 40.4047,-16.8353 53.31174,-8.6982 0.28059,0.2806 0.56118,0.5611 0.84177,0.5611 12.06527,-30.8646 25.81411,-60.3264 32.8288,-75.4782 l 3.64765,-7.8564 c 1.96411,-4.4894 3.92823,-8.1371 5.89235,-10.943 1.96411,-3.0864 5.33118,-7.2953 10.66235,-7.5758 3.92823,-0.5612 7.57588,1.4029 9.82058,4.4894 2.80588,4.4894 1.96412,9.54 0.56118,13.4682 -1.12235,3.3671 -2.80589,7.5759 -5.33118,12.3459 -1.40294,2.5253 -3.64765,8.137 -7.0147,14.8711 -7.85646,17.3965 -21.32471,47.1389 -37.03763,76.32 -20.48291,55.837 -15.43234,68.7441 -14.0294,70.7082 0.28058,0.2806 0.28058,0.5612 1.68352,0.5612 10.10117,0 20.76354,-2.8059 38.44057,-36.1959 2.52529,-5.0506 8.69824,-6.7341 13.46823,-4.2088 4.77,2.5253 6.73412,8.4176 4.20882,13.4682 -9.25939,17.1159 -17.39647,28.62 -26.09469,35.9153 -8.69822,7.2953 -18.23824,10.9429 -30.02293,10.9429 -7.85646,0 -14.59058,-3.6476 -18.51881,-9.8205 -3.64764,-5.8924 -5.05059,-14.0295 -4.48941,-24.9724 -2.52529,3.3671 -5.05059,6.7341 -7.57588,9.54 -12.90704,15.1518 -24.41118,23.5694 -35.63469,26.0947 -2.2447,0.5612 -4.48941,0.8418 -6.73411,0.8418 m 53.59232,-97.3641 c -1.68352,0 -3.36705,0 -5.61176,0.5612 -6.45352,1.1223 -13.18764,4.2088 -19.36058,8.6982 -7.85646,5.6118 -17.11588,15.713 -24.41116,26.6559 -7.85646,11.7847 -12.62647,22.7276 -12.90705,30.5841 -0.28059,5.0506 1.40294,7.0147 2.52529,8.137 2.80588,2.5253 5.33118,3.0865 8.69823,2.5253 7.57587,-1.6835 24.69178,-12.3459 54.71468,-63.6935 l 3.08647,-5.0506 c -0.28059,-1.1223 -0.28059,-2.5253 0,-3.9282 0.56117,-2.5253 -0.28059,-3.0865 -0.56118,-3.367 -1.12235,-0.5612 -3.08647,-1.1224 -6.17294,-1.1224"
         id="path6010"
         inkscape:connector-curvature="0" />
      <path
         d="m -72.336178,1664.6391 c -1.964114,0 -3.928235,-0.5612 -5.611762,-1.6836 -2.805878,-1.9641 -4.208821,-5.0505 -4.208821,-8.137 0,-1.9641 0.561177,-3.9282 1.683528,-5.8924 l 0.561177,-0.5611 0.841764,-1.403 c 3.367054,-4.4894 9.54,-5.6117 14.029405,-2.5253 4.489405,3.0865 5.611759,9.2594 2.525293,13.7488 l -1.122352,1.6836 -0.280588,0.5611 c -1.964115,2.8059 -5.05059,4.2089 -8.417644,4.2089 m -28.619982,132.4376 c -3.64765,0 -8.97883,-0.5612 -14.59059,-2.8059 -5.89234,-2.8059 -10.66235,-7.0147 -13.74881,-12.9071 -9.53999,-18.2382 0.5612,-48.2612 31.145277,-91.4717 3.086466,-4.4894 9.54,-5.6118 14.029405,-2.2447 4.489405,3.0865 5.331171,9.2594 2.244705,13.7488 -35.634657,50.2252 -31.706457,67.0606 -29.742337,70.9888 2.2447,4.2088 8.13706,4.77 10.66235,4.77 17.957616,0 30.584106,-21.0441 37.87939,-38.7212 2.244702,-5.0505 8.13706,-7.2952 13.187641,-5.0505 5.050581,1.9641 7.295289,7.8564 5.331174,12.907 -7.295284,17.1159 -15.993532,30.0229 -25.814106,38.7212 -9.259398,7.8564 -19.641178,12.0653 -30.584099,12.0653"
         id="path6012"
         inkscape:connector-curvature="0" />
      <path
         d="m 30.679119,1735.9084 c -5.05058,-1.9641 -10.942938,0.2806 -13.18764,5.3312 -8.9788108,20.7635 -32.828826,40.9659 -49.944683,42.3688 -7.295283,0.5612 -10.381762,-2.8059 -12.065288,-5.6117 -1.122352,-1.6836 -3.647643,-7.8565 -0.561177,-24.4112 1.964115,-11.5041 6.172944,-25.5335 12.065289,-41.2465 l 5.050586,0 c 26.6558429,0 41.807629,-1.1223 43.491156,-1.1223 5.331168,-0.5612 9.259407,-5.3312 8.978819,-10.9429 -0.561175,-5.3312 -5.331179,-9.54 -10.942936,-8.9789 l -30.303515,0.8418 c 7.5758711,-12.6264 19.0800019,-32.2676 30.022927,-49.3835 2.52529,-3.9282 3.928234,-7.2953 4.769998,-10.1012 2.244702,-8.4176 -2.805883,-12.6264 -4.48941,-13.7488 -9.2593981,-6.4535 -21.6052898,3.0865 -27.497634,10.6624 -7.295284,9.5399 -20.763531,34.7929 -32.267632,62.2905 -7.295284,0.5612 -15.993524,-1.4029 -17.677051,9.8206 -0.561175,5.6118 1.683535,8.6982 7.295291,9.2594 0.841763,0.2806 1.964118,0.2806 2.805881,0.2806 -5.331169,14.5906 -8.978821,27.4976 -10.942936,38.7212 -3.086466,17.3964 -1.964111,30.0229 3.367057,38.7211 5.892345,9.54 15.712946,14.8712 27.217046,14.8712 l 3.08647,0 c 12.065276,-0.8418 25.814118,-7.2953 38.7211579,-17.9577 12.3458641,-10.1011 22.4470541,-23.2888 28.0588101,-36.4764 2.244703,-5.0506 -5e-6,-10.9429 -5.050586,-13.1877"
         id="path6014"
         inkscape:connector-curvature="0" />
      <path
         d="m 264.61507,1616.6585 c -3.08646,-8.137 -8.13706,-14.8712 -15.15175,-20.2023 -13.18763,-9.8206 -31.98707,-14.31 -56.39821,-12.9071 -20.20232,1.1224 -43.49118,6.173 -67.34115,14.5906 -5.05058,1.9641 -7.85646,7.5759 -5.89235,12.907 1.68353,5.0506 7.57589,7.8565 12.62647,5.8924 12.34586,-4.4894 24.69176,-7.8565 36.19586,-10.1012 -5.61175,13.7488 -14.02941,35.6347 -23.00822,60.3265 -20.7635,57.2399 -34.23176,102.9758 -39.84351,135.2434 -1.12235,5.3312 2.5253,10.6624 7.85646,11.5041 0.56118,0.2806 1.12236,0.2806 1.96412,0.2806 4.48941,0 8.69823,-3.367 9.54,-8.4176 4.4894,-24.6917 13.46824,-55.8371 23.5694,-86.4212 54.15345,87.5435 89.50761,103.2565 97.92525,105.7818 0.84176,0.2806 2.2447,0.5611 3.36705,0.5611 5.61176,0 9.82059,-4.4894 9.82059,-10.1011 0,-4.4894 -3.08648,-8.6983 -7.57588,-9.54 l 0.28059,0 c 0,0 -9.25943,-2.5253 -25.81411,-17.9577 -13.7488,-12.907 -35.07354,-37.0376 -62.29056,-81.0899 10.38175,-0.2806 24.41118,-1.403 38.44057,-4.2088 17.11586,-3.6477 31.14529,-9.2595 41.80763,-16.8353 6.73411,-5.0506 12.06529,-10.6624 15.99352,-17.1159 4.20882,-7.0147 7.0147,-15.1518 7.57588,-23.85 0.84176,-10.6623 -0.28059,-20.2023 -3.64765,-28.3394 m -16.27411,26.9365 c -1.40293,19.6411 -17.95766,33.1094 -49.10291,39.5629 -14.87116,3.0865 -29.46176,3.9282 -39.56293,3.9282 13.46822,-38.1599 26.65588,-70.9888 31.70646,-83.6152 l 2.80588,0 c 19.07997,-1.1224 34.23176,1.9641 43.21057,8.9788 8.41763,6.4535 12.06529,16.5547 10.94293,31.1453"
         id="path6016"
         inkscape:connector-curvature="0" />
      <path
         d="m 396.6875,1673.5625 c -1.9972,0.1065 -4.00015,0.8037 -5.71875,2.0313 -3.64764,2.5253 -5.59309,7.579 -5.3125,14.5937 0,1.1223 0.28125,2.2215 0.28125,3.3437 -0.56118,1.6836 -1.4089,3.661 -2.53125,5.625 -4.81548,9.8499 -11.7158,21.2548 -27.15625,37.375 -0.005,0.01 -6.0263,7.99 -6.0312,8 l -11.8125,17.3126 c -13.62168,14.5789 -31.22069,20.375 -42.4375,20.375 -7.57587,0 -17.3836,-3.3916 -21.03125,-10.4063 -1.40293,-2.5253 -1.96809,-5.6017 -1.6875,-8.9687 60.04579,-11.2235 73.78787,-35.0631 76.59375,-48.5313 1.12235,-5.6118 0.87036,-11.23 -1.09375,-16 -1.68353,-5.0505 -4.79119,-9.2567 -9,-12.0625 -2.52529,-1.6836 -12.6295,-7.3019 -27.78125,-2.8125 -13.46821,4.2088 -26.37289,14.8842 -38.71875,32 -9.82058,13.4682 -15.97471,26.0883 -18.5,37.0313 -2.52529,10.943 -1.70881,20.488 2.5,28.625 7.85646,15.4323 25.81171,21.0312 38.71875,21.0312 12.62645,0 27.21663,-4.4874 39.5625,-12.3438 3.84543,-2.3771 7.49556,-5.0245 10.875,-7.9374 4.65252,17.5313 28.91163,22.9522 37.5625,23.0937 18.23821,0 27.7606,-8.1409 32.25,-14.875 11.5041,-17.1159 8.99218,-46.8486 -7.5625,-88.6563 -0.84176,-2.5253 -1.68817,-4.5039 -1.96875,-6.1874 1.96411,-7.576 2.23809,-14.8537 -2.8125,-19.0626 -2.0518,-1.8939 -4.61967,-2.7306 -7.1875,-2.5937 z m -73.21875,28.125 c 2.52529,0 4.50199,0.5638 5.34375,1.125 0.84176,0.5611 2.24801,3.353 1.40625,7.2813 -1.96411,10.1011 -16.2663,22.738 -49.65625,30.875 2.52529,-4.4894 5.3211,-8.9807 8.96875,-14.0313 12.06527,-16.8352 21.88956,-22.4422 28.0625,-24.4063 2.2447,-0.5612 4.19147,-0.8437 5.875,-0.8437 z m 70.875,18.5 c 3.64764,10.1012 6.15956,19.363 7.5625,27.5 2.52529,14.5906 1.99007,25.264 -2.21875,31.1563 -0.84176,1.403 -4.21465,6.1562 -15.71875,6.1562 -16.98084,1.2846 -15.42856,-9.9452 -27.28125,-13.75 0,0 8.64358,-11.9883 11.875,-18.8438 6.21254,-6.3324 11.59302,-12.3662 16.25,-18.1874 3.64764,-4.77 6.72537,-9.2613 9.53125,-14.0313 z"
         id="path6018"
         inkscape:connector-curvature="0"
         sodipodi:nodetypes="scccccccscccccccscsccccccccscccccscccsccccc" />
      <path
         d="m 449.93037,1798.4796 c -8.13705,0 -15.15177,-4.2088 -19.92176,-11.7847 -5.33117,-8.6982 -5.89234,-21.3247 -1.68353,-38.4406 3.36706,-12.3458 9.25942,-27.4976 17.39647,-44.6135 2.52529,-5.0506 8.41764,-7.0147 13.46822,-4.77 4.77,2.5253 7.0147,8.4177 4.48941,13.4682 -23.56937,48.5417 -17.95763,61.7294 -16.83528,63.9741 1.68352,2.2447 2.52529,2.2447 3.36705,2.2447 4.77,-0.2805 14.5906,-6.4535 27.49764,-22.1664 10.38175,-12.9071 20.76352,-29.4618 26.65587,-43.2106 2.2447,-5.0506 8.13706,-7.2953 13.18764,-5.0506 5.05058,2.2447 7.29529,7.8565 5.05059,12.9071 -8.69823,20.4829 -11.50412,33.6706 -12.06529,41.2464 -1.12235,9.2594 0.84176,12.9071 1.40294,13.4683 0.84176,0.2805 5.05059,-0.2806 12.34587,-6.173 6.17294,-4.4894 15.99354,-14.0294 28.3394,-32.5482 3.08647,-4.4894 9.25942,-5.6118 14.02941,-2.5253 4.4894,3.0865 5.61176,9.2594 2.52529,13.7488 -11.78469,17.1159 -23.56941,30.5841 -34.23175,38.4406 -15.71292,11.5041 -26.37529,10.1012 -32.54822,6.7341 -5.05058,-2.8059 -10.66235,-8.6982 -12.06529,-21.3247 -14.02939,16.5547 -26.93647,25.5335 -38.44057,26.3753 l -1.96411,0"
         id="path6022"
         inkscape:connector-curvature="0" />
      <path
         d="m 643.03125,1581.1562 c -3.22677,-0.07 -7.15089,0.7247 -11.5,3.25 -4.76999,3.0865 -9.82376,8.1104 -14.59375,15.125 -9.82057,13.7489 -21.90215,35.0896 -33.40625,59.7813 -11.22352,23.2888 -21.04648,47.7027 -27.5,67.3437 -8.97881,27.7782 -9.26139,47.1217 -0.84375,58.9063 8.41763,11.5041 21.88824,11.7813 27.5,11.7813 l 0.28125,0 c 18.70452,0 33.40998,-12.271 43.53125,-24.7813 0.56118,6.4184 2.17817,11.7447 4.84375,16.0937 5.89235,9.54 15.71465,14.8751 27.21875,14.875 l 3.09375,0 c 12.06528,-0.8416 25.81171,-7.3063 38.71875,-17.9687 7.37427,-7.3972 14.13312,-13.6018 20.75,-19.625 12.62645,-11.5041 22.45604,-21.8981 30.3125,-31.7187 3.64764,-4.77 6.72537,-9.2613 9.53125,-14.0313 3.64764,10.1012 6.19081,19.363 7.59375,27.5 2.52529,14.5906 1.95882,25.264 -2.25,31.1563 -0.84176,1.403 -4.21465,6.1562 -15.71875,6.1562 -14.30998,0 -16.84838,-4.7586 -18.8125,-8.4062 -2.52529,-5.0506 -8.69876,-6.7441 -13.46875,-4.2188 -4.77,2.5253 -6.71279,8.4181 -4.1875,13.4688 4.77,8.9787 13.17996,19.0937 36.46875,19.0937 18.23821,0 27.76059,-8.1409 32.25,-14.875 11.5041,-17.1159 8.99218,-46.8486 -7.5625,-88.6563 -0.84176,-2.5253 -1.68816,-4.5039 -1.96875,-6.1874 1.96412,-7.576 2.23808,-14.8537 -2.8125,-19.0626 -3.64764,-3.367 -8.97802,-3.3684 -12.90625,-0.5624 -3.64764,2.5253 -5.59309,7.579 -5.3125,14.5937 0,1.1223 0.28125,2.2215 0.28125,3.3437 -0.56117,1.6836 -1.4089,3.661 -2.53125,5.625 -4.75672,9.7298 -11.54744,20.9714 -26.59375,36.7813 -0.0215,-0.01 -0.0409,-0.022 -0.0625,-0.031 -17.69066,21.9454 -34.74834,44.258 -63.125,47.6876 -7.29528,0.5612 -10.37897,-2.788 -12.0625,-5.5938 -1.12235,-1.6836 -3.64896,-7.8516 -0.5625,-24.4062 1.96412,-11.5043 6.17016,-25.5372 12.0625,-41.25 l 5.0625,0 c 26.65584,0 41.78522,-1.125 43.46875,-1.125 5.33116,-0.5614 9.28059,-5.3258 9,-10.9376 -0.56117,-5.3312 -5.357,-9.5609 -10.96875,-9 l -30.28125,0.8438 c 7.57587,-12.6264 19.08833,-32.2591 30.03125,-49.375 2.52529,-3.9282 3.90823,-7.2877 4.75,-10.0938 2.2447,-8.4175 -2.81647,-12.6274 -4.5,-13.75 -9.2594,-6.4535 -21.5764,3.0804 -27.46875,10.6563 -7.29528,9.5399 -20.77715,34.7837 -32.28125,62.2813 -7.29528,0.5612 -16.00397,-1.3798 -17.6875,9.8437 -0.56117,5.6118 1.70075,8.6888 7.3125,9.25 0.84177,0.2806 1.97074,0.2813 2.8125,0.2813 -3.20464,8.7706 -5.79325,16.9147 -7.78125,24.4687 -11.93126,15.4615 -17.51497,26.6534 -27.96875,34.4375 -7.57587,5.6118 -15.72935,7.3125 -20.21875,7.3125 l -0.28125,0 c -4.4894,0 -8.97405,-0.2891 -11.21875,-3.6563 -1.96412,-2.8058 -5.60448,-12.0642 3.09375,-39.2812 0.56117,0 1.40758,-0.2819 1.96875,-0.5625 19.92174,-8.4176 37.59958,-23.5509 53.3125,-45.1563 15.71292,-21.8858 23.84971,-43.4885 26.375,-51.9062 4.20882,-11.7846 5.87433,-23.0212 5.59375,-32 -0.56118,-13.7488 -6.44942,-19.6303 -11.5,-21.875 -1.54323,-0.8418 -4.05448,-1.7735 -7.28125,-1.8438 z m -1.6875,20.9063 c 0.28059,1.1224 0.5625,3.3825 0.5625,6.4687 0,4.209 -0.85236,11.494 -4.5,22.1563 -8.41763,25.2529 -26.93658,58.0743 -53.03125,76.3125 14.02939,-35.6347 33.66076,-74.8942 48.8125,-96.2188 3.64764,-5.0506 6.47273,-7.5963 8.15625,-8.7187 z"
         id="path6024"
         inkscape:connector-curvature="0"
         sodipodi:nodetypes="ccccccssccscccccccscscsccccccccccccccsccccccccccccccssccccccccccccccc" />
    </g>
    <g
       id="g5884"
       style="font-size:109.69456482px;font-style:normal;font-variant:normal;font-weight:normal;font-stretch:normal;line-height:87.99999952%;letter-spacing:0px;word-spacing:0px;fill:#acbfc6;fill-opacity:1;stroke:#13587c;stroke-width:2.72615862;stroke-miterlimit:4;stroke-opacity:1;font-family:Nickainley;-inkscape-font-specification:Nickainley"
       transform="matrix(0.97131282,-0.23780539,0.23780539,0.97131282,-433.95825,-643.35167)">
      <path
         sodipodi:nodetypes="scccccsccccccccccccccccccccccccccccccccccccccccccccccccccccccscccccccccccccccccccccccccccccc"
         inkscape:connector-curvature="0"
         id="path5886"
         transform="matrix(0.97131282,0.23780539,-0.23780539,0.97131282,0,0)"
         d="m -2162.1875,1824.375 c -2.3457,-0.06 -5.5678,0.6626 -8.8437,3.9688 -2.4125,2.3477 -4.687,6.0623 -6.6563,10.9374 -8.4259,21.5681 -17.5069,61.9486 -19.2813,86.2813 -1.2832,17.0078 -1.4198,35.1306 -0.125,49.75 1.954,23.7713 6.3048,30.0651 9.4376,32.8125 2.4323,2.0403 5.422,2.7306 8.4062,2 6.6313,-1.6235 10.6705,-9.4581 12.8125,-15.7812 3.6513,-10.2073 4.9115,-23.011 3.6875,-35.1876 -0.4768,-4.1005 -1.1196,-8.1461 -2.0938,-12.125 3.5084,2.1284 7.0936,3.0208 10.6563,2.5 3.703,-0.5723 7.1376,-2.5417 10.4063,-6 1.4309,3.6731 3.6006,6.5992 6.4374,8.5313 3.3832,2.3346 7.5864,3.0647 12.0626,1.9687 1.1604,-0.284 2.4547,-0.7814 3.9062,-1.3124 5.021,-2.4594 10.5109,-7.3025 15.9688,-14.4376 2.0842,-2.9702 4.0066,-5.9137 5.7187,-8.9687 4.7638,-0.6392 9.283,-2.2557 13.1875,-4.9687 4.6225,-2.5848 12.7486,-9.4274 14.9688,-11.9376 2.2564,-3.2743 3.6466,-18.8007 5.6874,-29.8437 6.736,2.3925 8.3251,4.6109 9.0626,6.1875 1.2279,2.8624 0.6386,7.6041 -0.8438,14.4688 -1.5229,6.6988 -1.9548,12.0773 -1.4375,16.3437 0.4328,4.6385 1.9768,8.1063 4.6563,10.4375 2.2666,2.081 6.2626,4.1049 12.5624,2.5625 l 1.5,-0.375 0.1563,-0.031 c 6.5097,-2.1208 13.0419,-7.0771 18.75,-14.625 5.0821,-6.5158 9.4442,-14.5877 11.9687,-22.9374 1.0085,-3.0585 -0.7132,-6.501 -3.9374,-7.4688 -3.2243,-0.9679 -6.6885,0.7446 -7.6563,3.9688 -4.4567,14.0945 -14.1572,26.8294 -22.6563,29.4374 l -0.3437,0.094 c -1.4515,0.5311 -1.9811,0.469 -2.1875,0.3438 -0.2876,-0.4568 -2.0822,-3.5161 0.5,-15.2188 1.611,-7.7747 2.8871,-15.4557 0.062,-21.9688 -2.7029,-6.0157 -8.3208,-10.2835 -18.4063,-13.4374 -0.034,-1.5733 -0.019,-2.9862 -0.3437,-4.3126 -1.089,-5.8836 -4.9394,-7.2021 -6.5937,-7.5 -4.2596,-0.89 -8.4531,2.0589 -9.7188,6.9376 -0.802,3.1836 -0.3067,6.5716 1.625,9.4374 0.5345,0.7478 1.2684,1.6367 1.9688,2.3438 -1.2078,6.6453 -3.1154,16.3281 -4.5938,23.8125 -2.2033,5.29 -7.2859,10.62 -12.5312,13.75 0.2942,-0.9507 0.4026,-1.8399 0.5312,-2.75 1.364,-8.0658 0.681,-16.006 -2.0625,-22.1875 -3.1122,-6.9698 -8.5637,-11.2344 -14.6875,-11.8438 -3.9313,-0.2674 -11.2552,0.6535 -18.2188,10.9688 -2.5004,3.4238 -3.901,7.1002 -4.375,10.9062 -1.6983,0.2401 -3.0298,1.243 -3.9062,2.6876 -3.9101,6.1123 -6.6284,12.9388 -7.9375,19.75 -2.3424,5.5382 -4.72,9.6302 -7.125,12.25 -2.1486,2.7406 -6.8584,2.4126 -8.6563,0.5312 -2.4323,-2.0403 -4.9897,-5.2682 -7.5,-8.3438 -2.0973,-2.8251 -4.2833,-5.2943 -6.3437,-7.25 -0.7003,-0.707 -2.2892,-2.2452 -4.4375,-3.125 3.7387,-2.6725 7.3052,-6.0076 10.4688,-9.5937 4.2463,-4.9056 7.8727,-10.88 10.8437,-17.4063 6.6931,-14.2905 8.3411,-28.4018 8.7813,-33.7812 0.6161,-7.5312 0.1739,-14.4638 -1.25,-19.5625 -2.5268,-8.1675 -6.8476,-10.6355 -10.0313,-11.4375 -0.5582,-0.1269 -1.2181,-0.23 -2,-0.25 z m -0.5313,12.8438 c 0.3688,0.7882 0.8037,1.8951 1.25,3.7187 0.4837,2.6932 1.05,7.1289 0.5626,13.75 -1.4018,15.8067 -7.6617,36.1546 -20.8438,48.3437 3.7907,-21.8389 10.1461,-46.0909 15.3438,-59.3124 1.5496,-3.7182 2.8552,-5.5935 3.6874,-6.5 z m 50.5938,52.8124 c 0.1709,-0.02 0.3453,-0.011 0.5312,0.031 1.6139,0.1321 3.469,1.9596 4.6563,4.6563 2.3747,5.3929 2.5753,13.4374 -0.5313,22.2812 -5.21,-1.1845 -9.9842,-4.236 -12.2812,-8.5938 -2.3815,-3.9855 -2.0232,-8.3037 0.9375,-12.7187 2.2095,-3.1768 4.3639,-5.116 6.1875,-5.5625 0.1658,-0.041 0.3291,-0.074 0.5,-0.094 z m -17.9688,24.9376 c 3.6131,6.1442 9.8292,10.7918 17.0626,13.0624 -0.626,1.0319 -1.4366,1.9369 -2.0626,2.9688 -5.3324,6.9287 -9.2383,9.6218 -11.4374,10.6875 -2.6967,1.1873 -3.5654,0.5221 -3.9376,0.4375 -1.7321,-1.3331 -3.4151,-5.301 -3.3437,-11.4688 0.06,-1.576 0.2252,-3.2404 0.5,-4.9062 0.013,-0.042 0.019,-0.083 0.031,-0.125 0.1196,-0.4181 0.1919,-0.8319 0.2187,-1.25 0.6244,-3.1489 1.6231,-6.3567 2.9687,-9.4062 z m -55.0624,15.0624 c 13.7211,21.5932 10.8383,44.979 9.5624,51.9688 -0.9746,4.6317 -2.2442,8.7885 -3.75,11.9688 -0.5852,1.1975 -1.0928,2.0495 -1.5937,2.875 -1.2279,-2.8624 -2.9612,-9.3127 -4.2187,-23.0626 -0.8891,-12.9614 -1.0668,-28.7281 0,-43.75 z"
         style="font-size:170.68122864px;fill:#acbfc6;stroke:#13587c;stroke-width:2.72615862;font-family:FabfeltScript;-inkscape-font-specification:FabfeltScript" />
      <path
         sodipodi:nodetypes="ccccccccccccccccccccccccccccccccccccccccscccccccscccccccccccccccsccccccccccccccccccccccc"
         inkscape:connector-curvature="0"
         id="path5888"
         transform="matrix(0.97131282,0.23780539,-0.23780539,0.97131282,0,0)"
         d="m -2085.4688,1963.6562 c -2.3165,-0.042 -5.6616,0.6001 -8.9374,3.9063 -2.3719,2.5137 -4.6247,6.2374 -6.4688,10.9063 -4.108,10.4945 -8.0322,24.636 -10.75,38.6562 -2.2066,11.0836 -4.5155,27.4522 -4.0938,42.8125 0.061,2.4013 -0.056,6.4216 -0.031,8.3437 -5.1793,13.1627 -11.5,28.5118 -23.9062,33.1876 -4.2293,1.3866 -6.5369,-0.1482 -7.9376,-1.5626 -0.9065,-0.8321 -3.3038,-4.1159 -3.875,-14.3437 -0.5034,-7.0814 -0.052,-15.9886 1.1563,-26.125 l 3,-0.7187 c 15.7495,-3.856 24.5366,-6.7253 25.5313,-6.9688 3.0685,-1.1028 4.6963,-4.4748 3.7187,-7.75 -1.1027,-3.0687 -4.5467,-4.8618 -7.7813,-3.7188 l -17.7812,4.875 c 2.6497,-8.556 6.604,-21.8354 10.5938,-33.5312 0.9235,-2.6863 1.2834,-4.8768 1.375,-6.6562 0.1083,-5.2984 -3.4992,-7.0492 -4.6563,-7.4688 -6.4045,-2.4736 -12.3019,4.9529 -14.6875,10.2812 -2.9304,6.692 -7.243,23.5578 -10.0625,41.4688 -4.2292,1.3869 -9.66,1.5001 -9.0313,8.375 0.4802,3.397 2.2595,4.8865 5.6563,4.4062 0.5379,0.044 1.1901,-0.1282 1.6875,-0.25 -1.0393,9.392 -1.3066,17.5533 -0.8438,24.4688 0.6929,10.7251 3.1857,18.0069 7.5938,22.375 4.8615,4.7844 11.4215,6.5392 18.2188,4.875 l 1.8124,-0.4688 c 7.007,-2.2424 14.1975,-8.0207 20.2813,-16.1874 1.4496,-1.927 2.7828,-3.9522 4,-6.0313 1.8667,6.2568 4.0217,8.4971 5.5625,9.6563 1.9792,1.6239 4.357,2.1086 6.8438,1.5 4.1444,-1.0148 5.389,-5.3638 6.1874,-7.8438 0.7986,-2.4798 1.4259,-5.6316 2.3126,-9.1875 1.9423,-7.8559 4.0966,-17.685 7.5312,-25.9063 4.2738,-10.5351 8.1043,-12.8879 10.0938,-13.375 2.1549,-0.5274 3.0436,-0.4064 3.25,-0.2812 0.041,0.1658 0.7982,1.0628 0.9062,4.375 0.1081,3.3123 -0.3166,7.278 -0.75,11.25 -0.3115,4.4693 -0.7921,8.984 -0.6875,13 0.3447,5.7145 1.8549,9.7215 4.7813,12.3438 3.3389,2.8724 7.9353,3.6831 13.4062,2.3437 6.5696,-1.6084 12.7879,-7.5773 18.8438,-18.1563 0.6135,1.0021 1.2902,1.9587 2.0624,2.8438 6.8744,7.9817 18.2802,8.7108 25.9063,6.8438 7.4604,-1.8266 15.4357,-6.6034 21.5937,-13.0313 7.7382,-7.869 12.6656,-17.8631 14.5,-29.0313 0.43,-3.2682 -1.7317,-6.4138 -5,-6.8437 -3.3087,-0.5956 -6.4355,1.7536 -7.0312,5.0625 -3.1578,19.3997 -17.8193,29.8301 -26.9375,32.0625 -4.4761,1.0959 -10.7675,0.5233 -13.9375,-3.0937 -1.1942,-1.2891 -1.96,-3.0325 -2.2812,-5.0626 33.8543,-15.3173 38.5091,-31.3864 38.2187,-39.75 -0.1486,-3.478 -1.1182,-6.7471 -2.9687,-9.2812 -1.7254,-2.7406 -4.1387,-4.7947 -7.0313,-5.8438 -1.7356,-0.6294 -8.5409,-2.4693 -16.8437,2.375 -7.3489,4.4351 -13.4315,12.6013 -18.25,24.5 -2.1905,5.3299 -3.6946,10.2986 -4.5938,14.875 -0.014,0.038 -2.0164,8.0546 -2.0312,8.0938 l -4.0938,6 c -6.9366,13.296 -11.7052,15.3318 -13.0312,15.6562 -1.4922,0.3654 -2.2309,0.2001 -2.5626,0.2813 -0.081,-0.3316 -0.5761,-1.6226 -0.5624,-4.4375 -0.1928,-2.9401 0.2856,-6.7344 0.5937,-10.5 1.0428,-10.0957 2.0155,-20.5366 -4.25,-26.0312 -3.5455,-2.9979 -8.3226,-3.7644 -14.125,-2.3438 -7.4604,1.8265 -13.5252,8.5824 -18.4687,20.6875 -3.3094,8.0148 -5.6204,17.2131 -7.3126,24.6563 -0.8418,-5.5927 -1.4342,-12.3061 -1.8124,-19.5938 -0.03,-2.277 -0.072,-4.5574 0.062,-6.875 10.4616,-6.0757 18.4468,-15.0488 23.7188,-26.5312 4.1417,-8.9215 6.8538,-19.4247 7.6562,-31.2188 0.7416,-7.7376 0.1519,-14.4542 -1.3124,-19.7188 -2.4863,-8.0014 -6.6508,-10.6762 -10,-11.4374 -0.5067,-0.096 -1.1653,-0.1734 -1.9376,-0.1876 z m -0.5937,12.75 c 0.3687,0.7884 0.8348,2.0827 1.2813,3.9063 0.6086,2.4868 1.0095,6.9631 0.5624,13.75 -1.625,19.2002 -7.7934,33.5403 -18.3124,42.9687 2.3321,-19.9002 7.6148,-40.6969 12.9374,-54.125 1.384,-3.6773 2.7395,-5.4275 3.5313,-6.5 z m 84.3437,40.1876 c 0.5693,-0.01 1.0233,0.082 1.3126,0.1874 0.5785,0.2098 1.8353,1.651 1.9062,4.0938 0.3008,6.2523 -6.355,15.7997 -24.9062,25.4375 0.8426,-3.0179 1.8565,-6.082 3.2812,-9.5937 4.6934,-11.6925 9.6994,-16.4466 13.0625,-18.5 1.245,-0.6564 2.349,-1.1003 3.3437,-1.3438 0.7461,-0.1826 1.4308,-0.2737 2,-0.2812 z"
         style="font-size:170.68122864px;fill:#acbfc6;stroke:#13587c;stroke-width:2.72615862;font-family:FabfeltScript;-inkscape-font-specification:FabfeltScript" />
    </g>
    <g
       transform="translate(-411.95825,430.06237)"
       id="g5902"
       style="fill:#96d0ee;fill-opacity:1;filter:url(#filter5912)"
       inkscape:export-filename="/Applications/MAMP/htdocs/AuditSystemResults/img/AuditHeaderFull1.png"
       inkscape:export-xdpi="90"
       inkscape:export-ydpi="90">
      <path
         sodipodi:nodetypes="cccc"
         inkscape:connector-curvature="0"
         id="path6086"
         style="fill:#feff40;fill-opacity:1;fill-rule:evenodd;stroke-width:0.62500000000000000;stroke-linejoin:round;opacity:0.31048387;filter:url(#filter6100)"
         d="m -2586.695,1154.1734 -27.4812,74.733 -27.4812,-74.733 c 16.2249,11.9392 38.4234,11.8704 54.9624,0 z" />
      <path
         sodipodi:nodetypes="ccccccccccccc"
         inkscape:connector-curvature="0"
         id="path6064"
         d="m -2625.6875,1050.4062 0,11.375 0,114.2813 22.8125,0 0,-102.875 418.0479,0.4035 192.9559,-38.5008 755.7284,-0.6748 8.1035,-24.2441 -763.5145,1.9298 -193.4678,36.8311 -429.2596,1.474 z"
         style="font-size:medium;font-style:normal;font-variant:normal;font-weight:normal;font-stretch:normal;text-indent:0;text-align:start;text-decoration:none;line-height:normal;letter-spacing:normal;word-spacing:normal;text-transform:none;direction:ltr;block-progression:tb;writing-mode:lr-tb;text-anchor:start;baseline-shift:baseline;color:#000000;fill:#fff127;fill-opacity:1;stroke:none;stroke-width:22.79999923999999822;marker:none;visibility:visible;display:inline;overflow:visible;enable-background:accumulate;font-family:Sans;-inkscape-font-specification:Sans;opacity:0.18000008000000001;filter:url(#filter6082)" />
      <path
         style="font-size:medium;font-style:normal;font-variant:normal;font-weight:normal;font-stretch:normal;text-indent:0;text-align:start;text-decoration:none;line-height:normal;letter-spacing:normal;word-spacing:normal;text-transform:none;direction:ltr;block-progression:tb;writing-mode:lr-tb;text-anchor:start;baseline-shift:baseline;color:#000000;fill:#96d0ee;fill-opacity:1;stroke:none;stroke-width:22.79999924;marker:none;visibility:visible;display:inline;overflow:visible;enable-background:accumulate;font-family:Sans;-inkscape-font-specification:Sans"
         d="m -2625.6875,1050.4062 0,11.375 0,114.2813 22.8125,0 0,-102.875 418.0479,0.4035 192.9559,-38.5008 755.7284,-0.6748 8.1035,-24.2441 -763.5145,1.9298 -193.4678,36.8311 -429.2596,1.474 z"
         id="path5904"
         inkscape:connector-curvature="0"
         sodipodi:nodetypes="ccccccccccccc" />
      <path
         d="m -2586.695,1154.1734 -27.4812,74.733 -27.4812,-74.733 c 16.2249,11.9392 38.4234,11.8704 54.9624,0 z"
         style="fill:#96d0ee;fill-opacity:1;fill-rule:evenodd;stroke-width:0.625;stroke-linejoin:round"
         id="path5906"
         inkscape:connector-curvature="0"
         sodipodi:nodetypes="cccc" />
    </g>
    <g
       inkscape:export-ydpi="90"
       inkscape:export-xdpi="90"
       inkscape:export-filename="/Applications/MAMP/htdocs/AuditSystemResults/img/AuditHeaderFull1.png"
       style="opacity:0.74596773;fill:#78c2e9;fill-opacity:1;filter:url(#filter5984)"
       id="g5918"
       transform="translate(-411.95825,430.06237)">
      <path
         sodipodi:nodetypes="ccccccccccccc"
         inkscape:connector-curvature="0"
         id="path5920"
         d="m -2619.6875,1058.4062 0,11.375 0,102.2813 10.8125,2 0,-104.875 422.8729,-0.8457 190.4524,-39.2949 751.4069,-0.6315 4.1035,-12.2441 -755.5069,1.8308 -190.2577,39.5697 -422.4773,0.8344 z"
         style="font-size:medium;font-style:normal;font-variant:normal;font-weight:normal;font-stretch:normal;text-indent:0;text-align:start;text-decoration:none;line-height:normal;letter-spacing:normal;word-spacing:normal;text-transform:none;direction:ltr;block-progression:tb;writing-mode:lr-tb;text-anchor:start;baseline-shift:baseline;color:#000000;fill:#38a5df;fill-opacity:1;stroke:none;stroke-width:22.79999924;marker:none;visibility:visible;display:inline;overflow:visible;enable-background:accumulate;font-family:Sans;-inkscape-font-specification:Sans" />
      <path
         inkscape:connector-curvature="0"
         id="path5922"
         style="fill:#34a3de;fill-opacity:1;fill-rule:evenodd;stroke-width:0.625;stroke-linejoin:round"
         d="m -2596.695,1164.1734 -17.4812,48.733 -15.4812,-48.733 c 16.2249,11.9392 16.4234,11.8704 32.9624,0 z"
         sodipodi:nodetypes="cccc" />
    </g>
    <g
       style="font-size:281.57705688px;font-style:normal;font-variant:normal;font-weight:normal;font-stretch:normal;line-height:125%;letter-spacing:0px;word-spacing:0px;fill:#13587c;fill-opacity:1;stroke:none;font-family:FabfeltScript;-inkscape-font-specification:FabfeltScript"
       id="text5908"
       transform="translate(-2502.676,-639.21163)">
      <path
         d="m 247.46875,1830.125 c -0.8744,-0.01 -1.74133,0.01 -2.625,0.031 -15.55253,0.4114 -32.53319,5.7713 -49.375,16.0313 -19.14722,11.263 -39.42345,39.4003 -51.53125,71.5 -6.47627,16.8947 -10.40494,34.3563 -11.53125,50.4063 -1.12631,18.5841 1.39873,35.4828 7.875,50.125 2.10505,4.4731 16.01795,24.1817 21.96875,24.9062 10.97506,8.6758 20.27158,10.1858 31.03125,11.625 13.43157,1.7965 24.14122,2.6017 37.09375,-4.1562 11.26308,6.7579 14.64347,12.6771 25.53125,22.9062 6.47627,7.226 12.64939,9.0938 18.5625,9.0938 8.16573,-2e-4 18.05368,-3.9646 25.65625,-7.625 5.06838,-2.5343 7.03387,-8.463 4.78125,-13.5313 -2.53419,-4.7869 -8.43161,-6.7526 -13.5,-4.5 -15.48672,7.6026 -20.28757,18.8188 -42.4375,-18.7187 11.82622,-9.5737 22.52046,-21.9827 31.8125,-36.9063 13.23411,-21.1182 23.08852,-46.4403 27.59375,-70.9375 4.7868,-25.0603 3.66409,-46.7649 -3.09375,-60.8438 -4.7868,-9.8551 -10.67965,-17.7115 -17.4375,-23.9062 -6.75784,-6.1947 -14.36519,-10.4345 -22.8125,-12.9688 -5.54354,-1.6168 -11.44173,-2.4705 -17.5625,-2.5312 z m 0,19.9062 c 4.20166,0.059 8.20661,0.655 11.9375,1.7813 11.54465,3.6605 21.11716,12.3899 27.875,26.4687 9.57361,19.9919 2.53007,71.2336 -23.375,112.3438 -6.49887,10.2517 -15.14568,28.8301 -25.40625,31.9062 -25.98283,-26.5179 -49.03194,-37.8382 -84.28125,-25.7187 -11.44394,-50.006 24.58284,-117.7591 51.40625,-133.75 14.78278,-8.6584 29.23877,-13.2065 41.84375,-13.0313 z m -66.90625,163.3126 c 13.16059,0.039 26.64837,6.6679 35.46875,19.5 -30.31811,8.6962 -40.74514,4.4295 -53.84375,-14.8126 5.67434,-3.1399 11.97992,-4.7064 18.375,-4.6874 z"
         id="path5989"
         inkscape:connector-curvature="0"
         sodipodi:nodetypes="cccccccsccccccccccscccsccccccsscss" />
      <path
         d="m 343.0031,2048.9112 c -8.16573,0 -15.20517,-4.2237 -19.99198,-11.8263 -5.34995,-8.7289 -5.91311,-21.3999 -1.68946,-38.576 3.37892,-12.3894 9.29205,-27.5946 17.45778,-44.7708 2.53419,-5.0684 8.44732,-7.0394 13.5157,-4.7868 4.7868,2.5342 7.03942,8.4473 4.50523,13.5157 -23.65245,48.7128 -18.02093,61.947 -16.89462,64.1996 1.68946,2.2526 2.53419,2.2526 3.37892,2.2526 4.78681,-0.2816 14.64202,-6.4763 27.59455,-22.2446 10.41834,-12.9525 20.83671,-29.5656 26.74982,-43.3629 2.25262,-5.0683 8.16574,-7.321 13.23413,-5.0684 5.06838,2.2527 7.321,7.8842 5.06838,12.9526 -8.72888,20.5551 -11.54466,33.7892 -12.10781,41.3918 -1.12631,9.2921 0.84473,12.9526 1.40788,13.5157 0.84474,0.2816 5.0684,-0.2816 12.3894,-6.1947 6.19468,-4.5052 16.0499,-14.0789 28.43928,-32.6629 3.09734,-4.5052 9.29205,-5.6316 14.07885,-2.5342 4.50523,3.0973 5.63154,9.292 2.53419,13.7973 -11.82622,17.1761 -23.65248,30.6919 -34.3524,38.576 -15.7683,11.5447 -26.46825,10.1368 -32.66294,6.7579 -5.06838,-2.8158 -10.69992,-8.7289 -12.10781,-21.3999 -14.07884,16.613 -27.03141,25.6235 -38.57606,26.4683 l -1.97103,0"
         id="path5991"
         inkscape:connector-curvature="0" />
      <path
         d="m 481.09026,2052.5717 c -12.95253,0 -30.97349,-5.6316 -38.85764,-21.1183 -4.22365,-8.1657 -5.06838,-17.7394 -2.53419,-28.7209 2.53419,-10.9815 8.7289,-23.6525 18.58409,-37.1682 12.38937,-17.1761 25.34194,-27.8761 38.85763,-32.0997 15.20515,-4.5053 25.34194,1.1263 27.87613,2.8157 4.22365,2.8158 7.321,7.0395 9.01046,12.1078 1.97104,4.7869 2.25262,10.4184 1.12631,16.0499 -2.81577,13.5157 -16.6131,37.4498 -76.87053,48.7129 -0.28158,3.3789 0.28157,6.4762 1.68946,9.0104 3.6605,7.0395 13.5157,10.4184 21.11828,10.4184 15.48672,0 43.0813,-10.9815 55.75225,-40.8287 2.25262,-5.0684 8.16574,-7.6026 13.23413,-5.3499 5.06838,1.971 7.321,7.8841 5.34996,12.9525 -7.321,17.1762 -19.14725,31.2551 -34.63398,40.8287 -12.38938,7.8841 -27.03141,12.3894 -39.70236,12.3894 m 27.59455,-100.8046 c -1.68946,0 -3.6605,0.2816 -5.91312,0.8447 -6.19469,1.971 -16.0499,7.6026 -28.1577,24.4972 -3.6605,5.0684 -6.47628,9.5736 -9.01047,14.0789 33.50764,-8.1658 47.8681,-20.8368 49.83914,-30.9735 0.84473,-3.9421 -0.56316,-6.7579 -1.40789,-7.321 -0.84473,-0.5632 -2.81577,-1.1263 -5.34996,-1.1263"
         id="path5993"
         inkscape:connector-curvature="0" />
      <path
         d="m 591.77203,2049.4743 c -10.69992,0 -16.33148,-4.7868 -19.14724,-9.0105 -3.37893,-4.7868 -4.50524,-10.9815 -3.37893,-18.584 0.84473,-7.0395 3.66051,-15.4868 8.72889,-25.6236 5.06838,-10.4183 7.88416,-17.7393 7.03943,-22.8077 -0.56316,-2.8158 -2.25263,-7.0394 -12.10782,-13.5157 -7.60257,16.8946 -20.27355,44.2076 -20.8367,45.6155 -2.53419,5.0684 -8.44732,7.0394 -13.5157,4.7868 -4.7868,-2.2526 -7.03942,-8.4473 -4.78681,-13.2341 0.28158,-0.5632 16.0499,-34.3524 23.08932,-50.1207 -0.84473,-1.4079 -1.68946,-3.0974 -2.25262,-4.5053 -1.97103,-5.3499 -1.40788,-10.9815 1.12631,-15.7683 3.94208,-7.321 11.82625,-10.4183 18.30251,-7.321 2.53419,1.1263 8.16573,4.7868 7.60258,14.642 0,2.2526 -0.56315,4.5053 -1.12631,7.0394 14.92357,9.0105 22.24459,18.021 24.21563,28.7209 1.97104,11.5447 -3.09735,23.3709 -8.72889,35.1971 -8.72888,17.7394 -7.03942,23.3709 -6.75785,24.2157 0.28158,0.2815 1.12631,0.5631 3.6605,0.2815 l 0.56316,0 c 14.64199,-0.8447 35.19714,-17.4578 47.8681,-38.2944 2.81577,-4.7868 9.01047,-6.1947 13.79727,-3.379 4.78681,2.8158 6.1947,9.0105 3.37893,13.5157 -7.321,12.3894 -17.45779,23.6525 -28.15771,32.0998 -12.1078,9.8552 -24.49721,15.2052 -35.76028,16.0499 l -0.28158,0 -2.53419,0"
         id="path5995"
         inkscape:connector-curvature="0" />
      <path
         d="m 648.51421,2118.4607 c -4.7868,0 -9.01047,-1.4079 -12.67096,-4.5052 -5.34996,-4.2237 -7.88416,-10.7 -7.03943,-18.3026 1.40788,-15.2051 17.4578,-34.0708 36.88659,-43.6444 3.94208,-1.6895 8.16574,-3.6605 12.95255,-5.6315 4.22365,-1.9711 9.01047,-3.9421 13.5157,-6.1947 2.53419,-6.1947 4.50523,-12.3894 6.47627,-18.5841 l -4.78681,3.3789 c -11.26307,7.6026 -22.80775,11.2631 -35.47871,11.2631 -7.60257,0 -13.79728,-4.2237 -17.1762,-11.2631 -3.94207,-8.4473 -4.22365,-20.5551 -0.56315,-34.0708 2.53419,-9.8552 8.16574,-24.7788 20.55512,-40.2655 3.37892,-4.2237 9.8552,-5.0684 14.07885,-1.4079 4.22366,3.3789 5.06839,9.5736 1.40789,14.0788 -8.72888,10.7 -14.92359,23.3709 -17.45778,35.4787 -1.97104,9.5737 -1.12631,15.4868 0,17.4578 11.54465,-0.2816 27.59457,-4.7868 48.71283,-33.7892 0.56316,-3.0974 0.84473,-5.9131 1.12631,-8.7289 1.68946,-12.9525 5.91313,-20.2736 12.95255,-21.963 4.50522,-1.1263 9.29204,0.5631 12.10781,4.5052 2.53419,3.9421 3.09734,9.2921 1.68946,15.7683 -1.40788,5.6316 -4.22366,11.5447 -8.44731,17.7394 -0.28158,0 -0.28158,0.2816 -0.56315,0.5631 -1.97104,10.4184 -4.78682,22.8078 -8.72889,35.4787 13.51568,-8.7288 25.34194,-20.5551 32.38136,-36.3234 2.25261,-5.0684 8.16574,-7.321 13.23412,-5.0684 5.06838,2.2526 7.321,8.1658 5.06839,13.2341 -12.95253,29.0024 -38.01293,45.8971 -60.82065,57.1602 -3.09734,7.6025 -6.75785,14.9236 -10.69993,21.3998 -6.75784,11.5447 -24.21564,38.0129 -44.20759,41.6734 -1.40789,0.5632 -2.81578,0.5632 -4.50524,0.5632 m 0.84473,-19.992 c 6.19469,-1.1263 17.73937,-11.2631 29.5656,-30.4103 l -4.50524,1.971 c -7.88415,3.9421 -15.20516,10.1368 -20.55512,16.8947 -4.22365,5.6315 -5.34997,9.8552 -5.34997,11.5446 l 0.84473,0"
         id="path5997"
         inkscape:connector-curvature="0" />
    </g>
  </g>
</svg>
