<?xml version="1.0" encoding="UTF-8" standalone="no"?>
<!-- Created with Inkscape (http://www.inkscape.org/) -->

<svg
   xmlns:dc="http://purl.org/dc/elements/1.1/"
   xmlns:cc="http://creativecommons.org/ns#"
   xmlns:rdf="http://www.w3.org/1999/02/22-rdf-syntax-ns#"
   xmlns:svg="http://www.w3.org/2000/svg"
   xmlns="http://www.w3.org/2000/svg"
   xmlns:sodipodi="http://sodipodi.sourceforge.net/DTD/sodipodi-0.dtd"
   xmlns:inkscape="http://www.inkscape.org/namespaces/inkscape"
   width="728px"
   height="90px"
   id="svg2985"
   version="1.1"
   inkscape:version="0.48.5 r10040"
   sodipodi:docname="New document 2">
  <defs
     id="defs2987" />
  <sodipodi:namedview
     id="base"
     pagecolor="#ffffff"
     bordercolor="#666666"
     borderopacity="1.0"
     inkscape:pageopacity="0.0"
     inkscape:pageshadow="2"
     inkscape:zoom="0.8729369"
     inkscape:cx="333.98804"
     inkscape:cy="106.30835"
     inkscape:document-units="px"
     inkscape:current-layer="layer4"
     showgrid="false"
     inkscape:snap-bbox="false"
     inkscape:snap-global="false"
     inkscape:window-width="1687"
     inkscape:window-height="690"
     inkscape:window-x="1464"
     inkscape:window-y="0"
     inkscape:window-maximized="0" />
  <metadata
     id="metadata2990">
    <rdf:RDF>
      <cc:Work
         rdf:about="">
        <dc:format>image/svg+xml</dc:format>
        <dc:type
           rdf:resource="http://purl.org/dc/dcmitype/StillImage" />
        <dc:title></dc:title>
      </cc:Work>
    </rdf:RDF>
  </metadata>
  <g
     id="layer1"
     inkscape:label="Layer 1"
     inkscape:groupmode="layer"
     style="display:none">
    <g
       style="font-size:200px;font-style:normal;font-variant:normal;font-weight:normal;font-stretch:normal;line-height:125%;letter-spacing:0px;word-spacing:0px;fill:#000000;fill-opacity:1;stroke:none;font-family:Fonarto XT;-inkscape-font-specification:Fonarto XT"
       id="text2993"
       transform="translate(-14.666667,46.666667)">
      <path
         d="m 59.38,-7.9533321 -4.485,11.615 c 1.456622,-0.2299667 2.913288,-0.3449666 4.37,-0.345 1.533285,-0.076633 3.028283,-0.1149665 4.485,-0.115 l -4.37,-11.155 M 42.59,-33.943332 c 1.533301,-3.909926 3.603299,-6.899923 6.21,-8.97 2.683294,-2.146585 6.209957,-3.219917 10.58,-3.22 0.919952,8.3e-5 1.878284,0.03842 2.875,0.115 1.073282,0.07675 2.261614,0.268416 3.565,0.575 l 0.345,0.92 4.025,4.025 32.2,83.72 -20.125,0 -4.255,-4.255 -0.575,0 -4.6,-12.19 -1.955,0 c -1.686724,10e-6 -3.335056,0.07668 -4.945,0.23 -1.610052,0.153343 -2.990051,0.498342 -4.14,1.035 -1.150049,0.536675 -1.955048,1.341674 -2.415,2.415 -0.460047,1.073338 -0.38338,2.49167 0.23,4.255 -2.453378,-0.689997 -4.56171,-1.53333 -6.325,-2.53 -1.763373,-0.996661 -3.181705,-2.03166 -4.255,-3.105 l -2.53,-2.3 -0.46,-0.345 -6.44,16.79 -20.125,0 -4.255,-4.255 -0.92,0 28.29,-72.91 m 2.185,0.805 -27.025,69.805 15.87,0 c 2.069976,-5.443328 3.948308,-10.388323 5.635,-14.835 1.763304,-4.523314 3.488303,-8.969976 5.175,-13.3400001 1.763299,-4.446634 3.564964,-9.0849627 5.405,-13.915 1.916627,-4.9066199 4.101625,-10.4649479 6.555,-16.6749999 L 67.2,5.5016679 c -1.68672,3.12e-5 -3.450052,3.12e-5 -5.29,0 -1.840048,-0.076635 -3.680046,3.12e-5 -5.52,0.23 -1.763376,0.1533642 -3.488374,0.4983638 -5.175,1.035 -1.610038,0.4600295 -3.066703,1.2650287 -4.37,2.415 -1.380033,1.1500261 -2.415032,2.6066911 -3.105,4.3700001 -0.690031,1.686688 -0.881698,3.411686 -0.575,5.175 0.306635,1.763349 1.149968,3.450014 2.53,5.06 1.456632,1.533345 3.564963,2.683343 6.325,3.45 -0.613373,-2.069989 -0.306706,-3.564987 0.92,-4.485 1.226624,-0.996652 2.913289,-1.686651 5.06,-2.07 2.223285,-0.383317 4.676616,-0.53665 7.36,-0.46 2.683277,1.6e-5 5.174941,1.6e-5 7.475,0 l 6.21,16.445 15.87,0 -30.82,-80.04 c -5.290047,-0.919919 -9.468376,-0.45992 -12.535,1.38 -2.990037,1.840077 -5.251701,4.79174 -6.785,8.855"
         style="font-size:115px"
         id="path2998"
         inkscape:connector-curvature="0" />
      <path
         d="m 120.26891,-24.398332 4.255,4.255 0,30.475 c -3e-5,1.763358 -3e-5,3.603356 0,5.52 0.0766,1.916686 0.42163,3.71835 1.035,5.405 1.14997,0.383348 2.3383,0.575015 3.565,0.575 1.91663,1.5e-5 3.56496,-0.459985 4.945,-1.38 0.99662,-0.689983 1.72496,-1.533316 2.185,-2.53 0.53662,-0.996647 0.91996,-2.069979 1.15,-3.22 0.22995,-1.226644 0.34495,-2.453309 0.345,-3.68 0.0766,-1.2266399 0.11495,-2.414972 0.115,-3.5650001 l 0,-18.3999999 c -5e-5,-2.453283 0.45995,-4.599948 1.38,-6.44 0.91995,-1.839944 2.22328,-3.334943 3.91,-4.485 1.76328,-1.226607 3.83328,-2.108273 6.21,-2.645 2.37661,-0.613272 5.0216,-0.881605 7.935,-0.805 l 0,0.69 4.255,4.255 0,27.2549999 c 0.0766,5.3666911 -0.11507,9.8900201 -0.575,13.5700001 -0.46007,3.680012 -1.11173,6.516676 -1.955,8.51 -2.37673,5.520002 -5.78839,9.468332 -10.235,11.845 -4.37005,2.453327 -9.46838,3.679992 -15.295,3.68 -4.06337,-8e-6 -7.7817,-0.575007 -11.155,-1.725 -3.37336,-1.150005 -6.28669,-2.95167 -8.74,-5.405 l -2.185,-2.185 c -4.14002,-2.989996 -7.13001,-7.321658 -8.97,-12.995 -0.61334,-1.839984 -1.07334,-4.331648 -1.38,-7.475 -0.30668,-3.219975 -0.46001,-6.6699714 -0.46,-10.3500001 l 0,-29.4399999 19.665,0 0,0.69 m -2.3,1.61 -15.065,0 0,27.1399999 c -1e-5,3.6033621 0.15332,6.9383591 0.46,10.0050001 0.30666,2.990019 0.72832,5.366684 1.265,7.13 1.83999,5.750009 4.86832,9.928339 9.085,12.535 4.21664,2.606667 9.27664,3.909999 15.18,3.91 5.44329,-1e-6 10.19662,-1.111667 14.26,-3.335 4.06328,-2.223329 7.20661,-5.903325 9.43,-11.04 0.84327,-1.993318 1.4566,-4.714982 1.84,-8.165 0.45994,-3.526642 0.6516,-7.8966376 0.575,-13.1100001 l 0,-25.2999999 c -4.44672,-0.153274 -8.05005,0.805059 -10.81,2.875 -2.76005,1.993388 -4.10171,5.060052 -4.025,9.2 l 0,17.1349999 c -5e-5,1.3800291 -5e-5,2.8366943 0,4.3700001 -5e-5,1.533358 -0.15338,3.028356 -0.46,4.485 -0.23005,1.456687 -0.69005,2.836685 -1.38,4.14 -0.61338,1.226683 -1.57171,2.261682 -2.875,3.105 -0.92004,0.613347 -1.91671,1.073347 -2.99,1.38 -1.07337,0.306679 -2.18504,0.460012 -3.335,0.46 -1.15004,1.2e-5 -2.30003,-0.153321 -3.45,-0.46 -1.07337,-0.306653 -2.0317,-0.766653 -2.875,-1.38 -1.30336,-0.919985 -2.30003,-2.03165 -2.99,-3.335 -0.61336,-1.303314 -1.07336,-2.683313 -1.38,-4.14 -0.23003,-1.53331 -0.38336,-3.066642 -0.46,-4.6 -3e-5,-1.609972 -3e-5,-3.1049705 0,-4.4850001 l 0,-28.5199999"
         style="font-size:115px"
         id="path3000"
         inkscape:connector-curvature="0" />
      <path
         d="m 226.55406,36.551668 0,-68.54 c -6e-5,-3.066595 -1.30339,-5.749926 -3.91,-8.05 -2.53006,-2.299921 -6.05672,-3.526586 -10.58,-3.68 l 0,46.1149999 c -5e-5,2.6066984 -0.26838,5.2516957 -0.805,7.9350001 -0.46005,2.60669 -1.26505,4.983355 -2.415,7.13 -1.15004,2.146684 -2.72171,3.910015 -4.715,5.29 -1.9167,1.303346 -4.37004,1.955012 -7.36,1.955 -3.5267,1.2e-5 -6.44003,-0.843321 -8.74,-2.53 -2.30002,-1.686651 -4.02502,-3.794982 -5.175,-6.325 -1.15002,-2.529977 -1.72502,-5.251641 -1.725,-8.1650001 -2e-5,-2.989968 0.57498,-5.7499652 1.725,-8.27999996 1.22665,-2.52996024 2.98998,-4.63829144 5.29,-6.32500004 2.37664,-1.6866214 5.28997,-2.5299538 8.74,-2.53 2.06997,4.62e-5 4.25496,0.3450458 6.555,1.035 2.37663,0.6133778 4.21662,1.8400433 5.52,3.68 0.68995,-1.226624 1.03495,-2.7982891 1.035,-4.715 0.0766,-1.9932849 -0.38338,-3.9482829 -1.38,-5.8649999 -0.92004,-1.916613 -2.49171,-3.603278 -4.715,-5.06 -2.1467,-1.456608 -5.1367,-2.261607 -8.97,-2.415 -3.68003,-0.153274 -7.20669,0.498392 -10.58,1.955 -3.37335,1.456723 -6.40168,3.565054 -9.085,6.325 -2.60667,2.683382 -4.71501,5.9033785 -6.325,9.6599999 -1.53334,3.7567045 -2.3,7.8967003 -2.3,12.42 0,4.6766911 0.72833,8.8550201 2.185,12.5350001 1.45666,3.680013 3.37333,6.861676 5.75,9.545 2.45332,2.606671 5.25165,4.638336 8.395,6.095 3.14331,1.379999 6.40164,2.108332 9.775,2.185 3.3733,0.153332 6.7083,-0.383334 10.005,-1.61 3.37329,-1.226665 6.47829,-3.25833 9.315,-6.095 l 0,6.325 14.49,0 m -49.565,-1.61 c -3.75668,-2.759996 -6.82334,-6.439992 -9.2,-11.04 -2.3,-4.599983 -3.45,-10.043311 -3.45,-16.3300001 0,-4.829966 0.84333,-9.2766283 2.53,-13.34 1.76333,-4.0632868 4.06333,-7.5516169 6.9,-10.4649999 2.83665,-2.913278 6.09498,-5.136609 9.775,-6.67 3.67998,-1.609939 7.51331,-2.338271 11.5,-2.185 3.8333,0.153395 6.89996,0.920061 9.2,2.3 2.37662,1.303391 4.21662,2.875057 5.52,4.715 l 0,-27.945 c 4.13995,0.153416 7.66661,0.958415 10.58,2.415 2.91327,1.380079 5.09827,3.181744 6.555,5.405 l 2.185,2.07 0.46,0.46 c 2.3766,2.376737 3.56493,5.136734 3.565,8.28 l 0,70.495 -18.4,0 -2.415,-2.415 c -2.22338,1.379995 -4.52338,2.37666 -6.9,2.99 -2.30004,0.613326 -4.6767,0.919992 -7.13,0.92 -3.68003,-8e-6 -7.24503,-0.728341 -10.695,-2.185 -3.37335,-1.380004 -6.40168,-3.411669 -9.085,-6.095 l -1.495,-1.38 m 19.78,-12.535 c 2.52997,1.4e-5 4.6383,-0.574985 6.325,-1.725 1.68663,-1.22665 2.98996,-2.798315 3.91,-4.715 0.99662,-1.916644 1.68662,-4.063309 2.07,-6.4400001 0.45996,-2.3766371 0.68995,-4.7533014 0.69,-7.13 l 0,-2.64499996 -0.115,-0.115 c -0.0767,3.703e-5 -0.11504,3.703e-5 -0.115,0 -4e-5,-0.0766296 -0.0384,-0.11496286 -0.115,-0.115 l -0.115,0.23 c -0.15338,-0.15329627 -0.30671,-0.38329604 -0.46,-0.69 -1.30338,-0.76662834 -2.60671,-1.26496114 -3.91,-1.49500004 -1.22671,-0.3066272 -2.3767,-0.4599604 -3.45,-0.46 -2.30003,3.96e-5 -4.3317,0.4600391 -6.095,1.38 -1.6867,0.84337071 -3.10503,1.99336956 -4.255,3.45 -1.15003,1.4567 -2.03169,3.1050317 -2.645,4.945 -0.53669,1.7633614 -0.80502,3.6033591 -0.805,5.5200001 -2e-5,3.066688 0.65164,5.750018 1.955,8.05 1.91664,1.303348 4.2933,1.955014 7.13,1.955"
         style="font-size:115px"
         id="path3002"
         inkscape:connector-curvature="0" />
      <path
         d="m 240.36484,-10.943332 c 0.0767,-1.226618 0.23,-2.338283 0.46,-3.335 0.30666,-0.996615 0.65166,-1.916614 1.035,-2.76 -0.38334,-1.379945 -0.805,-2.913277 -1.265,-4.6 -0.46,-1.686607 -0.88167,-3.373272 -1.265,-5.06 -0.30667,-1.686602 -0.575,-3.2966 -0.805,-4.83 -0.23,-1.533264 -0.345,-2.874929 -0.345,-4.025 0,-2.069926 0.23,-4.024924 0.69,-5.865 0.53666,-1.83992 1.495,-3.449919 2.875,-4.83 2.29999,-2.299915 5.09832,-3.449914 8.395,-3.45 3.29665,8.6e-5 6.05665,1.188418 8.28,3.565 0.84331,0.843415 1.53331,1.686748 2.07,2.53 l 2.645,2.645 c 2.06997,2.223409 3.10497,4.830073 3.105,7.82 -3e-5,3.220067 -1.11169,5.980064 -3.335,8.28 -0.69003,0.690061 -1.34169,1.188394 -1.955,1.495 l 3.105,3.105 0,63.48 -18.745,0 -4.255,-4.255 -0.69,0 0,-49.91 m 9.775,-36.455 c -2.68334,8.4e-5 -4.94501,0.920083 -6.785,2.76 -1.30334,1.303413 -2.14667,2.951745 -2.53,4.945 -0.30667,1.916741 -0.42167,3.910072 -0.345,5.98 0.15333,2.070068 0.42166,4.0634 0.805,5.98 0.46,1.916729 0.88166,3.488394 1.265,4.715 0.45999,-1.303272 1.26499,-2.223271 2.415,-2.76 1.22666,-0.61327 2.52999,-1.111603 3.91,-1.495 1.45665,-0.459936 2.87499,-0.881602 4.255,-1.265 1.45665,-0.459934 2.72165,-1.2266 3.795,-2.3 1.83998,-1.916597 2.75998,-4.216595 2.76,-6.9 -2e-5,-2.683256 -0.95835,-4.944921 -2.875,-6.785 -1.84002,-1.916584 -4.06335,-2.874916 -6.67,-2.875 m -7.475,36.57 0,47.495 14.835,0 0,-59.57 c -2.07002,6e-5 -3.98668,0.230059 -5.75,0.69 -1.68668,0.383392 -3.18168,1.035058 -4.485,1.955 -1.30334,0.920056 -2.37667,2.146721 -3.22,3.68 -0.76667,1.533385 -1.22667,3.45005 -1.38,5.75"
         style="font-size:115px"
         id="path3004"
         inkscape:connector-curvature="0" />
      <path
         d="m 277.51703,-32.103332 c -10e-6,-2.529929 0.53666,-4.676593 1.61,-6.44 1.07332,-1.839923 2.49165,-3.296588 4.255,-4.37 1.76332,-1.149919 3.79498,-1.954919 6.095,-2.415 2.29998,-0.536584 4.67664,-0.804917 7.13,-0.805 l 0,0.69 4.255,4.255 0,16.445 9.085,0 0,0.69 4.255,4.255 c -5e-5,1.993388 -0.19171,3.948386 -0.575,5.865 -0.30671,1.916715 -0.92004,3.680047 -1.84,5.2899999 -0.84338,1.5333771 -2.07004,2.7983759 -3.68,3.795 -1.53337,0.9200406 -3.5267,1.3800402 -5.98,1.38 l -1.265,0 0,26.1050001 c 1.7633,-0.996652 3.41163,-2.72165 4.945,-5.175 l 0.46,1.61 4.025,3.91 c 0.68996,1.993345 1.22662,3.68001 1.61,5.06 0.38329,1.303341 0.57496,2.300006 0.575,2.99 -4e-5,1.91667 -0.46004,3.641669 -1.38,5.175 -0.84338,1.456666 -1.99337,2.683331 -3.45,3.68 -1.4567,1.073329 -3.10504,1.878328 -4.945,2.415 -1.84003,0.613327 -3.71836,0.919993 -5.635,0.92 -1.99336,-7e-6 -3.94836,-0.345006 -5.865,-1.035 -1.91669,-0.613338 -3.56502,-1.610004 -4.945,-2.99 l -2.53,-2.53 c -1.84001,-1.073332 -3.33501,-2.606664 -4.485,-4.6 -1.15001,-2.069993 -1.72501,-4.638324 -1.725,-7.705 l 0,-27.8300001 -2.415,0 -4.255,-4.255 -0.69,0 0,-17.0199999 7.36,0 0,-7.36 m 2.3,0 0,9.66 -7.36,0 0,12.42 7.36,0 0,34.385 c -10e-6,3.220009 0.76665,5.78834 2.3,7.705 1.53332,1.840003 3.37332,3.143335 5.52,3.91 2.22331,0.69 4.56164,0.881666 7.015,0.575 2.52997,-0.383333 4.71497,-1.149999 6.555,-2.3 1.91663,-1.226663 3.29663,-2.798328 4.14,-4.715 0.91996,-1.993324 0.88163,-4.254989 -0.115,-6.785 -0.5367,0.920013 -1.41837,1.648346 -2.645,2.185 -1.2267,0.536678 -2.45337,0.843344 -3.68,0.92 -1.2267,1.1e-5 -2.30003,-0.229989 -3.22,-0.69 -0.92003,-0.536655 -1.38003,-1.41832 -1.38,-2.645 l 0,-32.545 3.22,0 c 2.06997,4.7e-5 3.75663,-0.344953 5.06,-1.035 1.3033,-0.766618 2.3383,-1.724951 3.105,-2.875 0.76663,-1.226615 1.26496,-2.56828 1.495,-4.025 0.30663,-1.456611 0.45996,-2.951609 0.46,-4.485 l -13.34,0 0,-21.39 c -1.84002,8e-5 -3.64169,0.23008 -5.405,0.69 -1.76335,0.383413 -3.33502,1.035079 -4.715,1.955 -1.30335,0.920077 -2.37668,2.146742 -3.22,3.68 -0.76668,1.456739 -1.15001,3.258404 -1.15,5.405"
         style="font-size:115px"
         id="path3006"
         inkscape:connector-curvature="0" />
      <path
         d="m 369.57812,-6.5733321 c 1.53331,0.8433758 3.14331,1.4183752 4.83,1.725 1.68664,0.2300413 3.06664,0.2683746 4.14001,0.115 l -0.115,0 c 2.37662,-0.5366247 4.29329,-1.9166233 5.75,-4.14 1.45662,-2.2999519 2.18495,-4.7916159 2.185,-7.4749999 -5e-5,-1.763279 -0.42172,-3.488277 -1.26501,-5.175 -0.69004,-0.229942 -1.41837,-0.421608 -2.185,-0.575 -0.69004,-0.153274 -1.4567,-0.229941 -2.29999,-0.23 l -11.04001,0 0,15.7549999 m 8.51,-39.5599999 c 5.51996,8.3e-5 10.15829,0.996748 13.915,2.99 3.83328,1.993411 6.86161,4.600075 9.085,7.82 l 1.72501,1.61 c 2.68326,2.683401 4.6766,5.865064 5.98,9.545 1.30326,3.680057 1.95493,7.513387 1.955,11.5 -7e-5,2.9133797 -0.38341,5.8267101 -1.15001,8.7399999 -0.69006,2.9133711 -1.72506,5.6733683 -3.10499,8.28 -1.38007,2.6066964 -3.10507,4.9833607 -5.17501,7.1300001 -2.07005,2.070023 -4.40838,3.756688 -7.01499,5.06 1.60994,1.993351 3.33494,4.178349 5.17499,6.555 1.83994,2.300011 3.67994,4.638342 5.52001,7.015 1.83993,2.300004 3.64159,4.561669 5.40499,6.785 1.83993,2.299997 3.48827,4.408329 4.945,6.325 l -23.575,0 -4.255,-4.255 -0.45999,0 -17.48001,-22.08 0,26.335 -19.20499,0 -4.255,-4.255 -0.69,0 0,-68.655 c -1e-5,-4.906595 1.14999,-8.854925 3.44999,-11.845 2.29999,-3.066585 6.17166,-4.599917 11.61501,-4.6 l 17.59499,0 m -17.59499,2.3 c -4.67669,8e-5 -7.97335,1.303412 -9.89001,3.91 -1.91667,2.606741 -2.875,6.018404 -2.875,10.235 l 0,66.355 15.295,0 0,-65.55 12.995,0 c 2.9133,6.5e-5 5.28996,0.613398 7.13,1.84 1.91663,1.150062 3.29663,2.645061 4.14,4.485 0.91996,1.840057 1.37996,3.871722 1.38001,6.095 -5e-5,2.146718 -0.38339,4.216716 -1.15001,6.21 -0.69004,1.9167116 -1.80171,3.6033766 -3.33499,5.0599999 -1.45671,1.4567071 -3.22005,2.3767062 -5.29001,2.76 -0.92003,0.1533723 -2.0317,0.2300389 -3.33499,0.23 -1.30337,3.89e-5 -2.64504,-0.114961 -4.02501,-0.345 -1.30336,-0.2299605 -2.49169,-0.5749602 -3.565,-1.035 -1.07335,-0.4599593 -1.80169,-1.1116253 -2.185,-1.955 -1.30335,1.916707 -2.07002,4.1783714 -2.3,6.785 -0.15335,2.6066995 0.61332,4.9833638 2.3,7.13 l 22.31,28.2900001 18.745,0 -20.125,-25.53 c 3.98662,-1.5333063 7.32162,-3.9483039 10.005,-7.2450001 2.75995,-3.29663056 4.75328,-6.9766269 5.98,-11.04 1.22661,-4.0632859 1.68661,-8.2416149 1.38,-12.5349999 -0.23006,-4.369939 -1.34172,-8.318269 -3.33499,-11.845 -1.9934,-3.603262 -4.86839,-6.554925 -8.625,-8.855 -3.75672,-2.299921 -8.43338,-3.44992 -14.03001,-3.45 l -17.59499,0"
         style="font-size:115px"
         id="path3008"
         inkscape:connector-curvature="0" />
      <path
         d="m 440.16117,14.241668 c 0.30664,2.223353 0.99664,4.331685 2.07,6.325 1.37997,0.920015 2.87497,1.495015 4.485,1.725 1.3033,0.230014 2.6833,0.306681 4.14,0.23 1.45663,-0.153319 2.9133,-0.536652 4.37,-1.15 -2.68337,-0.153318 -5.1367,-0.613317 -7.36,-1.38 -2.1467,-0.766649 -3.87169,-1.878315 -5.175,-3.335 l -2.53,-2.415 m 14.72,-19.8950001 c -4.29337,0.2300421 -7.8967,2.031707 -10.81,5.40500004 0.91997,0.30670327 1.83997,0.49836975 2.76,0.575 0.91997,0.0767029 1.80163,0.11503622 2.645,0.115 1.83996,3.622e-5 3.67996,-0.11496366 5.52,-0.345 2.14663,-0.15329661 3.67996,-0.53662956 4.6,-1.15000004 0.91996,-0.6899616 1.37995,-1.4566275 1.38,-2.3 -5e-5,-0.2299597 -0.0384,-0.4216262 -0.115,-0.575 -5e-5,-0.2299591 -0.0384,-0.4599589 -0.115,-0.69 -0.84338,-0.3832916 -1.76338,-0.6516247 -2.76,-0.805 -0.99671,-0.2299576 -2.03171,-0.3066242 -3.105,-0.23 m -25.185,39.7900001 c -4.37001,-3.219994 -7.62834,-7.24499 -9.775,-12.075 -2.14667,-4.829981 -3.22,-9.889976 -3.22,-15.1800001 0,-4.2932992 0.805,-8.548295 2.415,-12.765 1.68666,-4.2166199 3.98666,-7.9349499 6.9,-11.1549999 3.29665,-3.449943 7.12998,-5.941607 11.5,-7.475 4.44664,-1.533271 8.93164,-2.299937 13.455,-2.3 5.59663,6.3e-5 10.38829,1.035062 14.375,3.105 3.98661,2.070058 7.09161,4.676722 9.315,7.82 l 1.84,1.84 c 2.1466,2.146715 3.7566,4.5233795 4.83,7.1299999 1.07327,2.6067077 1.60993,5.251705 1.61,7.935 -7e-5,3.8333652 -1.11173,7.4366949 -3.335,10.8100001 -2.14673,3.296688 -5.52006,5.826686 -10.12,7.59 l 9.43,4.485 -0.345,0.46 4.37,4.255 c -3.75673,5.673336 -8.01173,9.736665 -12.765,12.19 -4.75338,2.453327 -10.04338,3.679992 -15.87,3.68 -5.06003,-8e-6 -9.54503,-0.84334 -13.455,-2.53 -3.83335,-1.610004 -7.09168,-3.756668 -9.775,-6.44 l -1.38,-1.38 m 31.625,-20.47 c 4.06328,-0.996643 7.28328,-2.606641 9.66,-4.8300001 2.37661,-2.2999698 3.94827,-4.8683006 4.715,-7.705 0.84327,-2.8366283 0.91994,-5.7499587 0.23,-8.74 -0.69006,-3.0666189 -2.10839,-5.8266169 -4.255,-8.2799999 -2.14672,-2.529945 -4.94505,-4.599943 -8.395,-6.21 -3.45004,-1.60994 -7.55171,-2.414939 -12.305,-2.415 -4.29336,6.1e-5 -8.51003,0.69006 -12.65,2.07 -4.06335,1.380058 -7.62835,3.718389 -10.695,7.015 -2.83668,2.913382 -4.98334,6.2867124 -6.44,10.1199999 -1.38,3.7567049 -2.10834,7.6283677 -2.185,11.615 -0.0767,3.9100261 0.49833,7.7816891 1.725,11.6150001 1.30333,3.756682 3.21999,7.130012 5.75,10.12 2.60665,2.990006 5.82665,5.405003 9.66,7.245 3.90998,1.763333 8.4333,2.644999 13.57,2.645 5.51996,-1e-6 10.42662,-0.996667 14.72,-2.99 4.29328,-2.069996 8.01161,-5.443326 11.155,-10.12 l -12.075,-5.865 c -2.37671,2.453349 -5.09838,4.140014 -8.165,5.06 -3.0667,0.920012 -6.0567,1.111678 -8.97,0.575 -2.07003,-0.306654 -3.91003,-1.034987 -5.52,-2.185 -1.61002,-1.226651 -2.99002,-2.683316 -4.14,-4.37 -1.15002,-1.763313 -2.03169,-3.679978 -2.645,-5.75 -0.53668,-2.069974 -0.76668,-4.1783048 -0.69,-6.3250001 0.0766,-2.6066333 0.57498,-4.98329761 1.495,-7.13 0.91998,-2.1466266 2.14665,-4.0249581 3.68,-5.635 1.53331,-1.6099549 3.29664,-2.8749536 5.29,-3.7949999 1.9933,-0.919952 4.10163,-1.456618 6.325,-1.61 2.06996,-0.07662 3.94829,0.191715 5.635,0.805 1.76329,0.613381 3.21996,1.4183799 4.37,2.4149999 1.22662,0.9967114 2.10829,2.1083769 2.645,3.335 0.53662,1.2267078 0.65162,2.4150399 0.345,3.565 -0.30671,1.0733711 -1.11171,2.03170343 -2.415,2.87500004 -1.22671,0.84336836 -3.06671,1.38003446 -5.52,1.60999996 -2.91337,0.3067007 -5.9417,0.3833673 -9.085,0.23 -3.14336,-0.2299657 -5.90336,-1.3416312 -8.28,-3.33499996 -1.15002,2.83670116 -1.38002,5.40503196 -0.69,7.70499996 0.76664,2.2233608 2.22331,4.0250261 4.37,5.4050001 2.22331,1.303356 5.02164,2.108355 8.395,2.415 3.44996,0.306688 7.24496,-0.07664 11.385,-1.15"
         style="font-size:115px"
         id="path3010"
         inkscape:connector-curvature="0" />
      <path
         d="m 494.9982,8.6066679 c -2.68334,-1.9933032 -4.83001,-4.2166344 -6.44,-6.67 -1.61,-2.5299627 -2.415,-5.6349596 -2.415,-9.315 0,-3.0666199 0.61333,-5.8266169 1.84,-8.2799999 1.30333,-2.453279 3.02833,-4.523277 5.175,-6.21 2.14666,-1.686607 4.59999,-2.913272 7.36,-3.68 2.75998,-0.84327 5.59665,-1.18827 8.51,-1.035 3.98664,0.230063 7.20664,1.035062 9.66,2.415 2.4533,1.380059 4.2933,3.066724 5.52,5.06 l 2.53,2.415 c 1.22662,1.226719 2.10829,2.568384 2.645,4.025 0.61329,1.380048 0.91995,2.7983798 0.92,4.2549999 -5e-5,2.2233762 -0.61338,4.2550409 -1.84,6.095 -1.15004,1.84003718 -2.79837,3.2200358 -4.945,4.14 l -2.645,-1.14999996 -4.14,-4.02500004 c -1.07336,-0.5366261 -2.18503,-0.8432924 -3.335,-0.92 -1.15003,-0.076626 -2.07003,4.1e-5 -2.76,0.23 l -0.92,0.46 1.38,0.575 c 1.37997,0.6133724 2.7983,1.3033717 4.255,2.07000004 1.5333,0.7667035 2.98997,1.61003599 4.37,2.52999996 1.45663,0.9200342 2.83663,1.9550332 4.14,3.105 1.30329,1.1500309 2.45329,2.4533629 3.45,3.91 l 1.725,1.6100001 c 1.68662,1.686691 3.06662,3.641689 4.14,5.865 1.07328,2.223352 1.60995,4.868349 1.61,7.935 -5e-5,3.220009 -0.65172,6.095006 -1.955,8.625 -1.22671,2.530001 -2.91338,4.638333 -5.06,6.325 -2.14671,1.763329 -4.60004,3.104995 -7.36,4.025 -2.76003,0.919993 -5.63503,1.379992 -8.625,1.38 -3.45002,-8e-6 -6.97669,-0.72834 -10.58,-2.185 -3.60335,-1.456671 -6.90001,-3.680002 -9.89,-6.67 l -1.38,-1.265 c -1.22667,-0.919997 -2.415,-1.916662 -3.565,-2.99 -1.07333,-1.149994 -2.10833,-2.414992 -3.105,-3.795 l 12.305,-13.225 c 2.45332,2.836686 4.75332,4.868351 6.9,6.095 2.14665,1.150015 3.98664,1.725015 5.52,1.725 1.14998,1.5e-5 2.10831,-0.191652 2.875,-0.575 0.76664,-0.383318 1.14997,-0.881651 1.15,-1.495 l 0,-0.115 c -0.23003,1.7e-5 -0.38336,-0.114983 -0.46,-0.345 -2.83669,-1.379982 -5.55835,-2.798313 -8.165,-4.255 -2.60668,-1.53331 -4.90668,-3.296642 -6.9,-5.2900001 l -1.495,-1.38 m 23.115,-13.225 c 2.2233,-0.9199578 3.79496,-2.4149563 4.715,-4.485 0.99663,-2.0699519 1.18829,-4.1782829 0.575,-6.3249999 -0.5367,-2.223279 -1.99337,-4.178277 -4.37,-5.865 -2.30003,-1.763274 -5.67336,-2.759939 -10.12,-2.99 -2.60669,-0.07661 -5.13669,0.230061 -7.59,0.92 -2.45335,0.690059 -4.63835,1.763392 -6.555,3.22 -1.91667,1.456722 -3.45001,3.258387 -4.6,5.405 -1.15,2.146716 -1.725,4.600047 -1.725,7.3599999 0,2.6833747 0.53666,5.0217057 1.61,7.01500004 1.14999,1.99336836 2.60666,3.79503326 4.37,5.40499996 1.83999,1.6100301 3.90999,3.0666953 6.21,4.37 2.37665,1.3033591 4.79165,2.5683581 7.245,3.7950001 2.60664,1.303355 4.36997,2.645021 5.29,4.025 0.91997,1.303351 1.22664,2.530017 0.92,3.68 -0.23003,1.073348 -0.95836,1.955014 -2.185,2.645 -1.22669,0.613346 -2.76002,0.881679 -4.6,0.805 -1.76335,-0.153321 -3.71835,-0.72832 -5.865,-1.725 -2.07001,-0.996652 -4.06335,-2.644983 -5.98,-4.945 l -9.2,9.89 c 2.14666,2.836673 4.67666,5.098337 7.59,6.785 2.91332,1.610001 5.90332,2.645 8.97,3.105 3.14331,0.459999 6.20998,0.383332 9.2,-0.23 3.06664,-0.536667 5.7883,-1.571666 8.165,-3.105 2.4533,-1.533329 4.40829,-3.526661 5.865,-5.98 1.45662,-2.529989 2.18496,-5.443319 2.185,-8.74 -4e-5,-2.836647 -0.53671,-5.289978 -1.61,-7.36 -0.99671,-2.0699734 -2.30004,-3.8716382 -3.91,-5.4050001 -1.61004,-1.5333017 -3.4117,-2.8366338 -5.405,-3.91 -1.9167,-1.1499649 -3.79503,-2.14663056 -5.635,-2.98999996 -1.84003,-0.91996214 -3.52669,-1.72496134 -5.06,-2.41500004 -1.45669,-0.7666265 -2.53002,-1.5332924 -3.22,-2.3 -0.84335,-0.996624 -1.07335,-2.031623 -0.69,-3.105 0.45998,-1.1499541 1.37998,-1.9549529 2.76,-2.4149999 0.76665,-0.306619 1.72498,-0.421619 2.875,-0.345 1.22664,4.7e-5 2.45331,0.230047 3.68,0.69 1.3033,0.4600463 2.49164,1.1500456 3.565,2.0699999 1.0733,0.8433773 1.91663,1.9933761 2.53,3.45"
         style="font-size:115px"
         id="path3012"
         inkscape:connector-curvature="0" />
      <path
         d="m 556.90953,-24.398332 4.255,4.255 0,30.475 c -3e-5,1.763358 -3e-5,3.603356 0,5.52 0.0766,1.916686 0.42164,3.71835 1.035,5.405 1.14997,0.383348 2.3383,0.575015 3.565,0.575 1.91663,1.5e-5 3.56496,-0.459985 4.945,-1.38 0.99663,-0.689983 1.72496,-1.533316 2.185,-2.53 0.53663,-0.996647 0.91996,-2.069979 1.15,-3.22 0.22996,-1.226644 0.34496,-2.453309 0.345,-3.68 0.0766,-1.2266399 0.11496,-2.414972 0.115,-3.5650001 l 0,-18.3999999 c -4e-5,-2.453283 0.45996,-4.599948 1.38,-6.44 0.91996,-1.839944 2.22329,-3.334943 3.91,-4.485 1.76329,-1.226607 3.83328,-2.108273 6.21,-2.645 2.37661,-0.613272 5.02161,-0.881605 7.935,-0.805 l 0,0.69 4.255,4.255 0,27.2549999 c 0.0766,5.3666911 -0.11506,9.8900201 -0.575,13.5700001 -0.46006,3.680012 -1.11173,6.516676 -1.955,8.51 -2.37673,5.520002 -5.78839,9.468332 -10.235,11.845 -4.37005,2.453327 -9.46838,3.679992 -15.295,3.68 -4.06337,-8e-6 -7.7817,-0.575007 -11.155,-1.725 -3.37336,-1.150005 -6.28669,-2.95167 -8.74,-5.405 l -2.185,-2.185 c -4.14001,-2.989996 -7.13001,-7.321658 -8.97,-12.995 -0.61334,-1.839984 -1.07334,-4.331648 -1.38,-7.475 -0.30667,-3.219975 -0.46,-6.6699714 -0.46,-10.3500001 l 0,-29.4399999 19.665,0 0,0.69 m -2.3,1.61 -15.065,0 0,27.1399999 c -10e-6,3.6033621 0.15333,6.9383591 0.46,10.0050001 0.30666,2.990019 0.72833,5.366684 1.265,7.13 1.83999,5.750009 4.86832,9.928339 9.085,12.535 4.21665,2.606667 9.27664,3.909999 15.18,3.91 5.4433,-1e-6 10.19662,-1.111667 14.26,-3.335 4.06328,-2.223329 7.20661,-5.903325 9.43,-11.04 0.84328,-1.993318 1.45661,-4.714982 1.84,-8.165 0.45994,-3.526642 0.65161,-7.8966376 0.575,-13.1100001 l 0,-25.2999999 c -4.44672,-0.153274 -8.05005,0.805059 -10.81,2.875 -2.76004,1.993388 -4.10171,5.060052 -4.025,9.2 l 0,17.1349999 c -4e-5,1.3800291 -4e-5,2.8366943 0,4.3700001 -4e-5,1.533358 -0.15338,3.028356 -0.46,4.485 -0.23004,1.456687 -0.69004,2.836685 -1.38,4.14 -0.61337,1.226683 -1.57171,2.261682 -2.875,3.105 -0.92004,0.613347 -1.9167,1.073347 -2.99,1.38 -1.07337,0.306679 -2.18503,0.460012 -3.335,0.46 -1.15003,1.2e-5 -2.30003,-0.153321 -3.45,-0.46 -1.07336,-0.306653 -2.03169,-0.766653 -2.875,-1.38 -1.30336,-0.919985 -2.30002,-2.03165 -2.99,-3.335 -0.61336,-1.303314 -1.07335,-2.683313 -1.38,-4.14 -0.23002,-1.53331 -0.38335,-3.066642 -0.46,-4.6 -2e-5,-1.609972 -2e-5,-3.1049705 0,-4.4850001 l 0,-28.5199999"
         style="font-size:115px"
         id="path3014"
         inkscape:connector-curvature="0" />
      <path
         d="m 622.36969,-45.443332 4.255,4.255 0,84.41 -18.4,0 -4.255,-4.255 -0.69,0 0,-71.07 c -10e-6,-4.369927 1.68666,-7.819923 5.06,-10.35 3.44998,-2.529918 8.12665,-3.756584 14.03,-3.68 l 0,0.69 m -2.3,1.61 c -4.44669,-0.07659 -7.97335,0.958413 -10.58,3.105 -2.60668,2.070075 -3.91001,4.945072 -3.91,8.625 l 0,68.77 14.49,0 0,-80.5"
         style="font-size:115px"
         id="path3016"
         inkscape:connector-curvature="0" />
      <path
         d="m 637.79047,-32.103332 c -10e-6,-2.529929 0.53665,-4.676593 1.61,-6.44 1.07332,-1.839923 2.49165,-3.296588 4.255,-4.37 1.76331,-1.149919 3.79498,-1.954919 6.095,-2.415 2.29997,-0.536584 4.67664,-0.804917 7.13,-0.805 l 0,0.69 4.255,4.255 0,16.445 9.085,0 0,0.69 4.255,4.255 c -5e-5,1.993388 -0.19172,3.948386 -0.575,5.865 -0.30671,1.916715 -0.92005,3.680047 -1.84,5.2899999 -0.84338,1.5333771 -2.07004,2.7983759 -3.68,3.795 -1.53337,0.9200406 -3.52671,1.3800402 -5.98,1.38 l -1.265,0 0,26.1050001 c 1.7633,-0.996652 3.41163,-2.72165 4.945,-5.175 l 0.46,1.61 4.025,3.91 c 0.68995,1.993345 1.22662,3.68001 1.61,5.06 0.38329,1.303341 0.57495,2.300006 0.575,2.99 -5e-5,1.91667 -0.46005,3.641669 -1.38,5.175 -0.84338,1.456666 -1.99338,2.683331 -3.45,3.68 -1.45671,1.073329 -3.10504,1.878328 -4.945,2.415 -1.84004,0.613327 -3.71837,0.919993 -5.635,0.92 -1.99336,-7e-6 -3.94836,-0.345006 -5.865,-1.035 -1.91669,-0.613338 -3.56502,-1.610004 -4.945,-2.99 l -2.53,-2.53 c -1.84002,-1.073332 -3.33501,-2.606664 -4.485,-4.6 -1.15001,-2.069993 -1.72501,-4.638324 -1.725,-7.705 l 0,-27.8300001 -2.415,0 -4.255,-4.255 -0.69,0 0,-17.0199999 7.36,0 0,-7.36 m 2.3,0 0,9.66 -7.36,0 0,12.42 7.36,0 0,34.385 c -10e-6,3.220009 0.76665,5.78834 2.3,7.705 1.53332,1.840003 3.37331,3.143335 5.52,3.91 2.22331,0.69 4.56164,0.881666 7.015,0.575 2.52997,-0.383333 4.71497,-1.149999 6.555,-2.3 1.91663,-1.226663 3.29663,-2.798328 4.14,-4.715 0.91996,-1.993324 0.88163,-4.254989 -0.115,-6.785 -0.53671,0.920013 -1.41837,1.648346 -2.645,2.185 -1.2267,0.536678 -2.45337,0.843344 -3.68,0.92 -1.2267,1.1e-5 -2.30003,-0.229989 -3.22,-0.69 -0.92003,-0.536655 -1.38003,-1.41832 -1.38,-2.645 l 0,-32.545 3.22,0 c 2.06997,4.7e-5 3.75663,-0.344953 5.06,-1.035 1.30329,-0.766618 2.33829,-1.724951 3.105,-2.875 0.76663,-1.226615 1.26496,-2.56828 1.495,-4.025 0.30662,-1.456611 0.45996,-2.951609 0.46,-4.485 l -13.34,0 0,-21.39 c -1.84003,8e-5 -3.64169,0.23008 -5.405,0.69 -1.76336,0.383413 -3.33502,1.035079 -4.715,1.955 -1.30335,0.920077 -2.37668,2.146742 -3.22,3.68 -0.76668,1.456739 -1.15001,3.258404 -1.15,5.405"
         style="font-size:115px"
         id="path3018"
         inkscape:connector-curvature="0" />
      <path
         d="m 685.69156,8.6066679 c -2.68334,-1.9933032 -4.83001,-4.2166344 -6.44,-6.67 -1.61,-2.5299627 -2.415,-5.6349596 -2.415,-9.315 0,-3.0666199 0.61333,-5.8266169 1.84,-8.2799999 1.30333,-2.453279 3.02833,-4.523277 5.175,-6.21 2.14666,-1.686607 4.59999,-2.913272 7.36,-3.68 2.75998,-0.84327 5.59664,-1.18827 8.51,-1.035 3.98664,0.230063 7.20663,1.035062 9.66,2.415 2.4533,1.380059 4.29329,3.066724 5.52,5.06 l 2.53,2.415 c 1.22662,1.226719 2.10829,2.568384 2.645,4.025 0.61329,1.380048 0.91995,2.7983798 0.92,4.2549999 -5e-5,2.2233762 -0.61338,4.2550409 -1.84,6.095 -1.15004,1.84003718 -2.79837,3.2200358 -4.945,4.14 l -2.645,-1.14999996 -4.14,-4.02500004 c -1.07336,-0.5366261 -2.18503,-0.8432924 -3.335,-0.92 -1.15003,-0.076626 -2.07003,4.1e-5 -2.76,0.23 l -0.92,0.46 1.38,0.575 c 1.37997,0.6133724 2.7983,1.3033717 4.255,2.07000004 1.5333,0.7667035 2.98997,1.61003599 4.37,2.52999996 1.45663,0.9200342 2.83663,1.9550332 4.14,3.105 1.30329,1.1500309 2.45329,2.4533629 3.45,3.91 l 1.725,1.6100001 c 1.68662,1.686691 3.06662,3.641689 4.14,5.865 1.07328,2.223352 1.60995,4.868349 1.61,7.935 -5e-5,3.220009 -0.65172,6.095006 -1.955,8.625 -1.22671,2.530001 -2.91338,4.638333 -5.06,6.325 -2.14671,1.763329 -4.60004,3.104995 -7.36,4.025 -2.76003,0.919993 -5.63503,1.379992 -8.625,1.38 -3.45002,-8e-6 -6.97669,-0.72834 -10.58,-2.185 -3.60335,-1.456671 -6.90001,-3.680002 -9.89,-6.67 l -1.38,-1.265 c -1.22667,-0.919997 -2.415,-1.916662 -3.565,-2.99 -1.07333,-1.149994 -2.10833,-2.414992 -3.105,-3.795 l 12.305,-13.225 c 2.45332,2.836686 4.75332,4.868351 6.9,6.095 2.14665,1.150015 3.98664,1.725015 5.52,1.725 1.14998,1.5e-5 2.10831,-0.191652 2.875,-0.575 0.76664,-0.383318 1.14997,-0.881651 1.15,-1.495 l 0,-0.115 c -0.23003,1.7e-5 -0.38336,-0.114983 -0.46,-0.345 -2.83669,-1.379982 -5.55836,-2.798313 -8.165,-4.255 -2.60668,-1.53331 -4.90668,-3.296642 -6.9,-5.2900001 l -1.495,-1.38 m 23.115,-13.225 c 2.2233,-0.9199578 3.79496,-2.4149563 4.715,-4.485 0.99663,-2.0699519 1.18829,-4.1782829 0.575,-6.3249999 -0.53671,-2.223279 -1.99337,-4.178277 -4.37,-5.865 -2.30003,-1.763274 -5.67336,-2.759939 -10.12,-2.99 -2.60669,-0.07661 -5.13669,0.230061 -7.59,0.92 -2.45335,0.690059 -4.63835,1.763392 -6.555,3.22 -1.91668,1.456722 -3.45001,3.258387 -4.6,5.405 -1.15,2.146716 -1.725,4.600047 -1.725,7.3599999 0,2.6833747 0.53666,5.0217057 1.61,7.01500004 1.14999,1.99336836 2.60666,3.79503326 4.37,5.40499996 1.83999,1.6100301 3.90999,3.0666953 6.21,4.37 2.37665,1.3033591 4.79165,2.5683581 7.245,3.7950001 2.60664,1.303355 4.36997,2.645021 5.29,4.025 0.91997,1.303351 1.22664,2.530017 0.92,3.68 -0.23003,1.073348 -0.95836,1.955014 -2.185,2.645 -1.22669,0.613346 -2.76002,0.881679 -4.6,0.805 -1.76335,-0.153321 -3.71835,-0.72832 -5.865,-1.725 -2.07002,-0.996652 -4.06335,-2.644983 -5.98,-4.945 l -9.2,9.89 c 2.14666,2.836673 4.67666,5.098337 7.59,6.785 2.91332,1.610001 5.90332,2.645 8.97,3.105 3.14331,0.459999 6.20998,0.383332 9.2,-0.23 3.06664,-0.536667 5.7883,-1.571666 8.165,-3.105 2.45329,-1.533329 4.40829,-3.526661 5.865,-5.98 1.45662,-2.529989 2.18496,-5.443319 2.185,-8.74 -4e-5,-2.836647 -0.53671,-5.289978 -1.61,-7.36 -0.99671,-2.0699734 -2.30004,-3.8716382 -3.91,-5.4050001 -1.61004,-1.5333017 -3.4117,-2.8366338 -5.405,-3.91 -1.9167,-1.1499649 -3.79503,-2.14663056 -5.635,-2.98999996 -1.84003,-0.91996214 -3.52669,-1.72496134 -5.06,-2.41500004 -1.45669,-0.7666265 -2.53002,-1.5332924 -3.22,-2.3 -0.84335,-0.996624 -1.07335,-2.031623 -0.69,-3.105 0.45998,-1.1499541 1.37998,-1.9549529 2.76,-2.4149999 0.76664,-0.306619 1.72498,-0.421619 2.875,-0.345 1.22664,4.7e-5 2.45331,0.230047 3.68,0.69 1.3033,0.4600463 2.49164,1.1500456 3.565,2.0699999 1.0733,0.8433773 1.91663,1.9933761 2.53,3.45"
         style="font-size:115px"
         id="path3020"
         inkscape:connector-curvature="0" />
    </g>
  </g>
  <g
     inkscape:groupmode="layer"
     id="layer5"
     inkscape:label="touchups">
    <path
       style="fill:none;stroke:#34495e;stroke-width:1px;stroke-linecap:butt;stroke-linejoin:miter;stroke-opacity:1"
       d="m 41.680326,27.306325 c 0.05638,-0.462702 -0.538299,-0.153691 -0.692748,-0.230916 -0.03066,-0.01533 -0.331047,-0.315719 -0.346374,-0.346374 -0.01721,-0.03442 -0.03651,-0.103288 0,-0.115458 0.37748,-0.125827 0.284063,0.04215 0.57729,0.115458 0.07467,0.01867 0.182832,-0.06011 0.230916,0 0.12947,0.161838 0.06227,0.456826 0.230916,0.57729 0.156586,0.111847 0.388596,-0.03774 0.577289,0 0.07548,0.01509 -0.05443,0.176488 0,0.230916 0.02721,0.02721 0.08825,-0.02721 0.115458,0 0.06085,0.06085 0.08825,0.149275 0.115458,0.230916 0.02434,0.07302 0,0.153944 0,0.230916 0,0.19243 0,0.384859 0,0.577289 0,0.069 0.02721,0.230916 -0.115458,0.230916 -0.24758,0 -0.356436,-0.330088 -0.461832,-0.461832 -0.068,-0.085 -0.207302,-0.124653 -0.230915,-0.230915 -0.05844,-0.262987 0.08519,-0.552629 0,-0.808206 -0.07793,-0.233785 -0.304071,-0.387977 -0.461832,-0.57729 -0.03484,-0.04181 -0.06678,-0.09112 -0.115458,-0.115458 -0.03442,-0.01721 -0.103288,-0.03651 -0.115458,0 -0.223283,0.669847 0.396006,0.148721 0.692748,0.692748 0,1.210976 -0.170786,0.600535 0.230915,1.270037 0.149881,0.249802 0.115458,0.189545 0.115458,0.461832 0,0.03849 -0.02721,0.142672 0,0.115458 0.201516,-0.201515 0.115458,-0.59546 0.115458,-0.808206 0,-0.115457 0.04689,-0.240867 0,-0.346373 -0.112714,-0.253607 -0.412186,-0.419698 -0.461831,-0.692748 -0.03708,-0.203911 0.165376,-0.380672 0.230915,-0.57729 0.01217,-0.03651 -0.03849,-0.115458 0,-0.115458 0.03849,0 0.01217,0.07895 0,0.115458 -0.06554,0.196618 -0.02366,0.57729 -0.230915,0.57729 -0.19243,0 0.05286,-0.392264 0,-0.57729 -0.0299,-0.104667 -0.182235,-0.133553 -0.230916,-0.230916 -0.03442,-0.06885 0.05443,-0.176488 0,-0.230916 -0.03849,-0.03849 -0.09825,0.06382 -0.115458,0.115458 -0.10792,0.323759 0.32755,0.716602 0.346374,0.923664 0.01876,0.206402 -0.03849,0.654262 -0.230916,0.57729 -0.19243,-0.07697 0.210293,-0.371065 0.230916,-0.57729 0.01953,-0.195267 -0.0832,-0.383719 -0.115458,-0.57729 -0.0063,-0.03796 -0.0075,-0.153197 0,-0.115458 0.04591,0.229555 0.115458,0.926849 0.115458,0.692748 -0.03849,-0.269402 -0.07697,-0.538804 -0.115458,-0.808206 -0.03849,-0.03849 -0.09825,-0.06382 -0.115458,-0.115458 -0.218088,-0.654262 0.109043,-0.115458 0,-0.115458 -0.03849,0 0,-0.07697 0,-0.115458"
       id="path3942"
       inkscape:connector-curvature="0" />
    <path
       style="fill:none;stroke:#34495e;stroke-width:1px;stroke-linecap:butt;stroke-linejoin:miter;stroke-opacity:1"
       d="m 41.680326,30.654606 c -0.153944,0 -0.461832,0.153944 -0.461832,0 0,-0.153944 0.615775,0 0.461832,0 -0.269402,0 -0.538804,0 -0.808206,0 -0.113809,0 0.117107,0 0.230916,0 0.19243,0 0.38486,0 0.57729,0 0.346373,0 0.692747,0 1.039121,0"
       id="path3944"
       inkscape:connector-curvature="0" />
    <path
       style="fill:#34495e;stroke:#34495e;stroke-width:1px;stroke-linecap:butt;stroke-linejoin:miter;stroke-opacity:1;fill-opacity:1"
       d="M 30.019071,57.09448 27.24808,64.021958"
       id="path3946"
       inkscape:connector-curvature="0" />
    <path
       style="fill:none;stroke:#2c3e50;stroke-width:1px;stroke-linecap:butt;stroke-linejoin:miter;stroke-opacity:1"
       d="m 196.09483,34.472081 -0.038,5.77308"
       id="path3950"
       inkscape:connector-curvature="0" />
    <path
       style="fill:none;stroke:#2c3e50;stroke-width:1px;stroke-linecap:butt;stroke-linejoin:miter;stroke-opacity:1"
       d="m 195.29724,34.586023 0.60769,1.975001"
       id="path3952"
       inkscape:connector-curvature="0" />
    <path
       style="fill:none;stroke:#2c3e50;stroke-width:1px;stroke-linecap:butt;stroke-linejoin:miter;stroke-opacity:1"
       d="m 196.05685,38.536025 -0.94952,2.012982"
       id="path3954"
       inkscape:connector-curvature="0" />
    <path
       style="fill:none;stroke:#2c3e50;stroke-width:2.29999995;stroke-linecap:butt;stroke-linejoin:miter;stroke-miterlimit:4;stroke-opacity:1;stroke-dasharray:none"
       d="m 204.14676,3.1379263 c 1.53476,0.4971255 3.45345,1.6051391 5.08943,3.1144251"
       id="path3960"
       inkscape:connector-curvature="0"
       sodipodi:nodetypes="cc" />
    <path
       style="fill:none;stroke:#2c3e50;stroke-width:1.39999998;stroke-linecap:round;stroke-linejoin:miter;stroke-miterlimit:4;stroke-opacity:1;stroke-dasharray:none"
       d="m 195.52512,48.828821 0.49375,3.87404"
       id="path3962"
       inkscape:connector-curvature="0"
       sodipodi:nodetypes="cc" />
  </g>
  <g
     inkscape:groupmode="layer"
     id="layer3"
     inkscape:label="Colors">
    <path
       style="fill:#2980b9;fill-opacity:1;stroke:#34495e;stroke-width:1.81918763999999999;stroke-linejoin:miter;stroke-miterlimit:4;stroke-opacity:1;stroke-dasharray:none"
       d="m 3.9504491,82.612417 c 0,-0.71183 25.8270459,-67.465613 27.4147389,-70.857408 1.620442,-3.4617596 5.827321,-7.2164337 9.061247,-8.0872396 2.329961,-0.6273934 8.011277,-0.5633295 8.672399,0.097792 0.136633,0.1366328 7.067734,17.9814126 15.402446,39.6550656 l 15.154028,39.406642 -7.311182,0.170919 c -4.021151,0.094 -7.43351,0.04857 -7.583023,-0.100923 -0.149513,-0.149513 -1.586597,-3.773838 -3.19352,-8.054065 l -2.921678,-7.782224 -7.048322,-0.170974 c -9.850785,-0.23895 -14.551208,1.345799 -15.014364,5.062102 l -0.19059,1.529264 -2.772477,-1.764018 c -5.064874,-3.222588 -6.238641,-9.147263 -2.72488,-13.75404 2.630587,-3.448878 5.518265,-4.533946 14.223465,-5.344581 L 52.825406,51.901078 47.388203,38.085487 C 44.397742,30.486913 41.743401,24.483593 41.489668,24.744778 41.111069,25.134496 30.130893,53.092541 20.821879,77.369706 l -2.092688,5.457563 -7.389371,0.170264 c -4.1934161,0.09662 -7.3893709,-0.06994 -7.3893709,-0.385116 z"
       id="path3878"
       inkscape:connector-curvature="0" />
    <path
       style="fill:#2980b9;fill-opacity:1;stroke:#34495e;stroke-width:1.81918764;stroke-linejoin:miter;stroke-miterlimit:4;stroke-opacity:1;stroke-dasharray:none"
       d="m 107.80769,83.742187 c -6.85234,-1.454219 -12.296051,-5.332282 -15.241018,-10.857606 -3.161915,-5.93236 -3.697129,-9.850566 -4.12946,-30.23104 l -0.38912,-18.343476 7.372444,0 7.372444,0 0.0122,15.917892 c 0.0128,16.650446 0.44974,22.043312 2.05944,25.415783 2.30849,4.836511 9.54199,6.793792 14.90745,4.033742 1.90556,-0.980238 3.18393,-2.226941 4.23747,-4.132496 1.4719,-2.662236 1.51626,-3.114449 1.81919,-18.543479 l 0.3105,-15.814698 1.6511,-2.163504 c 1.89939,-2.488841 5.67752,-4.446486 9.45832,-4.900841 l 2.61988,-0.314842 -0.22796,20.413885 c -0.25031,22.416661 -0.36923,23.261175 -4.15514,29.507895 -2.38565,3.9363 -6.53951,7.215343 -11.26997,8.896472 -3.9785,1.413896 -12.3286,1.981998 -16.40776,1.116313 z"
       id="path3880"
       inkscape:connector-curvature="0" />
    <path
       style="fill:#2980b9;fill-opacity:1;stroke:#34495e;stroke-width:1.81918764;stroke-linejoin:miter;stroke-miterlimit:4;stroke-opacity:1;stroke-dasharray:none"
       d="m 173.7413,83.717573 c -4.4679,-0.930641 -10.14983,-4.175157 -13.17542,-7.523475 -1.52534,-1.688042 -3.8759,-5.358096 -5.22347,-8.155673 -2.32694,-4.830762 -2.4633,-5.430396 -2.71193,-11.925906 -0.21868,-5.713187 -0.0533,-7.525845 1.00443,-11.008162 3.4885,-11.485097 13.36375,-19.976241 24.0285,-20.660663 7.82401,-0.502114 13.20256,2.091727 16.09537,7.76209 1.16978,2.292963 1.57874,6.194619 0.84871,8.097053 -0.31101,0.810485 -0.51374,0.786668 -1.5541,-0.182579 -3.27203,-3.048364 -13.42546,-3.976823 -17.94292,-1.640754 -2.6911,1.39162 -5.76724,4.583813 -7.14657,7.416192 -1.44053,2.958054 -1.93675,10.946984 -0.89576,14.4215 1.87591,6.261216 6.97259,10.554966 13.19168,11.113463 6.47567,0.581545 10.75262,-1.547862 13.9017,-6.921367 2.99314,-5.10741 3.20951,-7.492003 3.21975,-35.484499 l 0.009,-25.9082642 1.97079,0.3442537 c 3.84793,0.6721508 6.04305,1.5964144 8.11773,3.4180099 4.03939,3.5466356 3.85858,1.6372654 3.85858,40.7474016 l 0,35.504273 -6.97355,0 -6.97355,0 0,-3.349276 0,-3.349282 -3.03072,2.395645 c -5.4744,4.32726 -13.81914,6.306336 -20.61872,4.890019 z"
       id="path3882"
       inkscape:connector-curvature="0" />
    <path
       style="fill:#2980b9;fill-opacity:1;stroke:#34495e;stroke-width:1.81918764;stroke-linejoin:miter;stroke-miterlimit:4;stroke-opacity:1;stroke-dasharray:none"
       d="m 228.33025,58.419834 c 0.0122,-22.662316 0.10559,-24.913774 1.1265,-27.161303 1.90193,-4.187092 6.30995,-6.935289 11.1397,-6.945084 l 1.66759,-0.0034 0,29.410201 0,29.410201 -6.97356,0 -6.97355,0 0.0133,-24.710633 z"
       id="path3884"
       inkscape:connector-curvature="0" />
    <path
       style="fill:#2980b9;fill-opacity:1;stroke:#34495e;stroke-width:1.81918764;stroke-linejoin:miter;stroke-miterlimit:4;stroke-opacity:1;stroke-dasharray:none"
       d="m 227.06626,19.301005 c -1.12353,-4.683396 -0.87268,-12.2093668 0.49681,-14.9052235 1.48629,-2.9257754 5.60036,-5.13763616 8.81131,-4.73725019 4.36677,0.54451052 8.31524,4.95142589 8.31524,9.28070609 0,2.4391406 -2.16221,6.4643926 -4.08029,7.5960276 -0.92426,0.545297 -3.45418,1.577308 -5.62205,2.293359 -2.16786,0.716051 -4.6672,1.822836 -5.55409,2.459521 l -1.61252,1.15761 -0.75441,-3.14475 0,0 z"
       id="path3886"
       inkscape:connector-curvature="0" />
    <path
       style="fill:#2980b9;fill-opacity:1;stroke:#34495e;stroke-width:1.81918764;stroke-linejoin:miter;stroke-miterlimit:4;stroke-opacity:1;stroke-dasharray:none"
       d="m 273.52849,82.225651 c -3.19009,-1.136416 -5.23822,-2.731607 -6.70542,-5.22253 -1.13242,-1.922553 -1.22493,-3.334862 -1.39591,-21.312068 l -0.18311,-19.25307 -3.60686,0 -3.60686,0 0,-6.063959 0,-6.063959 3.63837,0 3.63838,0 0.0266,-5.609162 c 0.0277,-5.838441 0.87862,-9.3375196 2.79611,-11.4981002 1.40184,-1.5795482 5.17895,-3.2616389 8.5472,-3.8063869 l 2.57718,-0.4168086 0,10.6652287 0,10.665229 6.75278,0 6.75278,0 -0.38758,2.827713 c -0.79825,5.823861 -3.84239,8.775036 -9.47145,9.182206 l -3.64653,0.263766 0,16.906201 c 0,16.097676 0.058,16.964204 1.2128,18.118994 1.58439,1.584397 5.08634,1.583888 8.04372,-0.0012 l 2.26501,-1.213938 0,2.484804 c 0,3.024703 -1.26479,5.300568 -3.97949,7.160711 -4.3812,3.002042 -8.89155,3.745289 -13.26773,2.186342 z"
       id="path3888"
       inkscape:connector-curvature="0" />
    <path
       style="fill:#2980b9;fill-opacity:1;stroke:#34495e;stroke-width:1.81918764;stroke-linejoin:miter;stroke-miterlimit:4;stroke-opacity:1;stroke-dasharray:none"
       d="m 333.22342,48.97916 c 0,-29.516152 0.13146,-34.593998 0.96862,-37.413017 1.16568,-3.9252673 3.90899,-6.8811423 7.24618,-7.8076514 3.78505,-1.0508507 24.7477,-0.8652522 29.05735,0.2572671 7.73194,2.0139153 12.90548,6.3470823 16.26616,13.6239513 3.49081,7.55862 2.84841,19.247215 -1.50693,27.418656 -2.35381,4.416199 -7.42419,9.672469 -10.74278,11.136627 -1.36359,0.601617 -2.47926,1.345415 -2.47926,1.652884 0,0.466012 9.34638,12.609401 17.47563,22.705407 l 2.07513,2.577183 -9.01739,-0.02817 -9.01738,-0.02817 -11.21833,-14.284583 c -6.17008,-7.856519 -11.6998,-15.279773 -12.28827,-16.496119 -1.12237,-2.319887 -1.00007,-6.092889 0.28922,-8.92257 0.58892,-1.292539 0.74065,-1.330873 2.00044,-0.505425 2.23675,1.465575 8.48596,2.210324 12.1552,1.448593 2.57019,-0.53357 3.6835,-1.181861 5.59984,-3.260837 2.93035,-3.179052 4.02648,-6.202995 4.00152,-11.039114 -0.024,-4.655536 -1.56869,-7.797752 -5.03968,-10.251982 -2.55245,-1.804764 -2.64697,-1.820728 -11.92231,-2.013473 l -9.34946,-0.194285 0,32.788065 0,32.788064 -7.27675,0 -7.27675,0 0,-34.151307 z"
       id="path3890"
       inkscape:connector-curvature="0" />
    <path
       style="fill:#2980b9;fill-opacity:1;stroke:#34495e;stroke-width:1.81918764;stroke-linejoin:miter;stroke-miterlimit:4;stroke-opacity:1;stroke-dasharray:none"
       d="m 427.37406,83.425109 c -16.02107,-3.480708 -25.84053,-20.674804 -21.61735,-37.852445 2.06578,-8.402486 8.00484,-16.243534 14.7997,-19.539303 3.98778,-1.934231 11.34594,-3.542483 16.20774,-3.542483 15.6846,0 27.38779,12.595828 23.77833,25.591958 -0.97989,3.52815 -4.91203,8.021889 -8.5969,9.824728 -8.75046,4.281198 -21.25343,4.207349 -26.15971,-0.154514 -2.25402,-2.003901 -3.56457,-5.518056 -3.13246,-8.39952 0.22099,-1.473714 0.5873,-2.580522 0.814,-2.459573 4.43669,2.366997 5.40228,2.565325 12.23692,2.513396 7.75853,-0.05895 10.73748,-0.900317 12.45193,-3.516908 3.46262,-5.28462 -5.31189,-12.795253 -13.53985,-11.589578 -4.01607,0.58849 -7.93622,2.43802 -10.53611,4.970947 -7.48434,7.291576 -7.27307,21.555966 0.42434,28.651192 2.92387,2.695129 5.75719,3.679175 10.59329,3.679175 4.46036,0 7.2109,-0.835653 10.88197,-3.306102 l 3.06185,-2.060469 5.4472,2.535069 c 2.99596,1.394287 5.4526,2.832913 5.45921,3.196945 0.0213,1.171759 -7.47713,7.857612 -10.36675,9.243411 -6.08606,2.918736 -14.91315,3.798798 -22.20735,2.214074 z"
       id="path3892"
       inkscape:connector-curvature="0" />
    <path
       style="fill:#2980b9;fill-opacity:1;stroke:#34495e;stroke-width:1.81918764;stroke-linejoin:miter;stroke-miterlimit:4;stroke-opacity:1;stroke-dasharray:none"
       d="m 488.40199,83.686884 c -4.84703,-0.699235 -9.45472,-2.930039 -13.15391,-6.368447 l -3.20678,-2.980711 4.3518,-4.737457 4.3518,-4.737458 1.88715,1.822769 c 2.81364,2.717655 6.77642,4.28818 10.85905,4.303651 2.933,0.01112 3.76055,-0.232894 5.00276,-1.475108 3.33454,-3.334538 1.10393,-6.493249 -8.13554,-11.520526 -11.93429,-6.493549 -16.10525,-11.383078 -16.03271,-18.794823 0.044,-4.496665 1.83553,-8.622322 4.92024,-11.330739 10.22063,-8.973829 29.22598,-5.307877 29.22598,5.637415 0,2.819284 -1.65513,6.092888 -3.73392,7.385147 -0.80132,0.49813 -1.34892,0.216277 -2.70047,-1.389948 -2.11745,-2.516451 -4.81001,-3.669062 -8.5711,-3.669062 -3.64663,0 -5.61197,1.271053 -5.61197,3.629446 0,2.395469 0.76369,3.010158 9.18469,7.392709 10.92268,5.684498 14.61405,9.594816 15.97732,16.924978 0.61911,3.328855 -0.66652,9.000565 -2.66835,11.771798 -4.37167,6.051906 -13.34196,9.377591 -21.94604,8.136366 z"
       id="path3894"
       inkscape:connector-curvature="0" />
    <path
       style="fill:#2980b9;fill-opacity:1;stroke:#34495e;stroke-width:1.81918764;stroke-linejoin:miter;stroke-miterlimit:4;stroke-opacity:1;stroke-dasharray:none"
       d="m 543.49732,83.398593 c -6.93528,-1.680941 -11.75974,-5.358769 -14.73728,-11.234661 -2.84954,-5.6233 -3.28713,-9.538145 -3.29859,-29.510391 l -0.0105,-18.343476 6.91496,0 6.91497,0 0.26047,18.646674 c 0.27825,19.919048 0.48425,21.40025 3.42599,24.633718 3.14774,3.459906 8.4991,4.387398 13.1066,2.271625 5.53703,-2.542616 5.89571,-3.840276 6.31867,-22.860575 l 0.35168,-15.814698 1.65111,-2.163504 c 1.89234,-2.479611 5.67566,-4.446532 9.41562,-4.895115 l 2.57718,-0.309116 -0.0105,18.588972 c -0.0132,23.244776 -0.73729,27.304211 -6.07425,34.052066 -4.97811,6.294141 -16.81913,9.359072 -26.80607,6.938481 z"
       id="path3896"
       inkscape:connector-curvature="0" />
    <path
       style="fill:#2980b9;fill-opacity:1;stroke:#34495e;stroke-width:1.81918764;stroke-linejoin:miter;stroke-miterlimit:4;stroke-opacity:1;stroke-dasharray:none"
       d="m 590.94167,49.202144 c 0,-22.318092 0.22751,-34.98916 0.66485,-37.028384 0.86214,-4.0200353 3.64418,-6.8802999 7.93009,-8.15308 5.97405,-1.7741007 5.35217,-6.3157797 5.35217,39.087658 l 0,40.022129 -6.97355,0 -6.97356,0 0,-33.928323 z"
       id="path3898"
       inkscape:connector-curvature="0" />
    <path
       style="fill:#2980b9;fill-opacity:1;stroke:#34495e;stroke-width:1.81918764;stroke-linejoin:miter;stroke-miterlimit:4;stroke-opacity:1;stroke-dasharray:none"
       d="m 633.92609,82.330067 c -3.36512,-1.258126 -5.73145,-3.192499 -6.9807,-5.706416 -1.02333,-2.05929 -1.15485,-4.164678 -1.32655,-21.235796 l -0.19059,-18.949872 -3.59938,0 -3.59938,0 0,-6.063959 0,-6.063959 3.5525,0 3.5525,0 0.31675,-6.682841 c 0.28201,-5.94978 0.49582,-6.95342 1.94914,-9.1495305 1.76271,-2.6636457 4.87754,-4.369948 9.27578,-5.0812776 l 2.57719,-0.4168086 0,10.6652287 0,10.665229 6.75482,0 6.75482,0 -0.37603,3.174981 c -0.649,5.47972 -3.81976,8.425 -9.51336,8.836838 l -3.67279,0.265665 0.17787,17.178096 c 0.12147,11.731266 0.39493,17.39487 0.86243,17.861753 1.38794,1.386075 5.48419,1.420203 8.07977,0.06732 l 2.45399,-1.279096 0.0698,1.354659 c 0.0384,0.74506 0.0134,1.900414 -0.0555,2.567449 -0.5832,5.645686 -10.68454,10.377126 -17.06316,7.992341 l 0,0 z"
       id="path3900"
       inkscape:connector-curvature="0" />
    <path
       style="fill:#2980b9;fill-opacity:1;stroke:#34495e;stroke-width:1.81918764;stroke-linejoin:miter;stroke-miterlimit:4;stroke-opacity:1;stroke-dasharray:none"
       d="m 678.96241,83.63326 c -4.14633,-0.583353 -8.73356,-2.617927 -12.38315,-5.4923 -4.09359,-3.224061 -4.06888,-3.588645 0.58277,-8.597706 l 4.1271,-4.444212 1.88049,1.641158 c 6.57059,5.734322 16.53278,5.847276 17.10149,0.193902 0.28383,-2.82155 -2.11387,-5.080345 -9.94721,-9.370944 -11.26927,-6.172578 -15.36106,-11.025583 -15.38861,-18.251403 -0.0174,-4.573422 1.70078,-8.185659 5.53221,-11.630436 3.74776,-3.369564 7.85952,-4.79359 13.86384,-4.801476 7.8009,-0.01024 14.05018,3.951688 14.94664,9.475902 0.42445,2.615603 -1.52933,7.309902 -3.47603,8.351742 -1.21301,0.649184 -1.51015,0.546689 -2.54883,-0.879182 -2.7613,-3.790661 -11.08834,-5.473231 -13.77765,-2.783926 -2.95158,2.951584 -1.15545,5.087244 8.42593,10.018712 4.70847,2.42342 8.81186,5.012009 10.37619,6.545736 10.0685,9.87155 5.59336,25.934451 -8.19019,29.397535 -4.06981,1.022529 -7.09947,1.193254 -11.12499,0.626898 z"
       id="path3902"
       inkscape:connector-curvature="0" />
  </g>
  <g
     inkscape:groupmode="layer"
     id="layer4"
     inkscape:label="Shadow">
    <path
       style="fill:#2980b9;fill-opacity:1;stroke:#34495e;stroke-width:1.81918764;stroke-linejoin:miter;stroke-miterlimit:4;stroke-opacity:1;stroke-dasharray:none"
       d="m 29.856372,57.058344 c -0.07025,-0.916651 10.900886,-27.785118 11.677193,-28.673148 0.227343,-0.260062 2.474051,4.651745 4.992683,10.915126 l 4.579333,11.387965 -3.718101,0.432261 c -9.827785,1.142565 -15.53705,2.838899 -16.348603,4.85749 -0.171194,0.425814 -1.156175,1.423873 -1.182505,1.080306 z m 19.420101,-7.43125 c -3.269998,-8.745372 -4.380642,-11.314089 -4.724752,-10.927488 -0.228698,0.256938 -1.38731,2.991282 -2.574694,6.076321 l -2.158879,5.609162 4.870874,0 c 3.643595,0 4.799462,-0.190987 4.587451,-0.757995 z"
       id="path3905"
       inkscape:connector-curvature="0"
       sodipodi:nodetypes="ssscsssssscss" />
    <path
       style="fill:#2c3e50;fill-opacity:1;stroke:#2c3e50;stroke-width:1.81918764;stroke-linejoin:miter;stroke-miterlimit:4;stroke-opacity:1;stroke-dasharray:none"
       d="M 2.8788103,87.337745 0.29118163,84.886359 14.3277,48.685853 C 22.047785,28.775574 28.876115,11.46964 29.501767,10.228221 32.701054,3.8801877 37.387367,1.0997025 45.025712,1.0175456 l 4.994708,-0.0537222 2.659455,2.7287815 c 2.536299,2.6024147 3.393158,4.6409261 18.503136,44.0199111 8.714018,22.710125 15.843675,41.470498 15.843675,41.689716 0,0.219224 -4.29783,0.391768 -9.550735,0.38343 l -9.550735,-0.01516 -2.527464,-2.385944 c -1.966245,-1.856153 -2.99536,-3.636877 -4.634678,-8.019585 l -2.107215,-5.633642 -4.618834,-0.177214 c -3.297166,-0.126506 -5.208431,0.102566 -6.679299,0.80054 -2.173416,1.031352 -3.785434,3.826049 -3.154822,5.469394 0.293112,0.76384 0.09027,0.874132 -0.992136,0.53948 -2.745752,-0.848924 -6.278843,-2.922464 -8.893396,-5.219462 -1.474909,-1.295771 -2.885567,-2.143724 -3.134795,-1.884345 -0.249229,0.259386 -1.803051,4.019023 -3.45294,8.354753 l -2.999797,7.883147 -9.6317,0.145753 -9.6317012,0.145747 z M 18.71319,83.817689 c 0.751971,-0.295951 2.657272,-4.18299 5.076896,-10.460297 1.980041,-5.136883 3.725916,-9.465628 3.879722,-9.619434 0.153805,-0.153807 0.09168,1.250654 0.299492,2.289695 0.489624,2.448117 3.661105,6.119832 6.809534,7.883589 l 2.486071,1.392704 0.372505,-1.695902 c 0.66554,-3.030002 0.831098,-3.253944 3.143065,-4.251453 1.522058,-0.656697 4.71375,-1.074576 9.579923,-1.254258 l 7.297415,-0.269452 3.078598,8.10359 3.078605,8.10359 8.2216,0 c 4.521882,0 8.41076,-0.189826 8.64196,-0.421833 C 80.909771,83.38622 78.448198,76.291389 75.208419,67.851934 70.861094,56.527398 54.171526,13.402633 50.219846,3.2830831 49.821877,2.2639558 45.670266,1.6929211 42.164425,2.1750976 38.435694,2.6879292 34.205701,5.4078954 31.916188,8.7649101 29.920423,11.691215 2.7376573,80.856094 2.7376573,83.00789 c 0,0.354542 0.6139758,0.762876 1.3643908,0.907417 2.304137,0.443797 13.4242399,0.369501 14.6111419,-0.09762 z"
       id="path3907"
       inkscape:connector-curvature="0"
       sodipodi:nodetypes="ccssscsssscsscssssssscccccsssscssscccsssssssscc" />
    <path
       style="fill:#2c3e50;fill-opacity:1;stroke:#2c3e50;stroke-width:1.81918763999999999;stroke-linejoin:miter;stroke-miterlimit:4;stroke-opacity:1;stroke-dasharray:none;"
       d="m 35.154168,47.55233 c 3.272473,-8.730132 5.987754,-16.347015 6.499623,-16.874863 0.263684,-0.271916 0.792456,1.970382 1.350066,3.363987 l 1.550816,2.856014 -3.288319,6.554142 c -1.826714,3.640931 -1.89217,7.199554 -1.89217,7.507098 0,0.307544 -1.609584,0.639012 -2.526758,0.824104 -0.917173,0.185092 -3.556838,1.515873 -4.115761,1.732181 -0.829351,0.320964 0.784751,-1.593551 2.422503,-5.962663 z"
       id="path3909"
       inkscape:connector-curvature="0"
       sodipodi:nodetypes="ssscsssss" />
    <path
       style="fill:#2c3e50;fill-opacity:1;stroke:#2c3e50;stroke-width:1.81918764;stroke-linejoin:miter;stroke-miterlimit:4;stroke-opacity:1;stroke-dasharray:none"
       d="m 113.67815,90.370276 c -6.12657,-0.902014 -9.7764,-2.712942 -15.326261,-7.60438 -5.81515,-5.125253 -8.430015,-8.767716 -10.295641,-14.341659 -1.169726,-3.494798 -1.286102,-5.447764 -1.499524,-25.1643 l -0.231379,-21.375455 9.323542,0 9.323543,0 2.21156,2.273984 2.21156,2.273985 0.18549,20.070499 c 0.14704,15.909717 0.35802,20.278172 1.01774,21.072257 1.1282,1.357992 6.294,1.33833 8.61513,-0.03279 3.50273,-2.069111 3.85707,-3.79942 4.19653,-20.492502 0.27096,-13.324673 0.44885,-15.443712 1.46947,-17.504354 2.09796,-4.235828 8.61978,-7.661075 14.58702,-7.661075 2.08978,0 2.86083,0.373979 4.7411,2.299552 l 2.24545,2.299551 -0.0212,19.075904 c -0.0241,21.725654 -0.53977,26.24773 -3.66093,32.103624 -3.76642,7.066535 -10.08594,11.295243 -19.05776,12.752509 -4.09107,0.664495 -5.24973,0.659262 -10.03549,-0.04536 l 0,1.2e-5 z m 9.73229,-6.414189 c 6.69409,-1.855038 11.77729,-6.360034 14.91865,-13.221687 1.38145,-3.017475 1.68136,-4.738702 2.10578,-12.085552 0.27219,-4.711826 0.50978,-14.809811 0.52798,-22.439966 l 0.0331,-13.873009 -2.57718,0.4071 c -4.9837,0.787242 -7.33831,1.84087 -10.395,4.651511 l -3.08565,2.837261 -0.38937,16.082885 c -0.37003,15.283679 -0.45873,16.206287 -1.78505,18.56616 -3.04398,5.416023 -11.05079,6.483184 -15.2491,2.032425 -2.70533,-2.868014 -3.02415,-5.266249 -3.34594,-25.169268 l -0.30148,-18.646674 -8.42023,0 -8.420234,0 0.01447,9.247538 c 0.01912,12.213364 0.969292,29.636929 1.843607,33.806571 2.019178,9.629541 9.658548,17.100328 19.232657,18.80823 3.68746,0.6578 11.03873,0.175412 15.29302,-1.003525 z"
       id="path3913"
       inkscape:connector-curvature="0" />
    <path
       style="fill:#2c3e50;fill-opacity:1;stroke:#2c3e50;stroke-width:1.81918764;stroke-linejoin:miter;stroke-miterlimit:4;stroke-opacity:1;stroke-dasharray:none"
       d="m 177.30288,69.447785 c -3.99191,-1.229192 -7.55543,-4.975371 -8.79771,-9.248678 -1.1445,-3.936959 -0.78031,-10.575362 0.75803,-13.817173 2.14227,-4.514517 7.78409,-8.128248 12.66444,-8.111909 3.06606,0.01027 8.53211,1.538162 10.4898,2.932159 l 1.85684,1.322187 0.95183,-1.358933 c 0.891,-1.272079 0.94507,-0.991808 0.8459,4.385156 -0.0583,3.159248 -0.21151,4.56158 -0.34054,3.116291 -0.2198,-2.462016 -0.40946,-2.705148 -3.00633,-3.853867 -4.15704,-1.838855 -10.1478,-1.3814 -13.65174,1.042447 -3.79061,2.622153 -6.11685,7.531426 -6.11685,12.908959 0,5.482372 1.05003,8.21246 3.63223,9.443824 3.99587,1.905496 10.32698,1.016352 13.67681,-1.920777 0.58365,-0.511749 1.06119,-0.657574 1.06119,-0.324057 0,1.000379 -2.19635,2.675742 -4.65943,3.554186 -2.93543,1.046906 -5.80735,1.025494 -9.36447,-0.06982 l 0,0 z"
       id="path3915"
       inkscape:connector-curvature="0" />
    <path
       style="fill:#2c3e50;fill-opacity:1;stroke:#2c3e50;stroke-width:1.81918764;stroke-linejoin:miter;stroke-miterlimit:4;stroke-opacity:1;stroke-dasharray:none"
       d="M 180.10846,90.658272 C 172.17863,88.75884 169.73449,87.495565 163.10988,81.872377 154.69394,74.72864 150.86819,67.32742 150.28181,57.055444 c -0.42217,-7.395383 0.42527,-11.853082 3.40076,-17.888679 3.28834,-6.670208 7.86243,-11.205339 14.60117,-14.476794 4.94532,-2.40081 5.38799,-2.50169 10.91512,-2.48748 6.45499,0.0166 9.58556,1.051221 13.45157,4.445628 1.1944,1.048695 2.34027,1.906718 2.54638,1.906718 0.20611,0 0.37474,-6.139759 0.37474,-13.643908 l 0,-13.6439077 1.70913,0 c 2.00701,0 8.25152,1.7630103 7.80963,2.2048942 -0.16676,0.1667589 -1.74403,-0.1246837 -3.50505,-0.6476502 -5.9086,-1.7546665 -5.40024,-3.23302987 -5.45943,15.8766377 -0.0287,9.255118 -0.26018,16.143525 -0.51446,15.307571 -1.92699,-6.334876 -6.35168,-9.737026 -13.74056,-10.565121 -13.63723,-1.528368 -27.10731,9.432387 -30.00134,24.412427 -1.11569,5.775008 -0.38154,14.531472 1.57809,18.82233 4.07769,8.92867 9.27974,14.313271 16.53901,17.119429 6.72009,2.597727 17.00041,1.358345 23.29722,-2.808687 1.24397,-0.823218 2.63193,-2.218395 2.80584,-2.218395 0.17391,0 0.0883,1.813147 0.0883,3.147218 l 0,2.425584 8.23228,0 8.23229,0 -0.22029,-36.232155 C 212.19004,9.9210803 212.18705,9.880687 209.37256,6.8761834 c -0.70296,-0.750415 -1.02588,-1.3617441 -0.7176,-1.3585092 0.88695,0.00931 8.06851,8.2154928 8.74358,9.9910578 0.38379,1.009458 0.60966,14.956027 0.60966,37.644615 l 0,36.041079 -9.02169,0 c -7.2795,0 -9.16747,-0.175655 -9.77658,-0.909594 -1.00381,-1.209517 -1.3803,-1.16841 -5.91541,0.645921 -3.75013,1.50029 -10.46307,2.379758 -13.18606,1.727519 z"
       id="path3917"
       inkscape:connector-curvature="0"
       sodipodi:nodetypes="ssssssssscsssssssssssscccssssscssss" />
    <path
       style="fill:#2c3e50;fill-opacity:1;stroke:#2c3e50;stroke-width:1.81918764;stroke-linejoin:miter;stroke-miterlimit:4;stroke-opacity:1;stroke-dasharray:none"
       d="m 228.46853,87.338175 -2.57718,-2.432326 0.0488,-24.991928 c 0.034,-17.414276 0.27,-25.819305 0.77835,-27.720709 0.6418,-2.400584 0.55839,-3.348709 -0.69358,-7.883147 -0.81091,-2.937001 -1.5719,-7.777054 -1.76896,-11.250927 -0.29916,-5.2738235 -0.18095,-6.4692918 0.87591,-8.8585146 2.62386,-5.9316711 9.9948,-8.5299234 15.63505,-5.5113515 2.18275,1.16817175 8.18149,7.9348412 9.38483,10.5862344 0.64988,1.4318937 1.18758,3.3626227 1.19491,4.2905087 0.0189,2.398885 -1.56834,5.887119 -3.66443,8.05305 l -1.7971,1.856968 1.52463,1.432313 1.52463,1.432314 0,31.730078 0,31.730084 -8.94434,-0.01516 -8.94434,-0.01517 -2.57718,-2.432321 z m 15.0083,-33.617909 0,-30.622993 -2.01233,0 c -3.23315,0 -7.84111,1.641731 -9.90098,3.527534 -4.24733,3.88841 -4.13483,3.06683 -4.35353,31.795027 l -0.19735,25.923425 8.23209,0 8.2321,0 0,-30.622993 z M 229.54262,22.733377 c 0.50737,-0.432202 3.50435,-1.835102 6.65994,-3.117556 4.82278,-1.960006 6.01201,-2.722384 7.45967,-4.782152 3.27167,-4.655024 2.55792,-9.9801956 -1.86283,-13.89816696 -5.28154,-4.68086634 -13.68042,-2.13750924 -15.9101,4.81791446 -0.87026,2.7147307 -0.50963,12.6252405 0.59306,16.2981875 0.69211,2.30535 1.05849,2.386973 3.06026,0.681773 z"
       id="path3919"
       inkscape:connector-curvature="0" />
    <path
       style="fill:#2c3e50;fill-opacity:1;stroke:#2c3e50;stroke-width:1.81918764;stroke-linejoin:miter;stroke-miterlimit:4;stroke-opacity:1;stroke-dasharray:none"
       d="m 279.34318,89.139517 c -3.4831,-0.672427 -6.94799,-2.801658 -10.8915,-6.693016 -5.1122,-5.044589 -5.14169,-5.171732 -5.4335,-23.420271 -0.22849,-14.288621 -0.35713,-15.919444 -1.25681,-15.933054 -0.55124,-0.0083 -2.16199,-1.109708 -3.57944,-2.447487 l -2.57719,-2.432324 0,-7.861244 0,-7.861243 3.54862,0 3.54862,0 0.3597,-5.552125 c 0.35589,-5.493129 3.07742,-11.5159104 4.79347,-12.0879256 0.36566,-0.1218888 -0.96882,1.9963041 -1.80493,3.6858347 -1.18995,2.4044529 -1.58553,4.3199409 -1.82072,8.8162429 l -0.30046,5.744368 -3.55575,0 -3.55575,0 0,7.276751 0,7.276751 3.54175,0 3.54175,0 0.37184,18.848846 c 0.3676,18.633897 0.38893,18.878008 1.87041,21.405975 1.80421,3.078642 6.02411,5.575428 10.39102,6.148042 5.44581,0.71408 12.79055,-2.998767 14.62705,-7.394137 0.67639,-1.618834 1.21734,-8.089066 0.67554,-8.079995 -0.0834,0.0012 -1.49402,0.68359 -3.13475,1.51599 -1.64073,0.832394 -3.68732,1.509271 -4.54797,1.504165 -3.41329,-0.02025 -3.36913,0.195538 -3.56268,-17.409512 l -0.17868,-16.251596 3.6417,-0.692077 c 2.00293,-0.380642 4.43998,-1.260508 5.41567,-1.955257 2.03851,-1.451549 3.66332,-5.075211 4.16141,-9.280823 l 0.34502,-2.913123 -6.75482,0 -6.75482,0 0,-10.69005 0,-10.6900505 -3.18358,0.4212532 c -1.75097,0.2316893 -4.38548,0.9523495 -5.85447,1.6014671 -1.469,0.6491176 -3.75686,1.6894482 -3.92362,1.5226893 -0.57832,-0.5783211 6.01469,-3.3181315 9.79002,-3.9261315 l 3.79461,-0.61110349 2.40214,2.54482179 2.40214,2.5448216 0.0152,8.3379435 0.0152,8.337944 4.4249,0 c 4.33425,0 4.47158,0.0478 6.70346,2.333456 2.21913,2.272593 2.26794,2.418897 1.8714,5.609162 -0.90083,7.247451 -3.86524,11.035525 -9.50417,12.144918 l -3.49559,0.687714 0,13.275794 0,13.275796 1.47386,-0.96571 c 0.81062,-0.531136 1.90347,-1.621387 2.42856,-2.422775 l 0.95471,-1.457073 2.3856,2.588068 c 2.84157,3.08274 4.68389,8.672759 4.02168,12.202662 -1.14341,6.094897 -10.19888,10.852879 -17.84577,9.376627 l 0,0 z"
       id="path3921"
       inkscape:connector-curvature="0"
       sodipodi:nodetypes="csscscccccsscscccccccsssscssscssscccccsssscccccsssscccsscssccc" />
    <path
       style="fill:#2c3e50;fill-opacity:1;stroke:#2c3e50;stroke-width:1.81918764;stroke-linejoin:miter;stroke-miterlimit:4;stroke-opacity:1;stroke-dasharray:none"
       d="m 333.34042,87.305897 -2.61179,-2.464599 0.2036,-36.177977 c 0.18185,-32.314324 0.3137,-36.457487 1.23463,-38.7952228 3.00162,-7.6195244 5.50971,-8.7626503 19.95382,-9.09446803 19.07405,-0.43817937 24.65293,1.12634093 32.48702,9.11053513 2.38549,2.4312027 4.86056,5.1025627 5.50014,5.9363577 4.89868,6.38614 6.7745,16.949853 4.63022,26.075023 -1.94132,8.261395 -7.629,16.69292 -13.33263,19.764522 -1.15276,0.620804 -2.09484,1.27134 -2.09352,1.44563 10e-4,0.174296 4.63776,6.183783 10.3032,13.354414 l 10.30078,13.037512 -10.95667,0.165461 -10.95667,0.165461 -3.0708,-2.760908 c -1.68893,-1.5185 -6.92065,-7.596279 -11.62603,-13.506171 l -8.55525,-10.745262 -0.1632,13.492308 -0.1632,13.492309 -9.23593,-0.01516 -9.23594,-0.01517 z m 15.79065,-18.436309 0.16184,-15.473675 2.96078,4.10375 c 1.62842,2.257063 6.94833,9.220215 11.822,15.473673 l 8.86124,11.369923 10.53729,0 c 8.33962,0 10.41448,-0.158088 9.94844,-0.757995 -0.32387,-0.416897 -3.0902,-4.092942 -6.31471,-8.034746 -15.44659,-18.882682 -14.88491,-17.251111 -10.16082,-19.396721 2.70797,-1.229917 7.63956,-7.375327 9.61339,-11.393676 3.79912,-7.734286 4.6409,-18.69602 1.9746,-25.713158 -1.56943,-4.13042 -5.0534,-9.2147385 -7.79624,-11.3774343 C 374.94131,3.0982155 367.35515,1.6221445 351.71849,2.0229111 340.5838,2.3082927 339.24112,2.643438 336.13597,5.9124527 332.24843,10.005149 332.3521,8.9066642 332.12481,48.414302 l -0.20669,35.928957 8.52556,0 8.52556,0 z"
       id="path3925"
       inkscape:connector-curvature="0"
       sodipodi:nodetypes="ccssssssscscccssccccccccsscsssssssssscccc" />
    <path
       style="fill:#2c3e50;fill-opacity:1;stroke:#2c3e50;stroke-width:1.61899996;stroke-linejoin:miter;stroke-miterlimit:3.4000001;stroke-opacity:1;stroke-dasharray:none"
       d="m 358.08565,43.068652 c -1.83435,-0.207067 -4.17887,-0.81329 -5.21005,-1.347164 -1.72758,-0.894425 -3.50198,1.872813 -3.83137,2.898855 -0.40478,1.260906 -0.0545,-2.686174 -0.0545,-13.903164 l 0,-12.044648 8.52836,0.337613 c 7.98166,0.315971 8.6785,0.441659 10.87049,1.96071 3.36917,2.334837 4.42441,4.947799 4.15474,10.287914 -0.17808,3.526521 -0.54421,4.867221 -1.88068,6.886774 -2.87682,4.347163 -6.19004,5.644086 -12.57697,4.92311 z m 9.22428,-2.477284 c 4.23642,-3.016595 6.12901,-12.362909 3.11397,-15.377946 -0.7033,-0.7033 -2.57241,-0.903357 -8.43999,-0.903357 l -7.53663,0 0,8.089285 0,8.089286 2.27398,0.697118 c 4.9602,1.520613 7.84592,1.358626 10.58867,-0.594386 z"
       id="path3927"
       inkscape:connector-curvature="0"
       sodipodi:nodetypes="sssscssssscsscccscc" />
    <path
       style="fill:#2c3e50;fill-opacity:1;stroke:#2c3e50;stroke-width:1.81918764;stroke-linejoin:miter;stroke-miterlimit:4;stroke-opacity:1;stroke-dasharray:none"
       d="m 433.27874,90.365704 c -7.26268,-1.264505 -17.93212,-8.210073 -23.68985,-15.421582 -4.78345,-5.991223 -7.6664,-15.512673 -7.01834,-23.179252 0.69376,-8.207148 2.98722,-14.106584 7.8672,-20.236663 5.86774,-7.370883 14.71467,-11.063452 26.47937,-11.052075 7.27057,0.007 11.1573,1.107052 16.54331,4.682077 4.08311,2.71022 10.42793,9.997202 12.46132,14.311754 4.35778,9.246537 0.85095,19.968296 -8.05285,24.620752 -1.84988,0.966607 -3.35471,1.893908 -3.34406,2.060667 0.0106,0.166759 1.98836,1.226034 4.39493,2.353944 2.76649,1.296603 5.19738,2.977831 6.61033,4.57177 l 2.23476,2.521021 -2.84116,3.362292 c -6.46106,7.64618 -13.42463,11.077404 -23.76181,11.708371 -2.50138,0.152685 -6.0488,0.01631 -7.88315,-0.303076 l 0,0 z m 10.8452,-6.092338 c 1.46236,-0.318037 4.11228,-1.265828 5.88869,-2.106207 3.95137,-1.869295 11.34862,-8.810627 11.05884,-10.377252 -0.1272,-0.687721 -2.37225,-2.176523 -6.07779,-4.03049 l -5.87607,-2.939934 -3.54193,2.186201 c -4.15064,2.561921 -6.71664,3.391737 -10.47375,3.387087 -4.40224,-0.0055 -7.19594,-1.09268 -9.9918,-3.88854 -4.39749,-4.397492 -6.32759,-12.238721 -4.5699,-18.565659 1.64014,-5.903785 6.83986,-10.772079 12.9709,-12.144145 5.29543,-1.185066 11.00664,1.20248 13.37734,5.592338 1.11463,2.063992 1.12317,2.26705 0.15733,3.741113 -1.39039,2.121999 -4.38162,2.826735 -11.94787,2.814928 -5.06784,-0.0079 -6.91557,-0.25873 -9.05458,-1.229116 -2.39713,-1.08749 -2.78635,-1.120241 -3.60339,-0.303208 -1.46179,1.461794 -1.16915,6.289553 0.57266,9.447108 2.6823,4.86248 9.74426,7.140383 18.6643,6.020343 8.32719,-1.045599 13.40885,-3.657145 17.50874,-8.998025 7.91093,-10.305477 0.1899,-26.313984 -14.68859,-30.454798 -7.10703,-1.977947 -19.68669,-0.310811 -26.12491,3.462239 -3.35356,1.965315 -8.56213,7.596977 -10.7269,11.598233 -2.11842,3.915599 -4.07992,11.491165 -4.07992,15.757182 0,15.389306 11.26297,29.5637 25.16543,31.670586 3.91502,0.593316 11.09488,0.294805 15.39317,-0.639984 z M 439.9321,68.600301 c 1.06497,-0.673497 0.91593,-0.735209 -4.42046,-1.830314 -2.64349,-0.542485 -4.35362,-1.396562 -6.82195,-3.407047 -3.48481,-2.838416 -3.72509,-2.732385 -2.56706,1.132776 1.03671,3.460235 3.30804,4.684963 8.6721,4.676093 2.33463,-0.0039 4.64644,-0.261039 5.13737,-0.571508 z m 3.03787,-22.053988 c 2.11077,-0.550817 2.84811,-1.082296 3.30174,-2.379904 0.8843,-2.529569 -0.20854,-3.183085 -5.29174,-3.164454 -4.70476,0.01724 -7.23515,0.957321 -10.30149,3.827167 -1.52109,1.423607 -1.58191,1.625282 -0.6064,2.010537 1.70791,0.674497 9.90333,0.488103 12.89789,-0.293346 l 0,0 z"
       id="path3929"
       inkscape:connector-curvature="0" />
    <path
       style="fill:#2c3e50;fill-opacity:1;stroke:#2c3e50;stroke-width:1.81918764;stroke-linejoin:miter;stroke-miterlimit:4;stroke-opacity:1;stroke-dasharray:none"
       d="m 493.88838,90.308642 c -7.25666,-0.935493 -14.09993,-4.981409 -22.02903,-13.024118 l -2.76479,-2.804404 1.13752,-1.446117 c 0.62563,-0.795365 3.31063,-3.741861 5.96666,-6.547771 l 4.82914,-5.101654 2.04885,2.131816 c 4.04817,4.212077 9.48682,6.382587 12.8187,5.115811 2.50925,-0.954017 2.00983,-2.28544 -1.5223,-4.058349 -8.46764,-4.250223 -18.89878,-13.156182 -21.10773,-18.021488 -1.34647,-2.965649 -1.5698,-9.573287 -0.44991,-13.311151 1.01729,-3.395408 5.90475,-8.525228 10.07241,-10.571871 3.17569,-1.559516 4.00584,-1.69362 10.42404,-1.683937 6.0434,0.0091 7.31522,0.191687 9.53516,1.368772 2.8795,1.526803 9.62992,8.297465 11.20848,11.242089 2.19455,4.093689 0.70952,10.396409 -3.08645,13.099376 -0.97621,0.695122 -2.05161,1.263859 -2.38979,1.263859 -0.33818,0 -2.02041,-1.199747 -3.7383,-2.666104 -1.71788,-1.466358 -3.85496,-2.808112 -4.74908,-2.981677 -1.78048,-0.345625 -4.96509,0.117773 -4.95365,0.720814 0.004,0.208449 2.39164,1.60695 5.30596,3.107779 4.12853,2.126125 6.48062,3.906291 10.65006,8.060441 6.70738,6.682792 8.50157,10.179924 8.4609,16.491446 -0.038,5.903097 -1.73947,9.699626 -6.18855,13.808997 -5.07063,4.683462 -12.05166,6.764855 -19.4783,5.807441 l 0,0 z m 5.3444,-6.223132 c 14.98386,-3.9888 19.98632,-20.691635 9.29171,-31.024265 -1.41076,-1.363014 -5.61538,-4.204833 -9.34359,-6.315152 -3.72821,-2.11032 -7.52897,-4.356465 -8.44615,-4.991433 -3.12165,-2.161156 -1.60578,-4.710281 2.80104,-4.710281 2.97292,0 4.78137,0.80729 7.68507,3.430603 2.38858,2.157938 2.59318,2.227755 4.07773,1.391452 0.85963,-0.484265 2.2198,-2.108433 3.0226,-3.609263 2.93904,-5.494542 0.66184,-11.36951 -5.64109,-14.553502 -2.64009,-1.333666 -3.76677,-1.514513 -9.36816,-1.503714 -5.57253,0.01074 -6.79033,0.209394 -9.75787,1.591733 -3.92111,1.826528 -7.10134,4.782555 -8.77557,8.156903 -1.61432,3.25358 -1.64158,11.76848 -0.0471,14.722427 1.83711,3.403529 5.91507,6.859663 13.56918,11.500079 4.00238,2.426504 8.04137,5.2096 8.97553,6.184656 1.48595,1.550995 1.61235,1.961858 1.01018,3.28349 -1.75475,3.851255 -10.90266,2.266921 -15.58625,-2.699396 l -1.81919,-1.929002 -5.31337,5.66344 -5.31337,5.663441 3.44426,3.135866 c 3.54421,3.226866 8.45405,6.069309 11.89628,6.887095 3.24129,0.770043 10.24246,0.628784 13.63816,-0.275177 z"
       id="path3931"
       inkscape:connector-curvature="0" />
    <path
       style="fill:#2c3e50;fill-opacity:1;stroke:#2c3e50;stroke-width:1.81918764;stroke-linejoin:miter;stroke-miterlimit:4;stroke-opacity:1;stroke-dasharray:none"
       d="m 550.2832,90.370276 c -6.12657,-0.902014 -9.77641,-2.712942 -15.32627,-7.60438 -5.79313,-5.105843 -8.14455,-8.377486 -10.19801,-14.188931 -1.33259,-3.771338 -1.40215,-4.864769 -1.61063,-25.317028 l -0.2179,-21.375455 9.32354,0 9.32354,0 2.21157,2.273984 2.21156,2.273985 0.18549,20.070499 c 0.14703,15.909717 0.35802,20.278172 1.01773,21.072257 1.1282,1.357992 6.29401,1.33833 8.61513,-0.03279 3.5073,-2.071809 3.86181,-3.799468 4.20504,-20.492502 0.27316,-13.285214 0.45456,-15.449814 1.46692,-17.504354 2.08551,-4.232415 8.61116,-7.661075 14.58106,-7.661075 2.08978,0 2.86083,0.373979 4.7411,2.299552 l 2.24546,2.299551 -0.0212,19.075904 c -0.0241,21.725654 -0.53977,26.24773 -3.66093,32.103624 -3.76642,7.066535 -10.08594,11.295243 -19.05776,12.752509 -4.09106,0.664495 -5.24972,0.659262 -10.03548,-0.04536 l 0,1.2e-5 z m 5.35811,-5.442021 c 6.71317,-1.089396 10.37212,-2.838436 14.43277,-6.899087 6.47792,-6.477914 7.52688,-11.955902 7.52688,-39.307354 l 0,-16.385941 -2.57718,0.4071 c -4.98141,0.786881 -7.33779,1.840399 -10.38657,4.643759 l -3.07722,2.829509 -0.41918,15.44356 c -0.23055,8.493959 -0.72108,16.564734 -1.09007,17.935057 -0.77802,2.88936 -2.7969,4.694923 -6.32998,5.661161 -5.19381,1.420418 -10.39613,-1.449357 -11.89031,-6.559092 -0.38832,-1.327963 -0.82883,-10.216284 -1.03844,-20.95298 l -0.36403,-18.646674 -8.16547,0 -8.16546,0 0.3113,20.162664 c 0.22472,14.554595 0.55086,21.095227 1.17259,23.515504 1.96797,7.660996 7.22335,13.945099 13.69481,16.375522 6.3161,2.372075 10.1408,2.787438 16.36556,1.777292 z"
       id="path3933"
       inkscape:connector-curvature="0" />
    <path
       style="fill:#2c3e50;fill-opacity:1;stroke:#2c3e50;stroke-width:1.81918764;stroke-linejoin:miter;stroke-miterlimit:4;stroke-opacity:1;stroke-dasharray:none"
       d="m 591.69967,87.338175 -2.57718,-2.432326 0,-36.684526 c 0,-40.2663711 -0.12101,-38.8821208 3.71766,-42.5271985 2.48498,-2.3596493 5.64466,-3.7356817 10.29919,-4.4852724 l 3.50906,-0.56511861 2.44021,2.58562851 2.4402,2.5856285 0.0152,41.9929155 0.0152,41.992916 -8.64114,-0.01516 -8.64114,-0.01517 -2.57718,-2.432321 z m 14.39759,-39.833467 c -0.002,-20.261203 -0.17872,-38.6852957 -0.39189,-40.9424285 -0.34221,-3.6236266 -0.55119,-4.1449435 -1.78571,-4.4547899 -1.88182,-0.4723059 -7.13074,1.335517 -9.38502,3.2323692 -1.00483,0.8455062 -2.41962,2.6626904 -3.14399,4.0381873 -1.30095,2.4703909 -1.31989,2.9429589 -1.55167,38.7330579 l -0.23465,36.232155 8.24862,0 8.24862,0 -0.004,-36.838551 z"
       id="path3935"
       inkscape:connector-curvature="0" />
    <path
       style="fill:#2c3e50;fill-opacity:1;stroke:#2c3e50;stroke-width:1.81918764;stroke-linejoin:miter;stroke-miterlimit:4;stroke-opacity:1;stroke-dasharray:none"
       d="m 639.54234,89.154707 c -1.45188,-0.288645 -3.77134,-1.196862 -5.15436,-2.018261 -3.51258,-2.086178 -8.99083,-7.722167 -9.87163,-10.155876 -0.50299,-1.389787 -0.75168,-7.091061 -0.78316,-17.95434 l -0.0461,-15.917892 -1.36439,-0.01516 c -0.75041,-0.0083 -2.52412,-1.10971 -3.94157,-2.447489 l -2.57718,-2.432324 0,-7.832308 0,-7.832308 3.78997,-0.180535 3.78997,-0.180534 0.3032,-6.091706 c 0.3143,-6.3146298 0.84504,-7.8050708 3.78613,-10.6321992 1.982,-1.9052046 5.67974,-3.4281336 10.02131,-4.1273242 l 3.79461,-0.61110349 2.40214,2.54482179 2.40214,2.5448216 0.0152,8.3379435 0.0152,8.337944 4.4249,0 c 4.34486,0 4.4667,0.04281 6.73543,2.366191 2.25801,2.312409 2.30079,2.439902 1.88248,5.609162 -0.96432,7.305835 -3.8509,10.9915 -9.47505,12.097982 l -3.56776,0.701915 0,13.303107 0,13.303107 1.82042,-1.296256 c 1.00123,-0.712939 2.09676,-1.812584 2.4345,-2.44366 0.56409,-1.054025 0.80332,-0.939556 2.93945,1.40656 2.48268,2.726725 4.32715,7.234491 4.32715,10.575253 0,6.898311 -9.57254,12.736357 -18.10288,11.040468 z m 5.36101,-6.70019 c 5.20915,-2.30186 7.28431,-5.296601 7.28431,-10.51226 0,-1.850909 -0.0682,-3.364151 -0.1516,-3.362751 -0.0834,0.0012 -1.49402,0.68359 -3.13475,1.51599 -3.05006,1.547395 -5.48415,1.893398 -6.91932,0.98358 -0.62398,-0.395564 -0.88492,-4.218132 -1.15287,-16.888472 l -0.34634,-16.377179 3.39626,-0.424334 c 6.14927,-0.7683 9.254,-4.181495 9.95157,-10.94028 l 0.34591,-3.351538 -6.75519,0 -6.75519,0 0,-10.69005 0,-10.6900505 -3.13376,0.4157074 c -5.849,0.7758968 -10.07944,3.4379353 -11.78127,7.4134507 -0.4502,1.0516844 -1.00262,4.5308804 -1.22761,7.7315474 l -0.40906,5.819395 -3.54887,0 -3.54887,0 0,7.276751 0,7.276751 3.5415,0 3.5415,0 0.3719,18.381496 c 0.2236,11.05179 0.64032,19.091745 1.04504,20.162664 1.22334,3.236984 4.78378,6.220876 9.08161,7.611027 2.17118,0.702273 7.12883,0.05209 10.3051,-1.351445 z"
       id="path3937"
       inkscape:connector-curvature="0" />
    <path
       style="fill:#2c3e50;fill-opacity:1;stroke:#2c3e50;stroke-width:1.81918764;stroke-linejoin:miter;stroke-miterlimit:4;stroke-opacity:1;stroke-dasharray:none"
       d="m 680.36367,89.546657 c -1.34583,-0.443433 -3.80174,-1.50143 -5.45756,-2.351112 -3.30909,-1.698054 -13.82009,-10.614592 -14.45108,-12.258936 -0.28777,-0.749926 1.12049,-2.678782 5.13387,-7.031697 3.04174,-3.299066 5.66104,-5.998301 5.82069,-5.998301 0.15964,0 1.69867,1.237075 3.42007,2.749055 4.9052,4.30844 11.55671,5.658227 13.1561,2.669754 0.52042,-0.972412 -0.0898,-1.46581 -4.86013,-3.929579 -5.80883,-3.000144 -14.53812,-10.09676 -17.57294,-14.286201 -3.50972,-4.845036 -3.87277,-11.873501 -0.92457,-17.899402 3.10549,-6.347396 9.40687,-10.009146 17.93893,-10.42436 7.81208,-0.380176 11.03432,0.75102 16.30653,5.724556 6.85239,6.464197 8.51362,11.287162 5.73712,16.656317 -1.00499,1.943434 -4.2673,4.792754 -5.48743,4.792754 -0.48214,0 -2.04677,-1.07861 -3.47696,-2.396911 -1.43019,-1.3183 -3.36791,-2.688739 -4.30605,-3.045419 -1.66152,-0.631708 -5.81617,-0.267586 -5.78548,0.50705 0.008,0.213021 1.89563,1.293805 4.19375,2.401743 2.29812,1.107937 5.63325,3.099891 7.41139,4.426564 4.81833,3.594956 10.57901,10.440348 12.01433,14.276569 3.53166,9.439219 -1.1004,19.901743 -10.75696,24.296955 -2.8737,1.307971 -4.53337,1.613219 -9.54268,1.755091 -3.86253,0.109394 -6.95229,-0.120952 -8.51094,-0.63449 l 0,0 z m 14.01214,-6.998821 c 6.71229,-3.30445 10.2579,-9.074029 10.26252,-16.699652 0.002,-3.428824 -0.32508,-4.912012 -1.70197,-7.715931 -2.1429,-4.363812 -5.0661,-6.884666 -13.35234,-11.514528 -6.52507,-3.645829 -10.10855,-6.18346 -10.10855,-7.158353 0,-1.248662 2.08036,-2.414993 4.30757,-2.414993 3.12296,0 6.42088,1.40653 8.88122,3.78775 l 1.97046,1.907095 1.66792,-1.243221 c 2.46462,-1.837068 3.89916,-4.700522 4.00217,-7.988612 0.13011,-4.153578 -2.08639,-7.32709 -6.69971,-9.592394 -3.1953,-1.569011 -4.10124,-1.726334 -9.88485,-1.716584 -5.52154,0.0093 -6.76984,0.208583 -9.39914,1.500446 -3.53394,1.736342 -7.53837,5.637838 -9.15429,8.91898 -0.79907,1.622516 -1.13768,3.649581 -1.14461,6.852124 -0.008,3.873551 0.23603,4.966207 1.64817,7.368378 2.22364,3.782599 5.6931,6.713348 13.52602,11.425821 6.74008,4.054989 9.98141,6.729866 9.98141,8.237064 0,0.474621 -0.54576,1.408704 -1.21279,2.075739 -2.31173,2.311727 -8.79293,1.222449 -13.10755,-2.202951 -1.20448,-0.956242 -2.53835,-1.991202 -2.96416,-2.299911 -0.55286,-0.40082 -1.79008,0.532776 -4.32756,3.265527 -5.34765,5.759177 -5.78223,6.549235 -4.72596,8.591821 1.3781,2.664959 8.58592,7.168417 13.44269,8.399013 1.25587,0.318212 4.97074,0.475548 8.25526,0.349636 5.2053,-0.199547 6.46812,-0.473244 9.83807,-2.132264 l 0,0 z"
       id="path3939"
       inkscape:connector-curvature="0" />
  </g>
</svg>
