<?xml version="1.0" encoding="UTF-8" standalone="no"?>
<!-- Created with Inkscape (http://www.inkscape.org/) -->

<svg
   xmlns:dc="http://purl.org/dc/elements/1.1/"
   xmlns:cc="http://creativecommons.org/ns#"
   xmlns:rdf="http://www.w3.org/1999/02/22-rdf-syntax-ns#"
   xmlns:svg="http://www.w3.org/2000/svg"
   xmlns="http://www.w3.org/2000/svg"
   xmlns:sodipodi="http://sodipodi.sourceforge.net/DTD/sodipodi-0.dtd"
   xmlns:inkscape="http://www.inkscape.org/namespaces/inkscape"
   width="744.09448819"
   height="1052.3622047"
   id="svg2"
   version="1.1"
   inkscape:version="0.48.5 r10040"
   inkscape:export-filename="/Applications/MAMP/htdocs/AuditSystemResults/img/AuditResultsTitleO3.png"
   inkscape:export-xdpi="90"
   inkscape:export-ydpi="90"
   sodipodi:docname="New document 1">
  <defs
     id="defs4">
    <filter
       style="color-interpolation-filters:sRGB;"
       inkscape:label="Drop Shadow"
       id="filter4000">
      <feFlood
         flood-opacity="0.33"
         flood-color="rgb(0,0,0)"
         result="flood"
         id="feFlood4002" />
      <feComposite
         in="flood"
         in2="SourceGraphic"
         operator="in"
         result="composite1"
         id="feComposite4004" />
      <feGaussianBlur
         in="composite"
         stdDeviation="1.9"
         result="blur"
         id="feGaussianBlur4006" />
      <feOffset
         dx="5.8"
         dy="1.9"
         result="offset"
         id="feOffset4008" />
      <feComposite
         in="SourceGraphic"
         in2="offset"
         operator="over"
         result="composite2"
         id="feComposite4010" />
    </filter>
    <filter
       style="color-interpolation-filters:sRGB;"
       inkscape:label="Drop Shadow"
       id="filter4187">
      <feFlood
         flood-opacity="0.33"
         flood-color="rgb(0,0,0)"
         result="flood"
         id="feFlood4189" />
      <feComposite
         in="flood"
         in2="SourceGraphic"
         operator="in"
         result="composite1"
         id="feComposite4191" />
      <feGaussianBlur
         in="composite"
         stdDeviation="4.1"
         result="blur"
         id="feGaussianBlur4193" />
      <feOffset
         dx="6.1"
         dy="-0.8"
         result="offset"
         id="feOffset4195" />
      <feComposite
         in="SourceGraphic"
         in2="offset"
         operator="over"
         result="composite2"
         id="feComposite4197" />
    </filter>
  </defs>
  <sodipodi:namedview
     id="base"
     pagecolor="#ffffff"
     bordercolor="#666666"
     borderopacity="1.0"
     inkscape:pageopacity="0.0"
     inkscape:pageshadow="2"
     inkscape:zoom="1.662297"
     inkscape:cx="-1964.2857"
     inkscape:cy="671.42857"
     inkscape:document-units="px"
     inkscape:current-layer="layer2"
     showgrid="false"
     inkscape:window-width="2560"
     inkscape:window-height="856"
     inkscape:window-x="1440"
     inkscape:window-y="0"
     inkscape:window-maximized="1" />
  <metadata
     id="metadata7">
    <rdf:RDF>
      <cc:Work
         rdf:about="">
        <dc:format>image/svg+xml</dc:format>
        <dc:type
           rdf:resource="http://purl.org/dc/dcmitype/StillImage" />
        <dc:title></dc:title>
      </cc:Work>
    </rdf:RDF>
  </metadata>
  <g
     inkscape:label="Layer 1"
     inkscape:groupmode="layer"
     id="layer1">
    <path
       style="fill:none;stroke:#13587c;stroke-width:12.60000038;stroke-linecap:round;stroke-linejoin:round;stroke-miterlimit:4;stroke-opacity:1;stroke-dasharray:none"
       d="m -2537.4527,465.6449 c 108.0871,41.59584 987.1097,-47.37106 1173.0755,32.45362"
       id="path4012"
       inkscape:connector-curvature="0"
       sodipodi:nodetypes="cc"
       inkscape:export-filename="/Applications/MAMP/htdocs/AuditSystemResults/img/AuditResultsTitle03.png"
       inkscape:export-xdpi="90"
       inkscape:export-ydpi="90" />
  </g>
  <g
     inkscape:groupmode="layer"
     id="layer3"
     inkscape:label="Layer#1"
     style="display:inline">
    <path
       sodipodi:nodetypes="cc"
       inkscape:connector-curvature="0"
       id="path4199"
       d="m -2537.4527,465.6449 c 108.0871,41.59584 987.1097,-47.37106 1173.0755,32.45362"
       style="fill:none;stroke:#acbfc6;stroke-width:6.3;stroke-linecap:round;stroke-linejoin:round;stroke-miterlimit:4;stroke-opacity:1;stroke-dasharray:none"
       inkscape:export-filename="/Applications/MAMP/htdocs/AuditSystemResults/img/AuditResultsTitle03.png"
       inkscape:export-xdpi="90"
       inkscape:export-ydpi="90" />
  </g>
  <g
     inkscape:groupmode="layer"
     id="layer4"
     inkscape:label="Layer#2"
     style="display:inline">
    <path
       style="fill:none;stroke:#fee066;stroke-width:2;stroke-linecap:round;stroke-linejoin:round;stroke-miterlimit:4;stroke-opacity:0.99555558;stroke-dasharray:none;display:inline"
       d="m -2537.4527,465.6449 c 108.0871,41.59584 987.1097,-47.37106 1173.0755,32.45362"
       id="path4202"
       inkscape:connector-curvature="0"
       sodipodi:nodetypes="cc"
       inkscape:export-xdpi="90"
       inkscape:export-ydpi="90"
       inkscape:export-filename="/Applications/MAMP/htdocs/AuditSystemResults/img/AuditResultsTitle03.png" />
  </g>
  <g
     inkscape:groupmode="layer"
     id="layer2"
     inkscape:label="Layer"
     style="display:inline">
    <g
       style="font-size:200px;font-style:normal;font-variant:normal;font-weight:normal;font-stretch:normal;line-height:125%;letter-spacing:0px;word-spacing:0px;fill:#13587c;fill-opacity:1;stroke:#13587c;font-family:Nickainley;-inkscape-font-specification:Nickainley;stroke-width:0.40000000000000002;stroke-miterlimit:4;stroke-dasharray:none;stroke-opacity:1;filter:url(#filter4000)"
       id="text2985"
       transform="translate(2e-5,2e-5)"
       inkscape:export-filename="/Applications/MAMP/htdocs/AuditSystemResults/img/AuditResultsTitle03.png"
       inkscape:export-xdpi="90"
       inkscape:export-ydpi="90">
      <path
         d="m -2337.25,283.61218 c 0.9998,3.66683 1.1665,8.25016 0.5,13.75 -0.5002,5.33349 -1.5835,11.16681 -3.25,17.5 -1.6669,6.33347 -3.7502,13.00013 -6.25,20 -2.3335,7.00011 -4.6669,13.83344 -7,20.5 -1.3335,3.33343 -2.5835,6.58343 -3.75,9.75 -1.0002,3.00009 -1.9168,5.75008 -2.75,8.25 l 0,0.25 c -0.5002,1.33341 -1.1668,3.00008 -2,5 -0.6668,2.00007 -1.5002,4.25007 -2.5,6.75 -2.5002,6.66673 -5.3335,14.33339 -8.5,23 -3.0002,8.50004 -5.9168,16.9167 -8.75,25.25 -2.6668,8.16668 -5.0002,15.66667 -7,22.5 -1.8335,6.99999 -2.7501,12.08332 -2.75,15.25 l 0,1 c -1e-4,2.99998 0.2499,5.83331 0.75,8.5 0.4999,2.8333 1.4165,5.24997 2.75,7.25 1.3332,1.8333 2.9998,3.24996 5,4.25 1.9998,1.16663 4.5832,1.74996 7.75,1.75 l 0.5,0 c 1.3332,-4e-5 2.4998,0.49996 3.5,1.5 1.1665,1.16662 1.7498,2.49996 1.75,4 -2e-4,1.33329 -0.5835,2.49995 -1.75,3.5 -1.0002,1.16662 -2.1668,1.74995 -3.5,1.75 l -0.5,0 c -5.3335,-0.16672 -9.7502,-1.25005 -13.25,-3.25 -3.3335,-1.83338 -6.0835,-4.41671 -8.25,-7.75 -2.0001,-3.00004 -3.4168,-6.4167 -4.25,-10.25 -0.8335,-3.66669 -1.2501,-7.41669 -1.25,-11.25 l 0,-0.25 0,-0.75 c -1e-4,-3.83335 0.9999,-9.41667 3,-16.75 1.9999,-7.16666 4.4165,-14.99998 7.25,-23.5 2.9998,-8.66663 6.0832,-17.33329 9.25,-26 3.1665,-8.83327 5.9998,-16.58327 8.5,-23.25 0.3332,-1.33326 0.6665,-2.24992 1,-2.75 l -53,0 c -5.1668,8.8334 -10.5001,17.41673 -16,25.75 -5.5001,8.16671 -11.0834,15.50003 -16.75,22 -5.5001,6.50002 -11.1667,11.91668 -17,16.25 -5.6667,4.16667 -11.4167,6.83334 -17.25,8 -1.5,0.33334 -3.0834,0.58334 -4.75,0.75 -1.5,0.16667 -2.9167,0.25 -4.25,0.25 -4.5,0 -8.8334,-0.58333 -13,-1.75 -4.1667,-1.33333 -7.9167,-3.16666 -11.25,-5.5 -7,-5.16665 -11.4167,-11.91664 -13.25,-20.25 -0.1667,-1.16664 -0.3333,-2.24997 -0.5,-3.25 0,-0.99997 0,-2.0833 0,-3.25 0,-6.16662 1.3333,-12.08328 4,-17.75 1.8333,-3.49994 4,-6.66661 6.5,-9.5 2.5,-2.99993 5.1667,-5.49993 8,-7.5 6.3333,-4.33326 13,-6.49992 20,-6.5 4.1666,8e-5 8,0.83341 11.5,2.5 1.3333,0.66674 2.2499,1.66674 2.75,3 0.4999,1.3334 0.4166,2.66674 -0.25,4 -0.6667,1.3334 -1.6667,2.25007 -3,2.75 -1.3334,0.50007 -2.6667,0.41673 -4,-0.25 -2.3334,-0.99993 -4.6667,-1.49993 -7,-1.5 -4.6667,7e-5 -9.3334,1.5834 -14,4.75 -4.8334,3.16673 -8.5,7.41672 -11,12.75 -0.8333,2.00005 -1.5833,4.16671 -2.25,6.5 -0.5,2.16671 -0.75,4.41671 -0.75,6.75 0,0.83337 0,1.58337 0,2.25 0.1667,0.6667 0.3333,1.4167 0.5,2.25 1,5.66669 4,10.16669 9,13.5 4.6666,3.50002 10.6666,5.25001 18,5.25 1.1666,10e-6 2.3333,10e-6 3.5,0 1.1666,10e-6 2.3333,-0.16665 3.5,-0.5 4.6666,-0.99998 9.3333,-3.24998 14,-6.75 4.8333,-3.66664 9.5833,-8.24997 14.25,-13.75 4.8333,-5.49996 9.5833,-11.74995 14.25,-18.75 4.8332,-7.16661 9.5832,-14.6666 14.25,-22.5 l -12.25,0 c -1.5001,8e-5 -2.8334,-0.49992 -4,-1.5 -1.0001,-1.16659 -1.5001,-2.41659 -1.5,-3.75 -1e-4,-1.49992 0.4999,-2.74992 1.5,-3.75 1.1666,-1.16658 2.4999,-1.74991 4,-1.75 l 18.5,0 c 3.1666,-5.49991 6.2499,-10.9999 9.25,-16.5 2.9999,-5.66656 5.9999,-11.16655 9,-16.5 5.8332,-10.99987 11.3332,-21.16653 16.5,-30.5 5.3332,-9.33317 10.2498,-16.9165 14.75,-22.75 1.8332,-2.16649 3.6665,-4.08316 5.5,-5.75 1.9998,-1.83315 4.1665,-3.41648 6.5,-4.75 4.6665,-2.83315 9.2498,-4.24981 13.75,-4.25 4.6665,1.9e-4 8.7498,1.50019 12.25,4.5 3.1665,3.00018 5.5831,6.91684 7.25,11.75 m -26,68 c 2.1665,-6.33322 4.3332,-12.74988 6.5,-19.25 2.3331,-6.49987 4.3331,-12.66653 6,-18.5 1.6665,-5.83319 2.8331,-11.08318 3.5,-15.75 0.6665,-4.83317 0.5831,-8.6665 -0.25,-11.5 -0.8335,-2.83316 -2.0835,-5.08316 -3.75,-6.75 -1.3335,-1.16649 -3.1669,-1.74982 -5.5,-1.75 -2.3335,-0.16649 -5.1668,0.66684 -8.5,2.5 -3.3335,2.00017 -6.2502,4.66684 -8.75,8 -4.3335,5.50016 -9.0835,12.83349 -14.25,22 -5.0001,9.1668 -10.4168,19.08346 -16.25,29.75 -2.5001,4.50011 -5.0835,9.16677 -7.75,14 -2.5001,4.66676 -5.0835,9.33342 -7.75,14 l 50.75,0 c 0.9998,-2.83324 1.9998,-5.58324 3,-8.25 0.9998,-2.83324 1.9998,-5.66657 3,-8.5"
         style="font-size:250px;stroke:#13587c;stroke-opacity:1;stroke-width:0.40000000000000002;stroke-miterlimit:4;stroke-dasharray:none;fill:#13587c;fill-opacity:1"
         id="path3758"
         inkscape:connector-curvature="0" />
      <path
         d="m -2245.8438,392.86218 c 1.3333,0.66673 2.2499,1.66673 2.75,3 0.4999,1.33339 0.4166,2.66672 -0.25,4 l -0.25,0.75 c -2.3334,5.33338 -5.0001,11.00004 -8,17 -2.8334,6.00003 -6.0834,11.58336 -9.75,16.75 -3.6667,5.16668 -7.8334,9.50001 -12.5,13 -4.5,3.33334 -9.5,5 -15,5 l -0.25,0 -0.25,0 c -3.3333,0 -6.1667,-0.66666 -8.5,-2 -2.3333,-1.33333 -4.1667,-3.08333 -5.5,-5.25 -1,-1.49999 -1.75,-3.16665 -2.25,-5 -0.5,-1.83332 -0.9167,-3.66665 -1.25,-5.5 -3.6667,5.16668 -7.75,9.41668 -12.25,12.75 -4.5,3.33334 -9.5833,5 -15.25,5 l -0.25,0 c -3.3333,0 -6.1666,-0.66666 -8.5,-2 -2.3333,-1.33333 -4.25,-3.08333 -5.75,-5.25 -1.3333,-1.99999 -2.2499,-4.16665 -2.75,-6.5 -0.4999,-2.33331 -0.7499,-4.74998 -0.75,-7.25 l 0,-0.75 c 1e-4,-3.83331 0.9167,-8.99997 2.75,-15.5 0.8334,-2.99996 1.6667,-6.16662 2.5,-9.5 1,-3.33328 2.1667,-6.74994 3.5,-10.25 0.6667,-1.83327 1.5834,-4.49994 2.75,-8 1.1667,-3.49993 2.6667,-7.66659 4.5,-12.5 2.1667,-5.83325 4.4167,-11.99991 6.75,-18.5 2.5,-6.66656 4.9167,-13.16655 7.25,-19.5 0.5,-1.33321 1.4167,-2.24988 2.75,-2.75 1.3334,-0.66655 2.6667,-0.74988 4,-0.25 1.3333,0.50012 2.25,1.41679 2.75,2.75 0.6667,1.33345 0.75,2.66678 0.25,4 -2.6667,7.33344 -5.1666,14.33343 -7.5,21 -2.3333,6.50009 -4.4166,12.16675 -6.25,17 -1.6666,4.50007 -3.1666,8.50007 -4.5,12 -1.1666,3.50006 -2.0833,6.16672 -2.75,8 -1.3333,3.50005 -2.5,6.83338 -3.5,10 -0.8333,3.16671 -1.6666,6.16671 -2.5,9 -0.6666,2.83337 -1.25,5.33337 -1.75,7.5 -0.3333,2.16669 -0.5,4.08336 -0.5,5.75 l 0,0.5 c 0,1.50002 0.083,3.00002 0.25,4.5 0.3334,1.33335 0.8334,2.50002 1.5,3.5 1.1667,1.66668 3.0834,2.50001 5.75,2.5 3.8334,10e-6 7.4167,-1.49999 10.75,-4.5 3.5,-2.99998 6.75,-6.74998 9.75,-11.25 3,-4.49997 5.75,-9.41663 8.25,-14.75 2.6667,-5.33328 5,-10.33328 7,-15 l 0,-0.25 c 0.1667,-0.16661 0.25,-0.41661 0.25,-0.75 0.6667,-1.83327 1.5833,-4.49994 2.75,-8 1.3333,-3.49993 2.8333,-7.66659 4.5,-12.5 2.3333,-5.83325 4.6667,-11.99991 7,-18.5 2.3333,-6.66656 4.6666,-13.16655 7,-19.5 0.5,-1.33321 1.4166,-2.24988 2.75,-2.75 1.3333,-0.66655 2.6666,-0.74988 4,-0.25 1.3333,0.50012 2.3333,1.41679 3,2.75 0.6666,1.33345 0.75,2.66678 0.25,4 -2.8334,7.33344 -5.4167,14.33343 -7.75,21 -2.3334,6.50009 -4.4167,12.16675 -6.25,17 -1.6667,4.50007 -3.0833,8.50007 -4.25,12 -1.1667,3.50006 -2.1667,6.16672 -3,8 l 0,0.25 c 0,0.16672 -0.083,0.33339 -0.25,0.5 0,0.16672 0,0.33339 0,0.5 -1.1667,3.33339 -2.25,6.50005 -3.25,9.5 -0.8333,3.00004 -1.5833,5.75004 -2.25,8.25 -1.5,5.50003 -2.25,9.91669 -2.25,13.25 l 0,0.5 c 0,1.50002 0.083,3.00002 0.25,4.5 0.3333,1.33335 0.8333,2.50002 1.5,3.5 1.1667,1.66668 3,2.50001 5.5,2.5 l 0.25,0 c 3.8333,10e-6 7.4166,-1.49999 10.75,-4.5 3.5,-2.99998 6.75,-6.74998 9.75,-11.25 3,-4.49997 5.75,-9.41663 8.25,-14.75 2.5,-5.33328 4.75,-10.33328 6.75,-15 l 0.5,-0.75 c 0.5,-1.33327 1.4166,-2.24994 2.75,-2.75 1.4999,-0.6666 2.9166,-0.6666 4.25,0"
         style="font-size:250px;stroke:#13587c;stroke-opacity:1;stroke-width:0.40000000000000002;stroke-miterlimit:4;stroke-dasharray:none;fill:#13587c;fill-opacity:1"
         id="path3760"
         inkscape:connector-curvature="0" />
      <path
         d="m -2138.5352,392.86218 c 1.3333,0.66673 2.2499,1.66673 2.75,3 0.6666,1.33339 0.6666,2.66672 0,4 -2.6667,5.66672 -5.2501,10.83338 -7.75,15.5 -2.5001,4.6667 -5.0001,8.9167 -7.5,12.75 -5.1667,7.83335 -10.5834,13.83335 -16.25,18 -3,2.00001 -6.25,3.50001 -9.75,4.5 -3.3334,1.16667 -6.75,1.75 -10.25,1.75 l -0.25,0 c -5.3334,0 -9.75,-1.83333 -13.25,-5.5 -1.5,-1.83332 -2.75,-3.99999 -3.75,-6.5 -0.8333,-2.66665 -1.25,-5.66665 -1.25,-9 l 0,-0.25 0,-0.5 0,-0.25 c -4.3333,6.33335 -9.1667,11.58335 -14.5,15.75 -5.3333,4 -11.25,5.91667 -17.75,5.75 -7,-0.16666 -12.1666,-2.99999 -15.5,-8.5 -1.8333,-2.49999 -3.0833,-5.41665 -3.75,-8.75 -0.6666,-3.49998 -0.9166,-7.24997 -0.75,-11.25 0,-3.49996 0.5,-7.74996 1.5,-12.75 1,-4.99995 2.3334,-10.33328 4,-16 1.6667,-5.6666 3.75,-11.41659 6.25,-17.25 2.5,-5.83325 5.25,-11.33324 8.25,-16.5 4.6667,-7.66656 9.9167,-14.08323 15.75,-19.25 5.8333,-5.16655 12.3333,-7.83321 19.5,-8 l 2.25,0 c 3.3333,0.33345 6.4166,1.25012 9.25,2.75 3,1.50012 5.6666,3.50012 8,6 0.5,0.83345 1,1.58344 1.5,2.25 0.6666,0.66678 1.1666,1.41678 1.5,2.25 0.8333,-2.16656 1.5833,-4.33322 2.25,-6.5 0.8333,-2.16655 1.6666,-4.33321 2.5,-6.5 l 5.5,-15.75 0,-0.25 1.5,-4.25 c 0.6666,-2.16652 1.5,-4.66652 2.5,-7.5 1.1666,-2.99985 2.4166,-6.49984 3.75,-10.5 0.4999,-1.33317 1.4166,-2.24984 2.75,-2.75 1.3333,-0.6665 2.6666,-0.74984 4,-0.25 1.3333,0.50016 2.2499,1.41683 2.75,2.75 0.6666,1.33349 0.7499,2.66682 0.25,4 -1.1667,3.16682 -2.2501,6.33348 -3.25,9.5 -1.0001,3.00014 -1.9167,5.66681 -2.75,8 l -1.5,4.5 -0.25,0.25 -5.25,15.75 c -3.6667,10.00011 -7.25,20.08343 -10.75,30.25 -3.5,10.00008 -7.0834,20.3334 -10.75,31 -1.1667,3.50005 -2.25,6.91672 -3.25,10.25 -0.8334,3.16671 -1.6667,6.16671 -2.5,9 -0.8334,2.6667 -1.5,5.1667 -2,7.5 -0.3334,2.16669 -0.5,4.00003 -0.5,5.5 l 0,0.5 c 0,3.83335 0.8333,6.58335 2.5,8.25 1.1666,1.50001 2.9166,2.25001 5.25,2.25 l 0.25,0 c 2,10e-6 4.4166,-0.41665 7.25,-1.25 2.5,-0.83332 4.75,-1.91665 6.75,-3.25 4.5,-3.16665 9,-8.16664 13.5,-15 4.4999,-6.99996 9.2499,-15.99995 14.25,-27 0.6666,-1.33327 1.6666,-2.24994 3,-2.75 1.3333,-0.49994 2.6666,-0.4166 4,0.25 m -99.25,48.5 c 5,0.16668 9.6667,-1.74998 14,-5.75 4.5,-4.16664 8.5833,-9.3333 12.25,-15.5 3.8333,-6.33329 7.25,-13.16662 10.25,-20.5 3.1667,-7.49994 6,-14.4166 8.5,-20.75 1.1666,-2.66659 2.1666,-5.16659 3,-7.5 1,-2.49991 1.9166,-4.74991 2.75,-6.75 0.1666,-0.49991 0.25,-1.08324 0.25,-1.75 -0.3334,-5.9999 -1.8334,-10.4999 -4.5,-13.5 -2.8334,-2.99989 -6.1667,-4.66656 -10,-5 -0.3333,-0.16656 -0.8333,-0.24989 -1.5,-0.25 -4.8333,0.16678 -9.5,2.33344 -14,6.5 -4.3333,4.16677 -8.4167,9.41676 -12.25,15.75 -2.8333,4.83342 -5.4166,9.91675 -7.75,15.25 -2.1666,5.3334 -4.0833,10.5834 -5.75,15.75 -1.5,5.16672 -2.75,10.08338 -3.75,14.75 -0.8333,4.50004 -1.25,8.33337 -1.25,11.5 0,6.33336 0.9167,11.00002 2.75,14 1.5,2.33335 3.8334,3.58335 7,3.75"
         style="font-size:250px;stroke:#13587c;stroke-opacity:1;stroke-width:0.40000000000000002;stroke-miterlimit:4;stroke-dasharray:none;fill:#13587c;fill-opacity:1"
         id="path3762"
         inkscape:connector-curvature="0" />
      <path
         d="m -2109.1133,321.36218 c -2.3334,1.3e-4 -4.4167,-0.8332 -6.25,-2.5 -1.6667,-1.66653 -2.5,-3.66653 -2.5,-6 0,-2.33319 0.8333,-4.33319 2.5,-6 1.8333,-1.66652 3.9166,-2.49985 6.25,-2.5 2.3333,1.5e-4 4.3333,0.83348 6,2.5 1.6666,1.66681 2.5,3.66681 2.5,6 0,2.33347 -0.8334,4.33347 -2.5,6 -1.6667,1.6668 -3.6667,2.50013 -6,2.5 m 16.5,71.5 c 1.3333,0.50006 2.25,1.50006 2.75,3 0.6666,1.33339 0.6666,2.66672 0,4 -2.3334,5.00005 -4.9167,10.41671 -7.75,16.25 -2.6667,5.83337 -5.75,11.33336 -9.25,16.5 -3.8334,5.66668 -8.1667,10.41668 -13,14.25 -4.8333,3.66667 -10.1667,5.5 -16,5.5 l -0.25,0 c -3.3333,0 -6.1667,-0.66666 -8.5,-2 -2.3333,-1.33333 -4.25,-3.08333 -5.75,-5.25 -1.3333,-1.99999 -2.25,-4.16665 -2.75,-6.5 -0.5,-2.33331 -0.75,-4.74998 -0.75,-7.25 l 0,-0.75 c 0,-3.83331 0.9167,-8.99997 2.75,-15.5 0.8334,-2.99996 1.6667,-6.16662 2.5,-9.5 1,-3.33328 2.1667,-6.74994 3.5,-10.25 0.3333,-1.33327 1,-3.24994 2,-5.75 1,-2.6666 2.1667,-5.9166 3.5,-9.75 1.3333,-3.83325 2.75,-7.83325 4.25,-12 1.5,-4.33324 3.0833,-8.58324 4.75,-12.75 0.1667,-0.66657 0.4167,-1.4999 0.75,-2.5 0.3333,-0.9999 0.75,-2.2499 1.25,-3.75 l 4.25,-11.5 c 0.3333,-1.33321 1.1667,-2.33321 2.5,-3 1.3333,-0.66655 2.6667,-0.74988 4,-0.25 1.3333,0.33345 2.3333,1.16679 3,2.5 0.6666,1.33345 0.75,2.66678 0.25,4 l -4,11.75 -2.25,6.25 c -1.8333,5.16676 -3.5,9.83342 -5,14 -1.5,4.16674 -2.8333,7.83341 -4,11 -1.1667,3.16673 -2.1667,6.00007 -3,8.5 -0.8333,2.50006 -1.5833,4.66672 -2.25,6.5 -1.3333,3.50005 -2.5,6.83338 -3.5,10 -0.8333,3.16671 -1.6667,6.16671 -2.5,9 -0.6667,2.83337 -1.25,5.33337 -1.75,7.5 -0.3333,2.16669 -0.5,4.08336 -0.5,5.75 l 0,0.5 c 0,1.50002 0.083,3.00002 0.25,4.5 0.3333,1.33335 0.8333,2.50002 1.5,3.5 1.1667,1.66668 3,2.50001 5.5,2.5 l 0.25,0 c 3.8333,10e-6 7.4167,-1.41665 10.75,-4.25 3.3333,-2.83331 6.5,-6.41664 9.5,-10.75 3.3333,-4.8333 6.25,-9.99996 8.75,-15.5 2.6666,-5.66662 5.0833,-10.91661 7.25,-15.75 0.6666,-1.33327 1.6666,-2.24994 3,-2.75 1.3333,-0.6666 2.6666,-0.6666 4,0"
         style="font-size:250px;stroke:#13587c;stroke-opacity:1;stroke-width:0.40000000000000002;stroke-miterlimit:4;stroke-dasharray:none;fill:#13587c;fill-opacity:1"
         id="path3764"
         inkscape:connector-curvature="0" />
      <path
         d="m -2040.4648,392.86218 c 1.3332,0.66673 2.2499,1.66673 2.75,3 0.4999,1.33339 0.4166,2.66672 -0.25,4 -2.6668,5.66672 -5.2501,10.83338 -7.75,15.5 -2.5001,4.6667 -5.0001,8.9167 -7.5,12.75 -5.1668,7.83335 -10.5834,13.83335 -16.25,18 -3.0001,2.00001 -6.1667,3.50001 -9.5,4.5 -3.3334,1.16667 -6.8334,1.75 -10.5,1.75 l -0.25,0 c -2.5001,0 -4.9167,-0.41666 -7.25,-1.25 -2.1667,-1 -4.0834,-2.41666 -5.75,-4.25 -3.5,-3.83332 -5.25,-8.99998 -5.25,-15.5 l 0,-0.25 0,-0.5 c 0,-3.83331 0.9166,-8.99997 2.75,-15.5 0.8333,-2.99996 1.6666,-6.16662 2.5,-9.5 1,-3.33328 2.1666,-6.74994 3.5,-10.25 0.3333,-1.33327 1,-3.24994 2,-5.75 0.9999,-2.6666 2.1666,-5.9166 3.5,-9.75 1.3333,-3.83325 2.7499,-7.83325 4.25,-12 1.4999,-4.16658 3.0833,-8.41657 4.75,-12.75 0.1666,-0.66657 0.5833,-1.91656 1.25,-3.75 0.6666,-1.99989 1.4999,-4.41656 2.5,-7.25 l -15.75,0 c -1.5,1.1e-4 -2.75,-0.49989 -3.75,-1.5 -1,-0.99989 -1.5,-2.24989 -1.5,-3.75 0,-1.33322 0.5,-2.49988 1.5,-3.5 1,-1.16655 2.25,-1.74988 3.75,-1.75 l 19.25,0 c 0.3333,-0.83321 0.6666,-1.74988 1,-2.75 0.3333,-0.99987 0.6666,-1.91654 1,-2.75 1.1666,-3.49987 2.3333,-6.91653 3.5,-10.25 1.1666,-3.49986 2.2499,-6.66652 3.25,-9.5 0.9999,-2.99985 1.8333,-5.49985 2.5,-7.5 0.8333,-2.16651 1.4166,-3.66651 1.75,-4.5 0.4999,-1.33317 1.4166,-2.33317 2.75,-3 1.3332,-0.6665 2.6666,-0.74984 4,-0.25 1.3332,0.50016 2.3332,1.41683 3,2.75 0.6666,1.33349 0.7499,2.66682 0.25,4 -0.3334,0.83349 -0.9168,2.33349 -1.75,4.5 -0.6668,2.00015 -1.5001,4.41681 -2.5,7.25 -1.0001,2.83347 -2.0834,6.00014 -3.25,9.5 -1.1668,3.50013 -2.3334,7.00013 -3.5,10.5 -0.1667,0.33346 -0.3334,0.66679 -0.5,1 -10e-5,0.33346 -0.083,0.66679 -0.25,1 l 16.75,0 c 1.4999,1.2e-4 2.7499,0.58345 3.75,1.75 0.9999,1.00012 1.4999,2.16678 1.5,3.5 -10e-5,1.50011 -0.5001,2.75011 -1.5,3.75 -1.0001,1.00011 -2.2501,1.50011 -3.75,1.5 l -20.5,0 c -1.1667,3.50011 -2.2501,6.5001 -3.25,9 -0.8334,2.5001 -1.4167,4.33343 -1.75,5.5 -1.8334,5.00009 -3.5001,9.66675 -5,14 -1.5001,4.16674 -2.8334,7.83341 -4,11 -1.1667,3.16673 -2.1667,6.00007 -3,8.5 -0.8334,2.50006 -1.5834,4.66672 -2.25,6.5 -1.3334,3.50005 -2.5001,6.83338 -3.5,10 -0.8334,3.16671 -1.6667,6.16671 -2.5,9 -0.6667,2.83337 -1.2501,5.33337 -1.75,7.5 -0.3334,2.16669 -0.5001,4.08336 -0.5,5.75 l 0,0.5 c -10e-5,3.83335 0.8333,6.58335 2.5,8.25 1.1666,1.50001 2.9166,2.25001 5.25,2.25 l 0.25,0 c 1.9999,10e-6 4.4166,-0.41665 7.25,-1.25 2.4999,-0.83332 4.7499,-1.91665 6.75,-3.25 2.3333,-1.66665 4.5833,-3.74998 6.75,-6.25 2.1666,-2.49997 4.4166,-5.41664 6.75,-8.75 2.3332,-3.49996 4.6666,-7.49996 7,-12 2.3332,-4.49995 4.7499,-9.49995 7.25,-15 0.6666,-1.33327 1.6666,-2.24994 3,-2.75 1.4999,-0.49994 2.9166,-0.4166 4.25,0.25"
         style="font-size:250px;stroke:#13587c;stroke-opacity:1;stroke-width:0.40000000000000002;stroke-miterlimit:4;stroke-dasharray:none;fill:#13587c;fill-opacity:1"
         id="path3766"
         inkscape:connector-curvature="0" />
      <path
         d="m -1834.4531,284.11218 c 4.8331,4.8335 8.3331,10.25016 10.5,16.25 2.3331,6.00015 3.3331,12.25014 3,18.75 l 0,0.25 c -0.3335,7.66679 -2.3335,15.25012 -6,22.75 -3.6669,7.33344 -9.1669,13.91677 -16.5,19.75 -7.3335,5.83342 -16.3335,10.25008 -27,13.25 6.8332,4.83341 11.3332,11.41674 13.5,19.75 2.3332,8.16672 3.4165,17.00004 3.25,26.5 -2e-4,5.50003 -0.2502,11.00002 -0.75,16.5 -0.5002,5.50001 -1.0835,10.66667 -1.75,15.5 -0.3335,3.66666 -0.6668,6.99999 -1,10 -0.3335,2.99999 -0.5835,5.66665 -0.75,8 l 0,0.75 0.25,0 c -2e-4,3.16665 0.2498,6.08331 0.75,8.75 0.4998,2.8333 1.4165,5.24997 2.75,7.25 1.3332,1.8333 2.9998,3.24996 5,4.25 1.9998,1.16663 4.5831,1.74996 7.75,1.75 l 0.5,0 c 1.3331,-4e-5 2.4998,0.49996 3.5,1.5 1.1665,1.16662 1.7498,2.49996 1.75,4 -2e-4,1.33329 -0.5835,2.49995 -1.75,3.5 -1.0002,1.16662 -2.1669,1.74995 -3.5,1.75 l -0.5,0 c -5.3335,-0.16672 -9.7502,-1.25005 -13.25,-3.25 -3.3335,-1.83338 -6.0835,-4.41671 -8.25,-7.75 -2.0002,-3.00004 -3.4168,-6.4167 -4.25,-10.25 -0.8335,-3.66669 -1.2502,-7.50002 -1.25,-11.5 l 0,-0.75 c 0.1665,-2.83335 0.4165,-5.83334 0.75,-9 0.3332,-3.16667 0.6665,-6.58333 1,-10.25 0.6665,-4.83333 1.2498,-9.83332 1.75,-15 0.4998,-5.33331 0.7498,-10.5833 0.75,-15.75 -2e-4,-5.49996 -0.4168,-10.74996 -1.25,-15.75 -0.6668,-5.16661 -2.1668,-9.66661 -4.5,-13.5 -2.3335,-3.99993 -5.5002,-7.1666 -9.5,-9.5 -4.0002,-2.49993 -9.2501,-3.74992 -15.75,-3.75 l -0.25,0 -0.25,0 -0.25,0 -0.25,0 -0.25,0 -0.25,-0.25 -0.25,0 -0.25,0 -0.25,-0.25 -0.25,0 -0.25,-0.25 -0.25,0 0,-0.25 c -0.1668,8e-5 -0.2501,-0.0833 -0.25,-0.25 l -0.25,0 -0.25,-0.25 -0.25,-0.25 0,-0.25 c -0.1668,8e-5 -0.2501,8e-5 -0.25,0 -10e-5,-0.16659 -0.083,-0.24992 -0.25,-0.25 -10e-5,-0.16659 -0.083,-0.33325 -0.25,-0.5 -10e-5,8e-5 -0.083,-0.16659 -0.25,-0.5 l 0,-0.5 c -10e-5,8e-5 -0.083,-0.16659 -0.25,-0.5 l 0,-0.5 0,-0.25 0,-0.25 0,-0.5 0,-0.25 0,-0.25 0,-0.25 c -10e-5,8e-5 0.083,-0.0833 0.25,-0.25 l 0,-0.25 0,-0.25 c -10e-5,8e-5 0.083,-0.0833 0.25,-0.25 l 0,-0.25 0.25,0 0,-0.25 c -10e-5,-0.16658 0.083,-0.24992 0.25,-0.25 -10e-5,8e-5 0.083,-0.0833 0.25,-0.25 l 0,-0.25 c -10e-5,8e-5 0.083,-0.0833 0.25,-0.25 0.1665,9e-5 0.2499,-0.0833 0.25,-0.25 l 0.25,0 c -10e-5,-0.16658 0.083,-0.24991 0.25,-0.25 0.1665,-0.16658 0.3332,-0.24991 0.5,-0.25 l 0,-0.25 0.5,0 c -10e-5,-0.16658 0.1665,-0.24991 0.5,-0.25 l 0.5,0 0,-0.25 0.5,0 0.25,0 c 9.9998,-0.33325 18.6665,-1.83324 26,-4.5 7.4998,-2.66657 13.9165,-6.08324 19.25,-10.25 5.9998,-4.83323 10.4998,-10.24989 13.5,-16.25 3.1665,-5.99988 4.9165,-12.0832 5.25,-18.25 l 0,-0.5 c 0.1665,-4.99986 -0.6669,-9.83319 -2.5,-14.5 -1.6669,-4.66651 -4.3335,-8.91651 -8,-12.75 -3.8335,-3.83317 -8.5835,-6.9165 -14.25,-9.25 -5.6668,-2.33316 -12.4168,-3.66649 -20.25,-4 l -0.5,0 -2.75,0 c -10.0001,1.8e-4 -19.1668,1.83351 -27.5,5.5 -8.1668,3.50017 -15.2501,8.5835 -21.25,15.25 -6.1668,7.00015 -11.0001,15.41681 -14.5,25.25 -3.5001,9.66679 -5.4168,20.75011 -5.75,33.25 -10e-5,0.5001 -0.083,1.08343 -0.25,1.75 -10e-5,0.66676 -10e-5,1.50009 0,2.5 -10e-5,1.50009 -0.5001,2.75009 -1.5,3.75 -1.0001,1.00009 -2.2501,1.50009 -3.75,1.5 -1.3334,9e-5 -2.5834,-0.49991 -3.75,-1.5 -1.0001,-0.99991 -1.5001,-2.24991 -1.5,-3.75 -10e-5,-0.66657 -10e-5,-1.33324 0,-2 -10e-5,-0.83324 0.083,-1.7499 0.25,-2.75 0.3333,-13.66655 2.4999,-25.91654 6.5,-36.75 3.9999,-10.99985 9.4999,-20.41651 16.5,-28.25 6.9999,-7.99983 15.2499,-14.08316 24.75,-18.25 9.6665,-4.16648 20.2499,-6.24981 31.75,-6.25 0.3332,1.9e-4 0.6665,0.0835 1,0.25 0.4998,1.9e-4 1.1665,1.9e-4 2,0 l 0.75,0 c 9.3332,0.33352 17.4165,2.00019 24.25,5 6.8331,2.83351 12.5831,6.66684 17.25,11.5 m -43.75,13.5 c -1.3335,1.16682 -2.6668,2.58349 -4,4.25 -1.3335,1.50015 -2.4168,3.16682 -3.25,5 -3.5001,6.50014 -6.6668,14.08347 -9.5,22.75 -2.8335,8.50012 -5.6668,17.41677 -8.5,26.75 -3.0001,9.83342 -6.1668,25.75008 -9.5,35.75 -3.1668,9.83339 -6.9168,19.00005 -11.25,27.5 -4.1668,8.50003 -9.0001,16.00003 -14.5,22.5 -5.5001,6.33335 -11.9168,10.91667 -19.25,13.75 -1.5001,0.5 -3.0001,1 -4.5,1.5 -1.5001,0.33334 -3.0001,0.66667 -4.5,1 -8.8334,1.5 -17.0834,0.41667 -24.75,-3.25 -7.8334,-3.66666 -13.3334,-9.33332 -16.5,-17 0,-0.16664 -0.083,-0.24998 -0.25,-0.25 0,2e-5 0,-0.0833 0,-0.25 -0.3334,-0.99998 -0.6667,-1.99997 -1,-3 -0.1667,-0.99997 -0.4167,-2.0833 -0.75,-3.25 -1,-5.8333 -0.6667,-11.83329 1,-18 l 0,-0.25 c 1,-3.83328 2.5,-7.33328 4.5,-10.5 2,-3.16661 4.3333,-6.08327 7,-8.75 5.5,-5.33326 11.5833,-8.58326 18.25,-9.75 3.8333,-0.66659 7.8333,-0.49992 12,0.5 1.3333,0.33341 2.3333,1.16674 3,2.5 0.6666,1.33341 0.8333,2.66674 0.5,4 -0.3334,1.3334 -1.1667,2.41673 -2.5,3.25 -1.3334,0.66673 -2.6667,0.8334 -4,0.5 -2.1667,-0.6666 -4.5834,-0.74993 -7.25,-0.25 -4.6667,0.8334 -8.9167,3.16673 -12.75,7 -4.1667,3.83339 -7,8.58338 -8.5,14.25 l 0,0.25 c -1.3334,4.33337 -1.5834,8.83337 -0.75,13.5 0.1666,1.33336 0.5833,2.75003 1.25,4.25 l 0,0.25 c 2.3333,5.33335 6.0833,9.16668 11.25,11.5 5.6666,2.66668 11.8333,3.41668 18.5,2.25 1.1666,-0.33332 2.3333,-0.58332 3.5,-0.75 1.1666,-0.33332 2.3333,-0.74999 3.5,-1.25 6.1666,-2.33332 11.5832,-6.41665 16.25,-12.25 4.8332,-5.8333 9.0832,-12.66663 12.75,-20.5 3.8332,-7.99994 7.2499,-16.58327 10.25,-25.75 3.1666,-9.33325 6.1665,-24.66657 9,-34 2.8332,-9.66656 5.7499,-18.91655 8.75,-27.75 2.9999,-8.8332 6.2499,-16.74985 9.75,-23.75 1.3332,-2.33318 2.8332,-4.49984 4.5,-6.5 1.6665,-2.1665 3.4165,-4.1665 5.25,-6 3.9998,-3.33316 8.3332,-5.49983 13,-6.5 1.4998,-0.33316 2.8332,1.7e-4 4,1 1.1665,0.8335 1.9165,2.00017 2.25,3.5 0.3332,1.3335 -2e-4,2.5835 -1,3.75 -0.8335,1.16683 -2.0002,1.91683 -3.5,2.25 -2.6668,0.50016 -5.2502,1.91683 -7.75,4.25"
         style="font-size:250px;fill:#13587c;fill-opacity:1;stroke:#13587c;stroke-width:0.40000001;stroke-miterlimit:4;stroke-opacity:1;stroke-dasharray:none"
         id="path3768"
         inkscape:connector-curvature="0"
         sodipodi:nodetypes="cccccsccccccccccccccccccccccccccccccccccccccccccccccccccccccccccccccccccccccccccccccccccccccccccccccccccccccscccccccccccccccccccccccccccccccccccccccccccccccccccccccccccccccccc" />
      <path
         d="m -1726.8125,392.86218 c 1.3332,0.66673 2.2499,1.66673 2.75,3 0.4999,1.33339 0.4999,2.66672 0,4 -4.8334,10.66671 -10.0834,19.4167 -15.75,26.25 -5.6668,6.66669 -11.6667,12.00002 -18,16 -6.3334,4.00001 -12.7501,6.75001 -19.25,8.25 -6.5,1.5 -12.9167,2.08334 -19.25,1.75 l -0.5,0 -0.25,0 c -4.5,-0.33333 -8.75,-1.16666 -12.75,-2.5 -3.8333,-1.33333 -7.1667,-3.41666 -10,-6.25 -3,-2.83332 -5.3333,-6.33332 -7,-10.5 -1.6667,-4.16664 -2.4167,-9.0833 -2.25,-14.75 l 0,-0.5 0,-0.25 c 0.1667,-3.33329 0.5833,-6.74996 1.25,-10.25 0.6667,-3.49995 1.5,-7.08328 2.5,-10.75 0,-0.16661 0,-0.24994 0,-0.25 0.1667,6e-5 0.25,-0.0833 0.25,-0.25 1.6667,-5.6666 3.6667,-10.99993 6,-16 2.8333,-6.49992 6.0833,-12.66658 9.75,-18.5 3.8333,-5.83323 7.75,-10.91656 11.75,-15.25 3.8333,-3.83322 7.9166,-6.74988 12.25,-8.75 4.3333,-2.33321 8.7499,-3.49988 13.25,-3.5 5.6666,1.2e-4 10.1666,1.25012 13.5,3.75 3.6666,2.33345 6.0833,5.83344 7.25,10.5 0.4999,1.83344 0.6666,3.83344 0.5,6 -0.1667,2.16677 -0.5834,4.33343 -1.25,6.5 -1.0001,3.33342 -2.5834,6.58342 -4.75,9.75 -2.0001,3.00008 -4.4167,5.66675 -7.25,8 -3.3334,2.83341 -7.0001,5.3334 -11,7.5 -3.8334,2.16673 -7.8334,4.16673 -12,6 -5.8334,2.50006 -11.3334,4.58339 -16.5,6.25 -5.1667,1.66672 -9.25,2.91672 -12.25,3.75 -0.8333,2.83338 -1.5,5.58338 -2,8.25 -0.3333,2.66671 -0.5833,5.25004 -0.75,7.75 l 0,0.5 c -0.1667,7.83336 1.8333,13.58336 6,17.25 1.8333,1.83335 4.0833,3.25002 6.75,4.25 2.8333,1.00001 5.9166,1.58335 9.25,1.75 l 0.5,0 c 5.3333,0.16668 10.75,-0.33332 16.25,-1.5 5.6666,-1.33332 11.1666,-3.66665 16.5,-7 5.3333,-3.33331 10.4999,-7.99997 15.5,-14 5.1666,-6.16662 9.8332,-13.99995 14,-23.5 0.6666,-1.33327 1.6666,-2.24994 3,-2.75 1.3332,-0.49994 2.6666,-0.49994 4,0 m -82.75,-8.75 c -0.3334,1.00007 -0.75,2.00007 -1.25,3 -0.3334,0.8334 -0.6667,1.75007 -1,2.75 2.8333,-0.83327 6,-1.83327 9.5,-3 3.5,-1.33326 7.1666,-2.9166 11,-4.75 3.6666,-1.66659 7.25,-3.49992 10.75,-5.5 3.6666,-1.99992 6.9166,-4.16658 9.75,-6.5 4.3333,-3.49991 7.2499,-7.74991 8.75,-12.75 0.8333,-2.66657 0.9999,-4.9999 0.5,-7 -0.5001,-1.83323 -1.4167,-3.16656 -2.75,-4 -1.8334,-1.33322 -4.4167,-1.99989 -7.75,-2 -2.8334,1.1e-4 -5.7501,0.75011 -8.75,2.25 -1.5,0.83344 -3.0834,1.83344 -4.75,3 -1.5,1.16677 -2.9167,2.5001 -4.25,4 -3.6667,3.83343 -7.25,8.41676 -10.75,13.75 -3.3334,5.33342 -6.3334,10.91674 -9,16.75"
         style="font-size:250px;stroke:#13587c;stroke-opacity:1;stroke-width:0.40000000000000002;stroke-miterlimit:4;stroke-dasharray:none;fill:#13587c;fill-opacity:1"
         id="path3770"
         inkscape:connector-curvature="0" />
      <path
         d="m -1670.2422,368.36218 c 3.4999,6.00008 6.7499,12.16674 9.75,18.5 2.9999,6.3334 4.5833,13.25005 4.75,20.75 l 0,0.25 0,0.25 c -0.1667,7.50004 -1.6667,14.00003 -4.5,19.5 -2.6667,5.50002 -6.1667,10.08335 -10.5,13.75 -4.3334,3.66668 -9.25,6.41667 -14.75,8.25 -5.3334,1.66667 -10.6667,2.58334 -16,2.75 l -0.25,0 c -0.5,0 -1,0 -1.5,0 -0.3334,-0.16666 -0.6667,-0.25 -1,-0.25 -5.3333,-0.33333 -10.1667,-1.5 -14.5,-3.5 -4.1667,-2.16666 -7.8333,-4.91666 -11,-8.25 -3,-3.33332 -5.3333,-7.08331 -7,-11.25 -1.6667,-4.3333 -2.5,-8.74997 -2.5,-13.25 l 0,-2.25 c 0.3333,-4.66662 1.3333,-9.08328 3,-13.25 1.8333,-4.33327 4.3333,-8.1666 7.5,-11.5 2.8333,-3.1666 6.25,-5.58326 10.25,-7.25 4,-1.83326 8.4167,-2.83326 13.25,-3 3,8e-5 6,0.66674 9,2 3,1.33341 5.6666,3.25007 8,5.75 2,2.16673 3.5833,4.75006 4.75,7.75 1.3333,3.00006 2.0833,6.25005 2.25,9.75 0,1.50005 -0.5,2.75005 -1.5,3.75 -1,1.00005 -2.25,1.50005 -3.75,1.5 -1.5,5e-5 -2.75,-0.49995 -3.75,-1.5 -1,-0.99995 -1.5,-2.24995 -1.5,-3.75 -0.1667,-4.16661 -1.5834,-7.66661 -4.25,-10.5 -2.5,-2.83327 -5.5,-4.24993 -9,-4.25 -3.3334,7e-5 -6.3333,0.66673 -9,2 -2.6667,1.16673 -5,2.83339 -7,5 -2.3333,2.33339 -4.1667,5.16672 -5.5,8.5 -1.1667,3.16671 -1.9167,6.41671 -2.25,9.75 l 0,1.5 c 0,6.6667 2.25,12.41669 6.75,17.25 2.1667,2.33335 4.75,4.25002 7.75,5.75 3.1667,1.50001 6.6666,2.41668 10.5,2.75 0.5,0.16668 1.1666,0.25001 2,0.25 l 0.25,0 c 4.1666,-0.16665 8.3333,-0.91665 12.5,-2.25 4.1666,-1.33332 8,-3.41665 11.5,-6.25 3.3333,-2.83331 5.9999,-6.33331 8,-10.5 1.9999,-4.16663 3.0833,-9.16663 3.25,-15 l 0,-0.25 c -0.1667,-5.99995 -1.5834,-11.83327 -4.25,-17.5 -2.6667,-5.6666 -5.5834,-11.16659 -8.75,-16.5 -0.8334,-1.33325 -1.5834,-2.49992 -2.25,-3.5 -0.5,-1.16658 -1.1667,-2.41658 -2,-3.75 -1.8334,1.83342 -3.5,3.75008 -5,5.75 -1,1.16675 -2.25,1.83341 -3.75,2 -1.3334,8e-5 -2.5834,-0.49992 -3.75,-1.5 -1.1667,-0.83325 -1.8334,-1.91658 -2,-3.25 0,-1.49991 0.4166,-2.83324 1.25,-4 2.6666,-3.16657 5.4166,-6.16657 8.25,-9 l 0.25,-0.25 c -1.5,-3.4999 -2.5834,-7.08323 -3.25,-10.75 -0.6667,-3.66655 -0.6667,-7.41655 0,-11.25 0.1666,-2.16654 0.8333,-4.49987 2,-7 0,-0.16654 0,-0.24987 0,-0.25 0.1666,1.3e-4 0.25,-0.0832 0.25,-0.25 1,-2.16654 2.4166,-4.16653 4.25,-6 1.5,-1.49986 3.25,-2.66653 5.25,-3.5 2,-0.99986 3.9999,-1.49986 6,-1.5 3.6666,0.33347 6.5833,1.75014 8.75,4.25 1.8333,1.83347 2.9166,4.75013 3.25,8.75 -10e-5,1.16679 -0.083,2.33346 -0.25,3.5 -0.1667,1.16679 -0.4167,2.33345 -0.75,3.5 -0.3334,1.33345 -0.7501,2.58345 -1.25,3.75 -0.3334,1.16678 -0.7501,2.33345 -1.25,3.5 -1.3334,3.00011 -2.9167,5.75011 -4.75,8.25 -1.8334,2.5001 -3.7501,4.91677 -5.75,7.25 0.8333,1.66676 1.7499,3.33343 2.75,5 0.9999,1.50009 1.9166,3.16676 2.75,5 m -10,-21 c 1,-1.33322 1.9166,-2.74989 2.75,-4.25 1,-1.49989 1.9166,-3.08322 2.75,-4.75 0.3333,-0.83322 0.6666,-1.66655 1,-2.5 0.3333,-0.99988 0.5833,-1.91655 0.75,-2.75 0.4999,-1.66654 0.6666,-3.16654 0.5,-4.5 -10e-5,-1.16654 -0.1667,-1.83321 -0.5,-2 -10e-5,-0.16654 -0.2501,-0.24987 -0.75,-0.25 -0.3334,-0.16654 -0.9167,-0.0832 -1.75,0.25 -1,0.66679 -1.75,1.25013 -2.25,1.75 -0.8334,0.83346 -1.5,1.83346 -2,3 l -0.25,0.25 c -0.6667,1.50012 -1.0834,2.91679 -1.25,4.25 -0.5,3.83345 -0.1667,7.66678 1,11.5"
         style="font-size:250px;stroke:#13587c;stroke-opacity:1;stroke-width:0.40000000000000002;stroke-miterlimit:4;stroke-dasharray:none;fill:#13587c;fill-opacity:1"
         id="path3772"
         inkscape:connector-curvature="0" />
      <path
         d="m -1539.3008,392.86218 c 1.3332,0.66673 2.2499,1.66673 2.75,3 0.4999,1.33339 0.4166,2.66672 -0.25,4 l -0.25,0.75 c -2.3334,5.33338 -5.0001,11.00004 -8,17 -2.8334,6.00003 -6.0834,11.58336 -9.75,16.75 -3.6667,5.16668 -7.8334,9.50001 -12.5,13 -4.5001,3.33334 -9.5,5 -15,5 l -0.25,0 -0.25,0 c -3.3334,0 -6.1667,-0.66666 -8.5,-2 -2.3334,-1.33333 -4.1667,-3.08333 -5.5,-5.25 -1,-1.49999 -1.75,-3.16665 -2.25,-5 -0.5,-1.83332 -0.9167,-3.66665 -1.25,-5.5 -3.6667,5.16668 -7.75,9.41668 -12.25,12.75 -4.5,3.33334 -9.5833,5 -15.25,5 l -0.25,0 c -3.3333,0 -6.1667,-0.66666 -8.5,-2 -2.3333,-1.33333 -4.25,-3.08333 -5.75,-5.25 -1.3333,-1.99999 -2.25,-4.16665 -2.75,-6.5 -0.5,-2.33331 -0.75,-4.74998 -0.75,-7.25 l 0,-0.75 c 0,-3.83331 0.9167,-8.99997 2.75,-15.5 0.8334,-2.99996 1.6667,-6.16662 2.5,-9.5 1,-3.33328 2.1667,-6.74994 3.5,-10.25 0.6667,-1.83327 1.5833,-4.49994 2.75,-8 1.1667,-3.49993 2.6667,-7.66659 4.5,-12.5 2.1667,-5.83325 4.4167,-11.99991 6.75,-18.5 2.5,-6.66656 4.9167,-13.16655 7.25,-19.5 0.5,-1.33321 1.4167,-2.24988 2.75,-2.75 1.3333,-0.66655 2.6667,-0.74988 4,-0.25 1.3333,0.50012 2.25,1.41679 2.75,2.75 0.6666,1.33345 0.75,2.66678 0.25,4 -2.6667,7.33344 -5.1667,14.33343 -7.5,21 -2.3333,6.50009 -4.4167,12.16675 -6.25,17 -1.6667,4.50007 -3.1667,8.50007 -4.5,12 -1.1667,3.50006 -2.0833,6.16672 -2.75,8 -1.3333,3.50005 -2.5,6.83338 -3.5,10 -0.8333,3.16671 -1.6667,6.16671 -2.5,9 -0.6667,2.83337 -1.25,5.33337 -1.75,7.5 -0.3333,2.16669 -0.5,4.08336 -0.5,5.75 l 0,0.5 c 0,1.50002 0.083,3.00002 0.25,4.5 0.3333,1.33335 0.8333,2.50002 1.5,3.5 1.1667,1.66668 3.0833,2.50001 5.75,2.5 3.8333,10e-6 7.4167,-1.49999 10.75,-4.5 3.5,-2.99998 6.75,-6.74998 9.75,-11.25 3,-4.49997 5.75,-9.41663 8.25,-14.75 2.6666,-5.33328 5,-10.33328 7,-15 l 0,-0.25 c 0.1666,-0.16661 0.25,-0.41661 0.25,-0.75 0.6666,-1.83327 1.5833,-4.49994 2.75,-8 1.3333,-3.49993 2.8333,-7.66659 4.5,-12.5 2.3333,-5.83325 4.6666,-11.99991 7,-18.5 2.3333,-6.66656 4.6666,-13.16655 7,-19.5 0.4999,-1.33321 1.4166,-2.24988 2.75,-2.75 1.3333,-0.66655 2.6666,-0.74988 4,-0.25 1.3333,0.50012 2.3333,1.41679 3,2.75 0.6666,1.33345 0.7499,2.66678 0.25,4 -2.8334,7.33344 -5.4167,14.33343 -7.75,21 -2.3334,6.50009 -4.4167,12.16675 -6.25,17 -1.6667,4.50007 -3.0834,8.50007 -4.25,12 -1.1667,3.50006 -2.1667,6.16672 -3,8 l 0,0.25 c 0,0.16672 -0.083,0.33339 -0.25,0.5 0,0.16672 0,0.33339 0,0.5 -1.1667,3.33339 -2.25,6.50005 -3.25,9.5 -0.8334,3.00004 -1.5834,5.75004 -2.25,8.25 -1.5,5.50003 -2.25,9.91669 -2.25,13.25 l 0,0.5 c 0,1.50002 0.083,3.00002 0.25,4.5 0.3333,1.33335 0.8333,2.50002 1.5,3.5 1.1666,1.66668 3,2.50001 5.5,2.5 l 0.25,0 c 3.8333,10e-6 7.4166,-1.49999 10.75,-4.5 3.4999,-2.99998 6.7499,-6.74998 9.75,-11.25 2.9999,-4.49997 5.7499,-9.41663 8.25,-14.75 2.4999,-5.33328 4.7499,-10.33328 6.75,-15 l 0.5,-0.75 c 0.4999,-1.33327 1.4166,-2.24994 2.75,-2.75 1.4999,-0.6666 2.9166,-0.6666 4.25,0"
         style="font-size:250px;stroke:#13587c;stroke-opacity:1;stroke-width:0.40000000000000002;stroke-miterlimit:4;stroke-dasharray:none;fill:#13587c;fill-opacity:1"
         id="path3774"
         inkscape:connector-curvature="0" />
      <path
         d="m -1486.9922,392.86218 c 1.3333,0.66673 2.2499,1.66673 2.75,3 0.4999,1.33339 0.4166,2.66672 -0.25,4 -2.6667,5.66672 -5.25,10.83338 -7.75,15.5 -2.5,4.6667 -5,8.9167 -7.5,12.75 -5.1667,7.83335 -10.5834,13.83335 -16.25,18 -3,2.00001 -6.1667,3.50001 -9.5,4.5 -3.3333,1.16667 -6.8333,1.75 -10.5,1.75 l -0.25,0 c -2.5,0 -4.9167,-0.41666 -7.25,-1.25 -2.1667,-1 -4.0833,-2.41666 -5.75,-4.25 -3.5,-3.83332 -5.25,-8.99998 -5.25,-15.5 l 0,-0.25 0,-0.5 c 0,-3.99997 0.9167,-9.16663 2.75,-15.5 0.8333,-2.99996 1.75,-6.16662 2.75,-9.5 1,-3.33328 2.0833,-6.74994 3.25,-10.25 3.3333,-9.99993 6.8333,-20.08325 10.5,-30.25 3.6667,-10.33323 7.3333,-20.74989 11,-31.25 l 5.5,-16 1.5,-4.25 c 0.8333,-2.16652 1.75,-4.74985 2.75,-7.75 1,-2.99985 2.1666,-6.41651 3.5,-10.25 0.5,-1.33317 1.4166,-2.24984 2.75,-2.75 1.3333,-0.6665 2.6666,-0.83317 4,-0.5 1.3333,0.50016 2.3333,1.41683 3,2.75 0.6666,1.33349 0.75,2.66682 0.25,4 -1.1667,3.33349 -2.3334,6.58348 -3.5,9.75 -1,3.00014 -1.9167,5.66681 -2.75,8 -0.3334,0.83347 -0.5834,1.58347 -0.75,2.25 -0.1667,0.6668 -0.4167,1.4168 -0.75,2.25 l -5.5,16 c -3.5,10.00011 -7.0834,20.08343 -10.75,30.25 -3.5,10.00008 -7.0833,20.3334 -10.75,31 -1.1667,3.50005 -2.25,6.91672 -3.25,10.25 -0.8333,3.16671 -1.6667,6.16671 -2.5,9 -0.8333,2.6667 -1.5,5.1667 -2,7.5 -0.3333,2.16669 -0.5,4.00003 -0.5,5.5 l 0,0.5 c 0,3.83335 0.8333,6.58335 2.5,8.25 1.1667,1.50001 2.9167,2.25001 5.25,2.25 l 0.25,0 c 2,10e-6 4.4167,-0.41665 7.25,-1.25 2.5,-0.83332 4.75,-1.91665 6.75,-3.25 2.3333,-1.66665 4.5833,-3.74998 6.75,-6.25 2.1666,-2.49997 4.4166,-5.41664 6.75,-8.75 2.3333,-3.49996 4.6666,-7.49996 7,-12 2.3333,-4.49995 4.75,-9.49995 7.25,-15 0.6666,-1.33327 1.6666,-2.24994 3,-2.75 1.5,-0.49994 2.9166,-0.4166 4.25,0.25"
         style="font-size:250px;stroke:#13587c;stroke-opacity:1;stroke-width:0.40000000000000002;stroke-miterlimit:4;stroke-dasharray:none;fill:#13587c;fill-opacity:1"
         id="path3776"
         inkscape:connector-curvature="0" />
      <path
         d="m -1434.9961,392.86218 c 1.3333,0.66673 2.2499,1.66673 2.75,3 0.4999,1.33339 0.4166,2.66672 -0.25,4 -2.6667,5.66672 -5.2501,10.83338 -7.75,15.5 -2.5,4.6667 -5,8.9167 -7.5,12.75 -5.1667,7.83335 -10.5834,13.83335 -16.25,18 -3,2.00001 -6.1667,3.50001 -9.5,4.5 -3.3333,1.16667 -6.8333,1.75 -10.5,1.75 l -0.25,0 c -2.5,0 -4.9167,-0.41666 -7.25,-1.25 -2.1667,-1 -4.0833,-2.41666 -5.75,-4.25 -3.5,-3.83332 -5.25,-8.99998 -5.25,-15.5 l 0,-0.25 0,-0.5 c 0,-3.83331 0.9167,-8.99997 2.75,-15.5 0.8333,-2.99996 1.6667,-6.16662 2.5,-9.5 1,-3.33328 2.1667,-6.74994 3.5,-10.25 0.3333,-1.33327 1,-3.24994 2,-5.75 1,-2.6666 2.1667,-5.9166 3.5,-9.75 1.3333,-3.83325 2.75,-7.83325 4.25,-12 1.5,-4.16658 3.0833,-8.41657 4.75,-12.75 0.1667,-0.66657 0.5833,-1.91656 1.25,-3.75 0.6667,-1.99989 1.5,-4.41656 2.5,-7.25 l -15.75,0 c -1.5,1.1e-4 -2.75,-0.49989 -3.75,-1.5 -1,-0.99989 -1.5,-2.24989 -1.5,-3.75 0,-1.33322 0.5,-2.49988 1.5,-3.5 1,-1.16655 2.25,-1.74988 3.75,-1.75 l 19.25,0 c 0.3333,-0.83321 0.6666,-1.74988 1,-2.75 0.3333,-0.99987 0.6666,-1.91654 1,-2.75 1.1666,-3.49987 2.3333,-6.91653 3.5,-10.25 1.1666,-3.49986 2.25,-6.66652 3.25,-9.5 1,-2.99985 1.8333,-5.49985 2.5,-7.5 0.8333,-2.16651 1.4166,-3.66651 1.75,-4.5 0.5,-1.33317 1.4166,-2.33317 2.75,-3 1.3333,-0.6665 2.6666,-0.74984 4,-0.25 1.3333,0.50016 2.3333,1.41683 3,2.75 0.6666,1.33349 0.75,2.66682 0.25,4 -0.3334,0.83349 -0.9167,2.33349 -1.75,4.5 -0.6667,2.00015 -1.5,4.41681 -2.5,7.25 -1,2.83347 -2.0834,6.00014 -3.25,9.5 -1.1667,3.50013 -2.3334,7.00013 -3.5,10.5 -0.1667,0.33346 -0.3334,0.66679 -0.5,1 0,0.33346 -0.083,0.66679 -0.25,1 l 16.75,0 c 1.5,1.2e-4 2.7499,0.58345 3.75,1.75 0.9999,1.00012 1.4999,2.16678 1.5,3.5 -10e-5,1.50011 -0.5001,2.75011 -1.5,3.75 -1.0001,1.00011 -2.25,1.50011 -3.75,1.5 l -20.5,0 c -1.1667,3.50011 -2.25,6.5001 -3.25,9 -0.8334,2.5001 -1.4167,4.33343 -1.75,5.5 -1.8334,5.00009 -3.5,9.66675 -5,14 -1.5,4.16674 -2.8333,7.83341 -4,11 -1.1667,3.16673 -2.1667,6.00007 -3,8.5 -0.8333,2.50006 -1.5833,4.66672 -2.25,6.5 -1.3333,3.50005 -2.5,6.83338 -3.5,10 -0.8333,3.16671 -1.6667,6.16671 -2.5,9 -0.6667,2.83337 -1.25,5.33337 -1.75,7.5 -0.3333,2.16669 -0.5,4.08336 -0.5,5.75 l 0,0.5 c 0,3.83335 0.8333,6.58335 2.5,8.25 1.1667,1.50001 2.9167,2.25001 5.25,2.25 l 0.25,0 c 2,10e-6 4.4167,-0.41665 7.25,-1.25 2.5,-0.83332 4.75,-1.91665 6.75,-3.25 2.3333,-1.66665 4.5833,-3.74998 6.75,-6.25 2.1666,-2.49997 4.4166,-5.41664 6.75,-8.75 2.3333,-3.49996 4.6666,-7.49996 7,-12 2.3333,-4.49995 4.75,-9.49995 7.25,-15 0.6666,-1.33327 1.6666,-2.24994 3,-2.75 1.4999,-0.49994 2.9166,-0.4166 4.25,0.25"
         style="font-size:250px;stroke:#13587c;stroke-opacity:1;stroke-width:0.40000000000000002;stroke-miterlimit:4;stroke-dasharray:none;fill:#13587c;fill-opacity:1"
         id="path3778"
         inkscape:connector-curvature="0" />
      <path
         d="m -1378.25,368.36218 c 3.4999,6.00008 6.7499,12.16674 9.75,18.5 2.9999,6.3334 4.5833,13.25005 4.75,20.75 l 0,0.25 0,0.25 c -0.1667,7.50004 -1.6667,14.00003 -4.5,19.5 -2.6667,5.50002 -6.1667,10.08335 -10.5,13.75 -4.3334,3.66668 -9.2501,6.41667 -14.75,8.25 -5.3334,1.66667 -10.6667,2.58334 -16,2.75 l -0.25,0 c -0.5,0 -1,0 -1.5,0 -0.3334,-0.16666 -0.6667,-0.25 -1,-0.25 -5.3334,-0.33333 -10.1667,-1.5 -14.5,-3.5 -4.1667,-2.16666 -7.8333,-4.91666 -11,-8.25 -3,-3.33332 -5.3333,-7.08331 -7,-11.25 -1.6667,-4.3333 -2.5,-8.74997 -2.5,-13.25 l 0,-2.25 c 0.3333,-4.66662 1.3333,-9.08328 3,-13.25 1.8333,-4.33327 4.3333,-8.1666 7.5,-11.5 2.8333,-3.1666 6.25,-5.58326 10.25,-7.25 4,-1.83326 8.4166,-2.83326 13.25,-3 3,8e-5 6,0.66674 9,2 3,1.33341 5.6666,3.25007 8,5.75 1.9999,2.16673 3.5833,4.75006 4.75,7.75 1.3333,3.00006 2.0833,6.25005 2.25,9.75 -10e-5,1.50005 -0.5001,2.75005 -1.5,3.75 -1.0001,1.00005 -2.2501,1.50005 -3.75,1.5 -1.5001,5e-5 -2.75,-0.49995 -3.75,-1.5 -1,-0.99995 -1.5,-2.24995 -1.5,-3.75 -0.1667,-4.16661 -1.5834,-7.66661 -4.25,-10.5 -2.5,-2.83327 -5.5,-4.24993 -9,-4.25 -3.3334,7e-5 -6.3334,0.66673 -9,2 -2.6667,1.16673 -5,2.83339 -7,5 -2.3333,2.33339 -4.1667,5.16672 -5.5,8.5 -1.1667,3.16671 -1.9167,6.41671 -2.25,9.75 l 0,1.5 c 0,6.6667 2.25,12.41669 6.75,17.25 2.1666,2.33335 4.75,4.25002 7.75,5.75 3.1666,1.50001 6.6666,2.41668 10.5,2.75 0.5,0.16668 1.1666,0.25001 2,0.25 l 0.25,0 c 4.1666,-0.16665 8.3333,-0.91665 12.5,-2.25 4.1666,-1.33332 7.9999,-3.41665 11.5,-6.25 3.3333,-2.83331 5.9999,-6.33331 8,-10.5 1.9999,-4.16663 3.0833,-9.16663 3.25,-15 l 0,-0.25 c -0.1667,-5.99995 -1.5834,-11.83327 -4.25,-17.5 -2.6667,-5.6666 -5.5834,-11.16659 -8.75,-16.5 -0.8334,-1.33325 -1.5834,-2.49992 -2.25,-3.5 -0.5001,-1.16658 -1.1667,-2.41658 -2,-3.75 -1.8334,1.83342 -3.5001,3.75008 -5,5.75 -1,1.16675 -2.25,1.83341 -3.75,2 -1.3334,8e-5 -2.5834,-0.49992 -3.75,-1.5 -1.1667,-0.83325 -1.8334,-1.91658 -2,-3.25 0,-1.49991 0.4166,-2.83324 1.25,-4 2.6666,-3.16657 5.4166,-6.16657 8.25,-9 l 0.25,-0.25 c -1.5,-3.4999 -2.5834,-7.08323 -3.25,-10.75 -0.6667,-3.66655 -0.6667,-7.41655 0,-11.25 0.1666,-2.16654 0.8333,-4.49987 2,-7 0,-0.16654 0,-0.24987 0,-0.25 0.1666,1.3e-4 0.25,-0.0832 0.25,-0.25 0.9999,-2.16654 2.4166,-4.16653 4.25,-6 1.4999,-1.49986 3.2499,-2.66653 5.25,-3.5 1.9999,-0.99986 3.9999,-1.49986 6,-1.5 3.6666,0.33347 6.5833,1.75014 8.75,4.25 1.8333,1.83347 2.9166,4.75013 3.25,8.75 -10e-5,1.16679 -0.083,2.33346 -0.25,3.5 -0.1667,1.16679 -0.4167,2.33345 -0.75,3.5 -0.3334,1.33345 -0.7501,2.58345 -1.25,3.75 -0.3334,1.16678 -0.7501,2.33345 -1.25,3.5 -1.3334,3.00011 -2.9167,5.75011 -4.75,8.25 -1.8334,2.5001 -3.7501,4.91677 -5.75,7.25 0.8333,1.66676 1.7499,3.33343 2.75,5 0.9999,1.50009 1.9166,3.16676 2.75,5 m -10,-21 c 0.9999,-1.33322 1.9166,-2.74989 2.75,-4.25 0.9999,-1.49989 1.9166,-3.08322 2.75,-4.75 0.3333,-0.83322 0.6666,-1.66655 1,-2.5 0.3333,-0.99988 0.5833,-1.91655 0.75,-2.75 0.4999,-1.66654 0.6666,-3.16654 0.5,-4.5 -10e-5,-1.16654 -0.1667,-1.83321 -0.5,-2 -10e-5,-0.16654 -0.2501,-0.24987 -0.75,-0.25 -0.3334,-0.16654 -0.9167,-0.0832 -1.75,0.25 -1.0001,0.66679 -1.7501,1.25013 -2.25,1.75 -0.8334,0.83346 -1.5001,1.83346 -2,3 l -0.25,0.25 c -0.6667,1.50012 -1.0834,2.91679 -1.25,4.25 -0.5001,3.83345 -0.1667,7.66678 1,11.5"
         style="font-size:250px;stroke:#13587c;stroke-opacity:1;stroke-width:0.40000000000000002;stroke-miterlimit:4;stroke-dasharray:none;fill:#13587c;fill-opacity:1"
         id="path3780"
         inkscape:connector-curvature="0" />
    </g>
  </g>
</svg>
