<?xml version="1.0" encoding="UTF-8" standalone="no"?>
<!-- Created with Inkscape (http://www.inkscape.org/) -->

<svg
   xmlns:dc="http://purl.org/dc/elements/1.1/"
   xmlns:cc="http://creativecommons.org/ns#"
   xmlns:rdf="http://www.w3.org/1999/02/22-rdf-syntax-ns#"
   xmlns:svg="http://www.w3.org/2000/svg"
   xmlns="http://www.w3.org/2000/svg"
   xmlns:sodipodi="http://sodipodi.sourceforge.net/DTD/sodipodi-0.dtd"
   xmlns:inkscape="http://www.inkscape.org/namespaces/inkscape"
   width="744.09448819"
   height="1052.3622047"
   id="svg4225"
   version="1.1"
   inkscape:version="0.48.5 r10040"
   sodipodi:docname="New document 4">
  <defs
     id="defs4227">
    <filter
       style="color-interpolation-filters:sRGB;"
       inkscape:label="Drop Shadow"
       id="filter5047">
      <feFlood
         flood-opacity="0.424"
         flood-color="rgb(0,0,0)"
         result="flood"
         id="feFlood5049" />
      <feComposite
         in="flood"
         in2="SourceGraphic"
         operator="in"
         result="composite1"
         id="feComposite5051" />
      <feGaussianBlur
         in="composite"
         stdDeviation="1.4"
         result="blur"
         id="feGaussianBlur5053" />
      <feOffset
         dx="2.6"
         dy="2"
         result="offset"
         id="feOffset5055" />
      <feComposite
         in="SourceGraphic"
         in2="offset"
         operator="over"
         result="composite2"
         id="feComposite5057" />
    </filter>
    <filter
       style="color-interpolation-filters:sRGB;"
       inkscape:label="Drop Shadow"
       id="filter5059">
      <feFlood
         flood-opacity="0.424"
         flood-color="rgb(0,0,0)"
         result="flood"
         id="feFlood5061" />
      <feComposite
         in="flood"
         in2="SourceGraphic"
         operator="in"
         result="composite1"
         id="feComposite5063" />
      <feGaussianBlur
         in="composite"
         stdDeviation="1.4"
         result="blur"
         id="feGaussianBlur5065" />
      <feOffset
         dx="2.6"
         dy="2"
         result="offset"
         id="feOffset5067" />
      <feComposite
         in="SourceGraphic"
         in2="offset"
         operator="over"
         result="composite2"
         id="feComposite5069" />
    </filter>
  </defs>
  <sodipodi:namedview
     id="base"
     pagecolor="#ffffff"
     bordercolor="#666666"
     borderopacity="1.0"
     inkscape:pageopacity="0.0"
     inkscape:pageshadow="2"
     inkscape:zoom="3.0526911"
     inkscape:cx="-2664.1754"
     inkscape:cy="805.10455"
     inkscape:document-units="px"
     inkscape:current-layer="layer1"
     showgrid="false"
     inkscape:window-width="2565"
     inkscape:window-height="658"
     inkscape:window-x="1439"
     inkscape:window-y="179"
     inkscape:window-maximized="0" />
  <metadata
     id="metadata4230">
    <rdf:RDF>
      <cc:Work
         rdf:about="">
        <dc:format>image/svg+xml</dc:format>
        <dc:type
           rdf:resource="http://purl.org/dc/dcmitype/StillImage" />
        <dc:title></dc:title>
      </cc:Work>
    </rdf:RDF>
  </metadata>
  <g
     inkscape:label="Layer 1"
     inkscape:groupmode="layer"
     id="layer1">
    <path
       style="font-size:medium;font-style:normal;font-variant:normal;font-weight:normal;font-stretch:normal;text-indent:0;text-align:start;text-decoration:none;line-height:normal;letter-spacing:normal;word-spacing:normal;text-transform:none;direction:ltr;block-progression:tb;writing-mode:lr-tb;text-anchor:start;baseline-shift:baseline;color:#000000;fill:#5f93b3;fill-opacity:1;stroke:#13587c;stroke-width:1.7;stroke-miterlimit:4;stroke-opacity:1;stroke-dasharray:none;marker:none;visibility:visible;display:inline;overflow:visible;filter:url(#filter5059);enable-background:accumulate;font-family:Sans;-inkscape-font-specification:Sans"
       d="m -2673.2188,214.65625 22.6876,52.09375 c -1.5333,3.6 -2.7271,6.46041 -3.5938,8.59375 -0.8,2.13332 -1.5208,3.7729 -2.1875,4.90625 -0.6666,1.13332 -1.4184,1.8252 -2.1516,2.15855 -0.6667,0.33332 -1.4968,0.38416 -2.3493,0.41313 -0.901,0.0196 -1.975,-0.18799 -2.8741,-0.41543 -76.4839,-17.49817 -128.2093,-12.46082 -164.375,-9.78125 -18.0828,1.33979 -32.2063,2.01524 -43.4063,-0.71875 -11.1997,-2.73399 -19.7064,-8.54799 -27.6562,-21.34375 -0.5866,-0.98859 -1.6949,-1.64634 -2.8438,-1.6875 -1.2521,-0.0465 -2.5039,0.66174 -3.125,1.75 -0.6208,1.08825 -0.5836,2.50826 0.094,3.5625 8.6577,13.93524 19.1665,21.30399 31.875,24.40625 12.7085,3.10226 27.402,2.25179 45.5625,0.90625 36.3211,-2.69109 86.2965,-7.94012 161.8437,9.34375 2.7093,0.56294 5.4862,0.71679 7.5337,0.44809 2.2096,-0.14479 3.2997,-0.98145 4.9663,-2.44809 1.6176,-1.68956 2.9543,-3.06668 3.6876,-5 l 27,-67.1875 -6.5,0 -17.875,45.78125 -19.3126,-45.78125 z"
       id="path4749"
       inkscape:connector-curvature="0"
       sodipodi:nodetypes="cccccccssccccssccccccccc"
       inkscape:export-filename="/Applications/MAMP/htdocs/AuditSystemResults/img/queryTitleO3.png"
       inkscape:export-xdpi="90"
       inkscape:export-ydpi="90" />
    <g
       style="font-size:200px;font-style:normal;font-variant:normal;font-weight:normal;font-stretch:normal;line-height:125%;letter-spacing:0px;word-spacing:0px;fill:#5f93b3;fill-opacity:1;stroke:#13587c;stroke-opacity:1;filter:url(#filter5047);font-family:Nickainley;-inkscape-font-specification:Nickainley;stroke-width:1.7;stroke-miterlimit:4;stroke-dasharray:none"
       id="flowRoot4233"
       inkscape:export-filename="/Applications/MAMP/htdocs/AuditSystemResults/img/queryTitleO3.png"
       inkscape:export-xdpi="90"
       inkscape:export-ydpi="90">
      <path
         d="m -2845.9438,260.44143 c -2.7333,2.13334 -5.7333,3.8 -9,5 -3.2,1.2 -6.6667,1.8 -10.4,1.8 -4.9333,0 -9.4666,-1.03333 -13.6,-3.1 -4.0666,-2.06666 -7.5666,-4.76666 -10.5,-8.1 -2.9333,-3.33332 -5.2,-7.16665 -6.8,-11.5 -1.6,-4.33331 -2.4,-8.76664 -2.4,-13.3 0,-4.73329 0.8334,-9.26662 2.5,-13.6 1.7334,-4.33328 4.1,-8.16661 7.1001,-11.5 2.9999,-3.33327 6.5333,-5.9666 10.5999,-7.9 4.0667,-1.99993 8.4667,-2.99993 13.2,-3 4.9333,7e-5 9.4333,1.06674 13.5,3.2 4.1333,2.06673 7.6333,4.80006 10.5,8.2 2.9333,3.40006 5.2,7.26672 6.8,11.6 1.6,4.26671 2.4,8.63337 2.4001,13.1 -10e-5,4.8667 -0.9001,9.50002 -2.7001,13.9 -1.7333,4.40002 -4.1667,8.26668 -7.2999,11.6 l 8.3999,9.9 -6.8999,0 -5.4001,-6.3 m -19.4,0.5 c 3,0 5.7667,-0.46666 8.3001,-1.4 2.5332,-0.99999 4.8666,-2.33332 7,-4 l -8.9001,-10.6 6.9001,0 5.6999,6.8 c 2.3333,-2.79998 4.1333,-5.96665 5.4,-9.5 1.2667,-3.59997 1.9,-7.26664 1.9001,-11 -10e-5,-3.86663 -0.6668,-7.56662 -2,-11.1 -1.2668,-3.59995 -3.0668,-6.76661 -5.4001,-9.5 -2.3333,-2.73328 -5.1,-4.93327 -8.3,-6.6 -3.2,-1.6666 -6.7333,-2.49994 -10.6,-2.5 -4,6e-5 -7.6333,0.86673 -10.9,2.6 -3.2666,1.66673 -6.0333,3.90006 -8.2999,6.7 -2.2667,2.80005 -4.0334,6.00005 -5.3001,9.6 -1.2,3.53337 -1.8,7.13337 -1.8,10.8 0,3.8667 0.6334,7.60003 1.9,11.2 1.2667,3.53335 3.0667,6.70002 5.4,9.5 2.3334,2.73334 5.1,4.93334 8.3001,6.6 3.1999,1.60001 6.7666,2.4 10.6999,2.4"
         style="font-size:100px;fill:#5f93b3;stroke:#13587c;font-family:Raleway;-inkscape-font-specification:Raleway;stroke-opacity:1;stroke-width:1.7;stroke-miterlimit:4;stroke-dasharray:none"
         id="path5072" />
      <path
         d="m -2804.2391,267.74143 c -5.6666,0 -9.9,-1.86667 -12.7,-5.6 -2.7333,-3.79999 -4.1,-9.43332 -4.1,-16.9 l 0,-30.6 6.8,0 0,29.4 c 0,11.80001 4.0334,17.7 12.1,17.7 2,0 3.9667,-0.33333 5.9,-1 1.9333,-0.66666 3.7,-1.63333 5.3,-2.9 1.6667,-1.26666 3.1333,-2.76666 4.4,-4.5 1.3333,-1.73332 2.4,-3.69998 3.2,-5.9 l 0,-32.8 6.8,0 0,43.3 c 0,1.86667 0.8,2.8 2.4,2.8 l 0,6 c -0.8,0.13333 -1.4667,0.2 -2,0.2 -0.4667,0 -0.8,0 -1,0 -1.6,-0.0667 -2.9,-0.63333 -3.9,-1.7 -1,-1.06667 -1.5,-2.5 -1.5,-4.3 l 0,-6 c -2.2667,4.06667 -5.3667,7.23334 -9.3,9.5 -3.8667,2.2 -8,3.3 -12.4,3.3"
         style="font-size:100px;fill:#5f93b3;stroke:#13587c;font-family:Raleway;-inkscape-font-specification:Raleway;stroke-opacity:1;stroke-width:1.7;stroke-miterlimit:4;stroke-dasharray:none"
         id="path5074" />
      <path
         d="m -2738.6641,267.74143 c -3.8,0 -7.3,-0.7 -10.5,-2.1 -3.1333,-1.46667 -5.8666,-3.43333 -8.2,-5.9 -2.3333,-2.53332 -4.1666,-5.43332 -5.5,-8.7 -1.2666,-3.26665 -1.9,-6.76665 -1.9,-10.5 0,-3.66664 0.6334,-7.09997 1.9,-10.3 1.3334,-3.26663 3.1334,-6.09996 5.4,-8.5 2.3334,-2.46662 5.1,-4.39995 8.3,-5.8 3.2,-1.46662 6.6667,-2.19995 10.4,-2.2 3.8,5e-5 7.2667,0.73338 10.4,2.2 3.2,1.40005 5.9333,3.33338 8.2,5.8 2.2667,2.46671 4.0333,5.30004 5.3,8.5 1.2666,3.20003 1.9,6.60003 1.9,10.2 0,0.53336 0,1.06669 0,1.6 0,0.53336 -0.033,0.90002 -0.1,1.1 l -44.6,0 c 0.2,2.80002 0.8334,5.40002 1.9,7.8 1.1334,2.33335 2.5667,4.36668 4.3,6.1 1.7334,1.73334 3.7,3.10001 5.9,4.1 2.2667,0.93334 4.6667,1.4 7.2,1.4 1.6667,0 3.3333,-0.23333 5,-0.7 1.6667,-0.46666 3.2,-1.1 4.6,-1.9 1.4,-0.79999 2.6667,-1.76666 3.8,-2.9 1.1333,-1.19999 2,-2.49999 2.6,-3.9 l 5.9,1.6 c -0.8,1.93334 -1.9333,3.70001 -3.4,5.3 -1.4667,1.53334 -3.1667,2.9 -5.1,4.1 -1.9333,1.13333 -4.0667,2 -6.4,2.6 -2.3333,0.66666 -4.7667,1 -7.3,1 m 19.2,-29.8 c -0.2,-2.79997 -0.8667,-5.3333 -2,-7.6 -1.0667,-2.3333 -2.4667,-4.33329 -4.2,-6 -1.6667,-1.66662 -3.6333,-2.96662 -5.9,-3.9 -2.2,-0.93329 -4.5667,-1.39995 -7.1,-1.4 -2.5333,5e-5 -4.9333,0.46671 -7.2,1.4 -2.2666,0.93338 -4.2666,2.23338 -6,3.9 -1.6666,1.66671 -3.0333,3.6667 -4.1,6 -1,2.33337 -1.6,4.8667 -1.8,7.6 l 38.3,0"
         style="font-size:100px;fill:#5f93b3;stroke:#13587c;font-family:Raleway;-inkscape-font-specification:Raleway;stroke-opacity:1;stroke-width:1.7;stroke-miterlimit:4;stroke-dasharray:none"
         id="path5076" />
      <path
         d="m -2676.375,220.64143 c -4.6,0.13338 -8.6,1.40004 -12,3.8 -3.4,2.40004 -5.8,5.70004 -7.2,9.9 l 0,32.4 -6.8,0 0,-52.1 6.4,0 0,12.5 c 1.9333,-3.99996 4.5333,-7.13329 7.8,-9.4 3.2666,-2.26662 6.7666,-3.39995 10.5,-3.4 0.5333,5e-5 0.9666,0.0334 1.3,0.1 l 0,6.2"
         style="font-size:100px;fill:#5f93b3;stroke:#13587c;font-family:Raleway;-inkscape-font-specification:Raleway;stroke-opacity:1;stroke-width:1.7;stroke-miterlimit:4;stroke-dasharray:none"
         id="path5078" />
      <path
         d="m -2606.8219,268.44143 c -1.7333,0 -3.2,-0.6 -4.4,-1.8 -1.2,-1.26667 -1.8,-2.76666 -1.8,-4.5 0,-1.73333 0.6,-3.19999 1.8,-4.4 1.2,-1.26666 2.6667,-1.89999 4.4,-1.9 1.7333,1e-5 3.2,0.63334 4.4,1.9 1.2,1.20001 1.8,2.66667 1.8,4.4 0,1.73334 -0.6,3.23333 -1.8,4.5 -1.2,1.2 -2.6667,1.8 -4.4,1.8 m 0,-33.8 c -1.7333,3e-5 -3.2,-0.59997 -4.4,-1.8 -1.2,-1.26663 -1.8,-2.76663 -1.8,-4.5 0,-1.73329 0.6,-3.19996 1.8,-4.4 1.2,-1.26662 2.6667,-1.89996 4.4,-1.9 1.7333,4e-5 3.2,0.63338 4.4,1.9 1.2,1.20004 1.8,2.66671 1.8,4.4 0,1.73337 -0.6,3.23337 -1.8,4.5 -1.2,1.20003 -2.6667,1.80003 -4.4,1.8"
         style="stroke:#13587c;font-family:American Typewriter;-inkscape-font-specification:American Typewriter;stroke-opacity:1;stroke-width:1.7;stroke-miterlimit:4;stroke-dasharray:none"
         id="path5082" />
    </g>
  </g>
</svg>
